<svg width="135" height="46" viewBox="0 0 135 46" fill="none" xmlns="http://www.w3.org/2000/svg">
<rect x="0.5" y="1" width="134" height="44" rx="6.5" fill="#2F2F2F"/>
<path d="M91.7166 22.101V24.6784H90.101V26.3687H91.7166V32.1118C91.7166 34.0728 92.6037 34.8573 94.8356 34.8573C95.2278 34.8573 95.6013 34.8106 95.9282 34.7545V33.083C95.648 33.111 95.4706 33.1297 95.1624 33.1297C94.1632 33.1297 93.7243 32.6627 93.7243 31.5982V26.3687H95.9282V24.6784H93.7243V22.101H91.7166Z" fill="white"/>
<path d="M101.614 34.9973C104.583 34.9973 106.404 33.0083 106.404 29.7118C106.404 26.434 104.574 24.4356 101.614 24.4356C98.6442 24.4356 96.8138 26.434 96.8138 29.7118C96.8138 33.0083 98.6348 34.9973 101.614 34.9973ZM101.614 33.2137C99.8675 33.2137 98.887 31.9343 98.887 29.7118C98.887 27.5079 99.8675 26.2193 101.614 26.2193C103.351 26.2193 104.341 27.5079 104.341 29.7118C104.341 31.925 103.351 33.2137 101.614 33.2137Z" fill="white"/>
<path d="M107.962 34.8012H109.97V28.7966C109.97 27.3679 111.044 26.406 112.566 26.406C112.921 26.406 113.519 26.4714 113.687 26.5274V24.5477C113.472 24.4917 113.089 24.4636 112.79 24.4636C111.464 24.4636 110.334 25.192 110.045 26.1912H109.895V24.6317H107.962V34.8012Z" fill="white"/>
<path d="M118.672 26.1445C120.157 26.1445 121.128 27.1811 121.175 28.778H116.039C116.151 27.1904 117.187 26.1445 118.672 26.1445ZM121.165 32.0557C120.792 32.8495 119.961 33.2884 118.747 33.2884C117.141 33.2884 116.104 32.1585 116.039 30.3748V30.2628H123.22V29.5624C123.22 26.3687 121.511 24.4356 118.681 24.4356C115.814 24.4356 113.993 26.4994 113.993 29.7492C113.993 32.9989 115.777 34.9973 118.691 34.9973C121.016 34.9973 122.641 33.8767 123.098 32.0557H121.165Z" fill="white"/>
<path d="M78.55 31.0458C78.7049 33.543 80.7859 35.14 83.8831 35.14C87.1934 35.14 89.2646 33.4655 89.2646 30.7941C89.2646 28.6938 88.0838 27.5323 85.2188 26.8645L83.6799 26.487C81.8602 26.0611 81.1246 25.4901 81.1246 24.4931C81.1246 23.2349 82.2668 22.4122 83.9799 22.4122C85.606 22.4122 86.7288 23.2155 86.932 24.5028H89.042C88.9162 22.1508 86.8449 20.4957 84.009 20.4957C80.9601 20.4957 78.9275 22.1508 78.9275 24.6383C78.9275 26.6903 80.0793 27.9098 82.6055 28.5002L84.4058 28.9358C86.2545 29.3713 87.0675 30.0101 87.0675 31.0748C87.0675 32.3137 85.7899 33.2139 84.0477 33.2139C82.1797 33.2139 80.8827 32.3718 80.6988 31.0458H78.55Z" fill="white"/>
<path d="M57.7518 24.4636C56.3697 24.4636 55.1744 25.1547 54.5581 26.3126H54.4087V24.6317H52.4756V38.1817H54.4834V33.2604H54.6421C55.1744 34.3343 56.323 34.9693 57.7705 34.9693C60.3385 34.9693 61.9727 32.9429 61.9727 29.7118C61.9727 26.4807 60.3385 24.4636 57.7518 24.4636ZM57.1822 33.167C55.5012 33.167 54.446 31.841 54.446 29.7211C54.446 27.592 55.5012 26.2659 57.1915 26.2659C58.8911 26.2659 59.909 27.564 59.909 29.7118C59.909 31.869 58.8911 33.167 57.1822 33.167Z" fill="white"/>
<path d="M68.9982 24.4636C67.6161 24.4636 66.4208 25.1547 65.8045 26.3126H65.6551V24.6317H63.722V38.1817H65.7298V33.2604H65.8885C66.4208 34.3343 67.5694 34.9693 69.0169 34.9693C71.5849 34.9693 73.2191 32.9429 73.2191 29.7118C73.2191 26.4807 71.5849 24.4636 68.9982 24.4636ZM68.4285 33.167C66.7476 33.167 65.6924 31.841 65.6924 29.7211C65.6924 27.592 66.7476 26.2659 68.4379 26.2659C70.1375 26.2659 71.1554 27.564 71.1554 29.7118C71.1554 31.869 70.1375 33.167 68.4285 33.167Z" fill="white"/>
<path d="M48.8734 34.8012H51.177L46.1342 20.8345H43.8016L38.7589 34.8012H40.985L42.2723 31.0942H47.5957L48.8734 34.8012ZM44.8566 23.3704H45.0211L47.044 29.2745H42.824L44.8566 23.3704Z" fill="white"/>
<path d="M40.1075 10.2998V17.0374H42.5402C44.5479 17.0374 45.7106 15.8001 45.7106 13.6476C45.7106 11.5278 44.5386 10.2998 42.5402 10.2998H40.1075ZM41.1534 11.2523H42.4235C43.8195 11.2523 44.646 12.1395 44.646 13.6616C44.646 15.2071 43.8336 16.0849 42.4235 16.0849H41.1534V11.2523Z" fill="white"/>
<path d="M49.2713 17.1355C50.7561 17.1355 51.6666 16.141 51.6666 14.4927C51.6666 12.8539 50.7514 11.8546 49.2713 11.8546C47.7865 11.8546 46.8713 12.8539 46.8713 14.4927C46.8713 16.141 47.7818 17.1355 49.2713 17.1355ZM49.2713 16.2437C48.3982 16.2437 47.9079 15.604 47.9079 14.4927C47.9079 13.3908 48.3982 12.7465 49.2713 12.7465C50.1398 12.7465 50.6347 13.3908 50.6347 14.4927C50.6347 15.5993 50.1398 16.2437 49.2713 16.2437Z" fill="white"/>
<path d="M59.4202 11.9527H58.4164L57.5105 15.8328H57.4312L56.3853 11.9527H55.4234L54.3775 15.8328H54.3028L53.3923 11.9527H52.3744L53.7752 17.0374H54.8071L55.853 13.2928H55.9324L56.9829 17.0374H58.0242L59.4202 11.9527Z" fill="white"/>
<path d="M60.5763 17.0374H61.5802V14.0632C61.5802 13.2694 62.0518 12.7745 62.7942 12.7745C63.5366 12.7745 63.8915 13.1807 63.8915 13.9978V17.0374H64.8953V13.7457C64.8953 12.5363 64.2697 11.8546 63.1351 11.8546C62.3693 11.8546 61.865 12.1955 61.6176 12.7605H61.5429V11.9527H60.5763V17.0374Z" fill="white"/>
<path d="M66.4763 17.0374H67.4802V9.96829H66.4763V17.0374Z" fill="white"/>
<path d="M71.2557 17.1355C72.7405 17.1355 73.651 16.141 73.651 14.4927C73.651 12.8539 72.7358 11.8546 71.2557 11.8546C69.7709 11.8546 68.8557 12.8539 68.8557 14.4927C68.8557 16.141 69.7662 17.1355 71.2557 17.1355ZM71.2557 16.2437C70.3826 16.2437 69.8923 15.604 69.8923 14.4927C69.8923 13.3908 70.3826 12.7465 71.2557 12.7465C72.1242 12.7465 72.6191 13.3908 72.6191 14.4927C72.6191 15.5993 72.1242 16.2437 71.2557 16.2437Z" fill="white"/>
<path d="M76.6421 16.2764C76.0958 16.2764 75.6989 16.0102 75.6989 15.5526C75.6989 15.1044 76.0164 14.8663 76.7168 14.8196L77.9588 14.7402V15.1651C77.9588 15.7954 77.3985 16.2764 76.6421 16.2764ZM76.3853 17.1215C77.053 17.1215 77.6086 16.832 77.9121 16.3231H77.9915V17.0374H78.958V13.5636C78.958 12.4897 78.2389 11.8546 76.9643 11.8546C75.811 11.8546 74.9892 12.4149 74.8865 13.2881H75.8577C75.9697 12.9286 76.3573 12.7231 76.9176 12.7231C77.6039 12.7231 77.9588 13.0266 77.9588 13.5636V14.0025L76.5814 14.0818C75.3721 14.1566 74.6904 14.6842 74.6904 15.5993C74.6904 16.5285 75.4047 17.1215 76.3853 17.1215Z" fill="white"/>
<path d="M82.3646 17.1215C83.065 17.1215 83.658 16.79 83.9615 16.2343H84.0409V17.0374H85.0027V9.96829H83.9989V12.7605H83.9241C83.6487 12.2002 83.0603 11.8687 82.3646 11.8687C81.0806 11.8687 80.2542 12.8865 80.2542 14.4927C80.2542 16.1036 81.0713 17.1215 82.3646 17.1215ZM82.6495 12.7698C83.4899 12.7698 84.0175 13.4375 84.0175 14.4974C84.0175 15.562 83.4946 16.2203 82.6495 16.2203C81.7997 16.2203 81.2907 15.5713 81.2907 14.4927C81.2907 13.4235 81.8043 12.7698 82.6495 12.7698Z" fill="white"/>
<path d="M91.5125 17.1355C92.9973 17.1355 93.9078 16.141 93.9078 14.4927C93.9078 12.8539 92.9926 11.8546 91.5125 11.8546C90.0277 11.8546 89.1126 12.8539 89.1126 14.4927C89.1126 16.141 90.023 17.1355 91.5125 17.1355ZM91.5125 16.2437C90.6394 16.2437 90.1491 15.604 90.1491 14.4927C90.1491 13.3908 90.6394 12.7465 91.5125 12.7465C92.381 12.7465 92.8759 13.3908 92.8759 14.4927C92.8759 15.5993 92.381 16.2437 91.5125 16.2437Z" fill="white"/>
<path d="M95.2367 17.0374H96.2405V14.0632C96.2405 13.2694 96.7121 12.7745 97.4545 12.7745C98.1969 12.7745 98.5518 13.1807 98.5518 13.9978V17.0374H99.5557V13.7457C99.5557 12.5363 98.93 11.8546 97.7954 11.8546C97.0296 11.8546 96.5254 12.1955 96.2779 12.7605H96.2032V11.9527H95.2367V17.0374Z" fill="white"/>
<path d="M104.179 10.6873V11.976H103.371V12.8212H104.179V15.6927C104.179 16.6732 104.623 17.0655 105.739 17.0655C105.935 17.0655 106.121 17.0421 106.285 17.0141V16.1783C106.145 16.1923 106.056 16.2017 105.902 16.2017C105.402 16.2017 105.183 15.9682 105.183 15.4359V12.8212H106.285V11.976H105.183V10.6873H104.179Z" fill="white"/>
<path d="M107.632 17.0374H108.636V14.0678C108.636 13.2974 109.094 12.7791 109.916 12.7791C110.625 12.7791 111.004 13.19 111.004 14.0025V17.0374H112.007V13.755C112.007 12.5457 111.34 11.8593 110.257 11.8593C109.491 11.8593 108.954 12.2002 108.706 12.7698H108.627V9.96829H107.632V17.0374Z" fill="white"/>
<path d="M115.629 12.7091C116.371 12.7091 116.857 13.2274 116.88 14.0258H114.312C114.368 13.2321 114.886 12.7091 115.629 12.7091ZM116.876 15.6647C116.689 16.0616 116.273 16.281 115.666 16.281C114.863 16.281 114.345 15.7161 114.312 14.8242V14.7682H117.903V14.418C117.903 12.8212 117.048 11.8546 115.634 11.8546C114.2 11.8546 113.29 12.8865 113.29 14.5114C113.29 16.1363 114.181 17.1355 115.638 17.1355C116.801 17.1355 117.613 16.5752 117.842 15.6647H116.876Z" fill="white"/>
<path d="M27.8651 23.3384C27.8895 21.4473 28.9051 19.6579 30.5162 18.6674C29.4998 17.2157 27.7974 16.2954 26.0262 16.24C24.137 16.0417 22.3056 17.3704 21.3429 17.3704C20.3616 17.3704 18.8794 16.2597 17.2834 16.2925C15.203 16.3597 13.2635 17.5425 12.2513 19.3613C10.0756 23.1283 11.6985 28.6645 13.7827 31.7094C14.8254 33.2004 16.0441 34.866 17.6388 34.8069C19.1992 34.7422 19.782 33.8119 21.6656 33.8119C23.5317 33.8119 24.0785 34.8069 25.7055 34.7693C27.3799 34.7422 28.4349 33.2717 29.441 31.7666C30.1903 30.7042 30.7668 29.53 31.1493 28.2875C29.1815 27.4552 27.8674 25.4749 27.8651 23.3384Z" fill="white"/>
<path d="M24.792 14.2375C25.705 13.1415 26.1547 11.7328 26.0458 10.3105C24.651 10.457 23.3626 11.1236 22.4373 12.1776C21.5325 13.2073 21.0616 14.5912 21.1506 15.9591C22.5459 15.9735 23.9176 15.3249 24.792 14.2375Z" fill="white"/>
<rect x="0.5" y="1" width="134" height="44" rx="6.5" stroke="#A6A6A6"/>
</svg>
