<svg width="64" height="64" viewBox="0 0 64 64" fill="none" xmlns="http://www.w3.org/2000/svg">
<g opacity="0.3">
<path fill-rule="evenodd" clip-rule="evenodd" d="M32.8055 9.55094C33.0135 9.29414 33.379 8.97708 33.6178 8.84631C33.9902 8.6424 34.2685 8.61376 35.5718 8.64552C37.0524 8.68165 37.1035 8.6924 37.5581 9.06085C38.4235 9.76236 38.4884 10.0104 38.4884 12.6209C38.4884 15.2317 38.4235 15.4798 37.5576 16.181L37.0905 16.5592H33.7629L33.2958 16.181C32.4024 15.4576 32.3517 15.2497 32.3919 12.4759L32.4275 10.0179L32.8055 9.55094ZM36.5514 14.6838V10.558L35.456 10.5219C34.633 10.4947 34.3445 10.5271 34.2965 10.6522C34.2615 10.7437 34.2483 11.6882 34.2674 12.7512L34.302 14.6838H36.5514Z" fill="#3E68BA"/>
<path fill-rule="evenodd" clip-rule="evenodd" d="M6.40081 6.8218C6.58789 6.19518 7.40042 5.34926 7.99788 5.15898C8.26468 5.07396 9.65031 5.01507 11.5658 5.0072C12.02 5.00536 12.4088 5.00405 12.7425 5.00401L12.7453 4.99444H21.1806V5.00749C22.768 4.99478 25.2332 4.99445 29.0938 4.99445C37.1805 4.99445 39.8964 5.0317 40.2859 5.14823C40.9498 5.34664 41.7604 6.15754 41.9587 6.8218C42.1765 7.55119 42.1765 17.6906 41.9587 18.42C41.7604 19.0843 40.9498 19.8952 40.2859 20.0936C39.5396 20.3168 8.81991 20.3168 8.07361 20.0936C7.40966 19.8952 6.59913 19.0843 6.40081 18.42C6.183 17.6906 6.183 7.55119 6.40081 6.8218ZM21.1806 6.85679V6.8698H12.183L12.1831 6.86959C12.0193 6.86975 11.845 6.8698 11.6595 6.8698C8.78804 6.8698 8.60771 6.88356 8.37153 7.11985C8.12947 7.36202 8.1216 7.53656 8.1216 12.6209C8.1216 17.7053 8.12947 17.8798 8.37153 18.122C8.61884 18.3694 8.78804 18.372 24.1798 18.372C39.5715 18.372 39.7407 18.3694 39.988 18.122C40.23 17.8798 40.2379 17.7053 40.2379 12.6209C40.2379 7.53656 40.23 7.36202 39.988 7.11985C39.7419 6.87368 39.5715 6.8698 29.077 6.8698C25.2261 6.8698 22.7656 6.86947 21.1806 6.85679Z" fill="#3E68BA"/>
<path d="M15.3696 33.1817C15.3696 32.214 15.3985 32.0844 15.6764 31.8065C15.8451 31.6377 16.1288 31.4995 16.3069 31.4995C16.485 31.4995 16.7686 31.6377 16.9373 31.8065C17.2153 32.0844 17.2441 32.214 17.2441 33.1817V34.25H18.312C19.2792 34.25 19.4088 34.2789 19.6866 34.557C19.8553 34.7258 19.9934 35.0096 19.9934 35.1877C19.9934 35.3659 19.8553 35.6497 19.6866 35.8185C19.4088 36.0965 19.2792 36.1254 18.312 36.1254H17.2441V37.1937C17.2441 38.1614 17.2153 38.2911 16.9373 38.569C16.7686 38.7378 16.485 38.8759 16.3069 38.8759C16.1288 38.8759 15.8451 38.7378 15.6764 38.569C15.3985 38.2911 15.3696 38.1614 15.3696 37.1937V36.1254H14.3018C13.3346 36.1254 13.205 36.0965 12.9272 35.8185C12.5362 35.4274 12.5362 34.9481 12.9272 34.557C13.205 34.2789 13.3346 34.25 14.3018 34.25H15.3696V33.1817Z" fill="#3E68BA"/>
<path d="M29.1971 32.8086C29.2418 32.6921 29.4502 32.5246 29.6603 32.4362C30.1801 32.2175 30.5308 32.3689 31.3341 33.1588L31.9901 33.804L32.6462 33.1588C33.4495 32.3689 33.8001 32.2175 34.32 32.4362C34.5301 32.5246 34.7385 32.6921 34.7831 32.8086C34.9792 33.3196 34.8502 33.6333 34.1283 34.4017L33.3923 35.1852L34.1283 35.9725C34.8495 36.7438 34.9785 37.0577 34.7831 37.5668C34.7385 37.6833 34.5301 37.8509 34.32 37.9393C33.8001 38.1579 33.4495 38.0065 32.6462 37.2166L31.9901 36.5715L31.3341 37.2166C30.5308 38.0065 30.1801 38.1579 29.6603 37.9393C29.4502 37.8509 29.2418 37.6833 29.1971 37.5668C29.0018 37.0577 29.1308 36.7438 29.852 35.9725L30.588 35.1852L29.852 34.4017C29.13 33.6333 29.0011 33.3196 29.1971 32.8086Z" fill="#3E68BA"/>
<path d="M29.2409 44.5645C29.2409 44.3864 29.379 44.1026 29.5477 43.9338C29.7164 43.765 30.0001 43.6268 30.1781 43.6268C30.5948 43.6268 31.1154 44.1477 31.1154 44.5645C31.1154 44.9814 30.5948 45.5022 30.1781 45.5022C29.7615 45.5022 29.2409 44.9814 29.2409 44.5645Z" fill="#3E68BA"/>
<path d="M28.9909 49.0875C28.9909 48.7269 29.2591 48.4149 31.4038 46.2794C32.7309 44.958 33.9092 43.8769 34.0222 43.8769C34.7009 43.8769 35.233 44.5575 35.0061 45.1354C34.9405 45.3028 33.8519 46.4664 32.5872 47.7214C30.6315 49.662 30.2317 50.0031 29.9128 50.0031C29.4016 50.0031 28.9909 49.5954 28.9909 49.0875Z" fill="#3E68BA"/>
<path d="M32.9899 49.3154C32.9899 49.1373 33.128 48.8535 33.2967 48.6847C33.4654 48.5159 33.749 48.3778 33.9271 48.3778C34.1052 48.3778 34.3889 48.5159 34.5576 48.6847C34.7263 48.8535 34.8644 49.1373 34.8644 49.3154C34.8644 49.4936 34.7263 49.7774 34.5576 49.9462C34.3889 50.115 34.1052 50.2531 33.9271 50.2531C33.749 50.2531 33.4654 50.115 33.2967 49.9462C33.128 49.7774 32.9899 49.4936 32.9899 49.3154Z" fill="#3E68BA"/>
<path d="M11.9955 46.94C11.9955 46.7618 12.1336 46.478 12.3023 46.3092L12.609 46.0023H20.0048L20.3114 46.3092C20.4801 46.478 20.6182 46.7618 20.6182 46.94C20.6182 47.1181 20.4801 47.4019 20.3114 47.5707L20.0048 47.8777H12.609L12.3023 47.5707C12.1336 47.4019 11.9955 47.1181 11.9955 46.94Z" fill="#3E68BA"/>
<path fill-rule="evenodd" clip-rule="evenodd" d="M0.199365 2.61399C0.558393 1.40438 1.29457 0.567723 2.33654 0.18515C2.7338 0.0392469 6.0609 0.00974123 22.8975 0.0022398C42.6075 -0.00638685 42.9967 -0.00188598 43.634 0.24041C44.4923 0.566723 45.2969 1.36888 45.6127 2.21329C45.8559 2.86379 45.8614 3.2086 45.8614 17.8657V32.8529L48.7668 32.7843C54.5099 32.6486 59.7434 33.2425 62.0286 34.2892C62.8464 34.6637 63.5928 35.3118 63.8126 35.8381C64.0625 36.4365 64.0625 60.319 63.8126 60.9174C63.5928 61.4438 62.8464 62.0918 62.0286 62.4663C57.5641 64.5112 42.7813 64.5112 38.3168 62.4663C37.499 62.0918 36.7526 61.4438 36.5328 60.9174C36.4399 60.695 36.364 60.1182 36.364 59.6357V58.7582L2.43564 58.6922L1.92127 58.4169C1.097 57.9757 0.608754 57.4971 0.294589 56.822L0.00129386 56.1917L4.41933e-05 29.7407C-0.0010805 5.82361 0.0180393 3.22473 0.199365 2.61399ZM43.5213 2.31604C43.4591 2.26507 43.3885 2.22426 43.3085 2.17801C43.2741 2.15808 43.2378 2.13709 43.1997 2.11389C42.8073 1.87447 42.4212 1.86985 22.9301 1.87435C21.4892 1.87468 20.15 1.87473 18.9051 1.87478H18.9047C3.71178 1.87538 2.57821 1.87542 2.28768 2.37058C2.26426 2.4105 2.24631 2.45364 2.22692 2.50026C2.20722 2.54762 2.18603 2.59856 2.15609 2.65337C1.95164 3.02757 1.93327 3.78671 1.90165 13.2148L1.86754 23.373H17.4677C32.9944 23.373 33.069 23.3742 33.3411 23.6279C33.5196 23.7942 33.6147 24.0315 33.6147 24.3106C33.6147 24.5898 33.5196 24.8271 33.3411 24.9934C33.069 25.2471 32.9942 25.2483 17.4704 25.2483H1.87329V40.5984C1.87329 41.7533 1.873 42.8235 1.87273 43.8154C1.86964 55.1792 1.86935 56.2605 2.34099 56.5375C2.39058 56.5666 2.4454 56.5869 2.50598 56.6092C2.55621 56.6278 2.61048 56.6478 2.66895 56.6756C3.05909 56.8608 4.61417 56.8794 19.7311 56.8794H36.364V53.7538H22.476C12.4314 53.7538 8.45626 53.7143 8.11185 53.6111C7.4589 53.4153 6.76071 52.8102 6.48366 52.1999C6.26485 51.7179 6.25248 51.1359 6.24985 41.2359L6.24964 40.5023C6.24691 31.3054 6.24663 30.3518 6.67813 29.6729C6.72804 29.5944 6.78374 29.5195 6.84587 29.436C6.8599 29.4172 6.87424 29.3979 6.88893 29.378C7.04351 29.1686 7.45153 28.8571 7.79531 28.6856L8.42064 28.3739H24.0335C36.0253 28.3739 39.7659 28.4096 40.1609 28.5277C40.8249 28.7261 41.6354 29.537 41.8337 30.2013C41.9183 30.4843 41.9874 31.2916 41.9874 31.9951V33.2744L42.7685 33.1906C42.8956 33.177 43.0096 33.1687 43.1119 33.1613C43.3869 33.1413 43.5766 33.1275 43.7072 33.0324C43.9978 32.8209 43.9957 32.207 43.9892 30.2273C43.9881 29.8964 43.9869 29.5274 43.9869 29.1157V25.2483H40.3865C36.9358 25.2483 36.7746 25.2377 36.5125 24.9934C36.1449 24.6507 36.1449 23.9706 36.5125 23.6279C36.7746 23.3836 36.9358 23.373 40.3865 23.373H43.9869V13.2398C43.9869 12.7244 43.987 12.2339 43.9871 11.7672C43.9885 3.65264 43.9886 2.6985 43.5213 2.31604ZM23.1175 40.1262V30.2493H8.63958L8.38065 30.5787C8.12922 30.8984 8.1216 31.0437 8.1216 35.5172V40.1262H23.1175ZM40.1129 32.226C40.1129 30.916 40.0847 30.7211 39.863 30.4993C39.6188 30.255 39.4465 30.2493 32.365 30.2493H25.117V40.1262H36.364V38.1843C36.364 36.8362 36.4156 36.1188 36.5328 35.8381C36.8618 35.0503 38.121 34.2134 39.5154 33.856L40.1129 33.7027V32.226ZM59.798 35.5163C58.4527 35.1803 56.4318 34.9027 54.2341 34.7519C49.5111 34.428 43.5961 34.7588 40.5474 35.5173C39.5207 35.7728 38.3009 36.3408 38.3009 36.5635C38.3009 36.7718 39.7954 37.4393 40.7633 37.6632C45.6603 38.796 55.1556 38.7693 59.798 37.6097C60.8266 37.3526 62.0426 36.7857 62.0426 36.563C62.0426 36.3403 60.8266 35.7733 59.798 35.5163ZM50.1727 40.3096C44.9811 40.3096 41.887 40.0025 39.4306 39.2435C38.965 39.0996 38.5062 38.952 38.4113 38.9156C38.2691 38.8609 38.2384 39.1711 38.2384 40.6663C38.2384 42.466 38.2416 42.4859 38.5576 42.7347C39.4149 43.4093 42.1476 43.9809 45.8614 44.2626C48.039 44.4276 54.497 44.3454 56.2336 44.1304C58.9895 43.7893 61.1281 43.2538 61.778 42.7424C62.1064 42.484 62.107 42.4801 62.107 40.6663C62.107 39.1711 62.0764 38.8609 61.9342 38.9156C59.3729 39.8989 55.9075 40.3096 50.1727 40.3096ZM25.117 43.0017H25.1161L25.141 42.0015H36.364V51.8784H25.1446L25.117 51.0703V43.0017ZM23.0899 51.8784L23.1175 51.0703V43.0017H23.1184L23.0935 42.0015H8.1216V51.4892L8.3994 51.6838C8.64296 51.8545 9.56333 51.8784 15.8835 51.8784H23.0899ZM44.1743 46.0258C42.325 45.8235 39.8303 45.3337 38.9557 45.0012C38.5956 44.8642 38.2868 44.7522 38.2697 44.7522C38.2526 44.7521 38.2384 45.595 38.2384 46.6253V48.4985L38.8834 48.8256C39.7465 49.2632 41.4473 49.6823 43.4925 49.9612C45.9479 50.2961 54.3976 50.2961 56.8529 49.9612C58.8981 49.6823 60.5989 49.2632 61.462 48.8256L62.107 48.4985V46.6253C62.107 45.595 62.0929 44.7521 62.0757 44.7522C62.0586 44.7522 61.7498 44.8642 61.3897 45.0012C60.5152 45.3337 58.0205 45.8235 56.1711 46.0258C55.2155 46.1303 53.0397 46.1898 50.1727 46.1898C47.3057 46.1898 45.13 46.1303 44.1743 46.0258ZM50.1727 52.0625C44.7438 52.0625 43.5884 51.9834 40.8627 51.426C40.3473 51.3204 39.5445 51.1073 39.0788 50.9521L38.2322 50.6702L38.3009 54.4369L38.8248 54.7258C39.5 55.0983 41.3465 55.5649 43.1302 55.8137C45.5388 56.1499 49.9819 56.3093 52.797 56.1606C53.19 56.1399 53.5244 56.1232 53.8101 56.1107C56.2791 55.9373 57.8855 55.819 59.2118 55.5318C59.4197 55.4402 59.6903 55.3538 60.045 55.2583C60.5949 55.1103 61.2838 54.8495 61.5759 54.6788L62.107 54.3684V50.6723L61.2635 50.9532C60.2202 51.3007 59.0094 51.5516 56.9834 51.84C55.685 52.025 54.5353 52.0625 50.1727 52.0625ZM60.4306 57.1051C60.4912 57.0924 60.5502 57.0796 60.6074 57.0669C60.8811 57.0061 61.0677 56.9485 61.1879 56.8891C61.4246 56.8124 61.6309 56.735 61.7666 56.6673L62.1136 56.4944L62.0445 60.3169L61.4226 60.6529C57.7969 62.6109 42.5485 62.6109 38.9229 60.6529L38.3009 60.3169L38.2318 56.4944L38.5789 56.6732C39.126 56.9549 41.414 57.4824 42.9872 57.6893C45.5185 58.0222 50.0179 58.182 52.8093 58.0381C53.0624 58.0251 53.3084 58.0106 53.5427 57.9951C53.5441 57.9983 53.5454 58.0014 53.5468 58.0046C53.7309 57.9888 53.9221 57.9717 54.1188 57.9534C54.5169 57.9216 54.8593 57.8878 55.1155 57.8549C56.5884 57.7014 58.2158 57.4974 59.4907 57.2811C59.7014 57.2686 60.0559 57.1989 60.4306 57.1051Z" fill="#3E68BA"/>
</g>
</svg>
