<svg width="487" height="487" viewBox="0 0 487 487" fill="none" xmlns="http://www.w3.org/2000/svg">
<circle cx="243.5" cy="243.5" r="243.5" fill="url(#paint0_radial_43_22116)"/>
<g clip-path="url(#clip0_43_22116)">
<path d="M217.891 221.767V210.326C217.891 203.938 212.713 198.764 206.329 198.764H149.576C143.187 198.764 138.013 203.942 138.013 210.326V359.14C138.013 365.528 143.191 370.702 149.576 370.702H345.305C351.694 370.702 356.868 365.524 356.868 359.14V244.897C356.868 238.508 351.69 233.334 345.305 233.334H229.459C223.07 233.334 217.896 228.156 217.896 221.772L217.891 221.767Z" fill="#D99B27"/>
<path d="M349.438 109.424L217.267 109.677C216.449 109.679 215.786 110.344 215.788 111.162L216.11 278.954C216.112 279.773 216.777 280.435 217.595 280.434L349.766 280.18C350.584 280.178 351.247 279.513 351.245 278.695L350.923 110.903C350.921 110.084 350.256 109.422 349.438 109.424Z" fill="#F7F7F9"/>
<path d="M333.628 167.319L245.218 167.489L245.222 169.67L333.633 169.5L333.628 167.319Z" fill="#E6E6E7"/>
<path d="M333.651 178.83L229.77 179.029L229.774 181.211L333.655 181.011L333.651 178.83Z" fill="#E6E6E7"/>
<path d="M333.671 191.922L229.791 192.121L229.795 194.302L333.675 194.103L333.671 191.922Z" fill="#E6E6E7"/>
<path d="M333.703 206.228L229.823 206.428L229.827 208.609L333.707 208.409L333.703 206.228Z" fill="#E6E6E7"/>
<path d="M295.259 233.776L229.875 233.901L229.88 236.082L295.264 235.957L295.259 233.776Z" fill="#E6E6E7"/>
<path d="M295.234 220.721L229.85 220.847L229.855 223.028L295.238 222.903L295.234 220.721Z" fill="#E6E6E7"/>
<path d="M333.778 245.208L229.897 245.407L229.902 247.589L333.782 247.389L333.778 245.208Z" fill="#E6E6E7"/>
<path d="M333.803 258.3L229.923 258.499L229.927 260.68L333.807 260.481L333.803 258.3Z" fill="#E6E6E7"/>
<path d="M333.831 272.606L229.95 272.806L229.954 274.987L333.835 274.788L333.831 272.606Z" fill="#E6E6E7"/>
<path d="M336.63 122.901L229.043 123.108L229.108 156.905L336.695 156.698L336.63 122.901Z" fill="#4867B4"/>
<path d="M332.731 210.532L300.436 210.594L300.496 242.106L332.792 242.044L332.731 210.532Z" fill="#4867B4"/>
<path d="M206.849 221.767V210.326C206.849 203.938 201.671 198.764 195.287 198.764H138.534C132.145 198.764 126.971 203.942 126.971 210.326V359.14C126.971 365.528 132.15 370.702 138.534 370.702H334.263C340.652 370.702 345.826 365.524 345.826 359.14V244.897C345.826 238.508 340.648 233.334 334.263 233.334H218.417C212.028 233.334 206.854 228.156 206.854 221.772L206.849 221.767Z" fill="#EFCF4B"/>
</g>
<defs>
<radialGradient id="paint0_radial_43_22116" cx="0" cy="0" r="1" gradientUnits="userSpaceOnUse" gradientTransform="translate(243.5 243.5) rotate(90) scale(243.5)">
<stop stop-color="#4874E1"/>
<stop offset="1" stop-color="#4867B4" stop-opacity="0"/>
</radialGradient>
<clipPath id="clip0_43_22116">
<rect width="233.894" height="267.948" fill="white" transform="translate(126.971 109.429)"/>
</clipPath>
</defs>
</svg>
