<svg width="152" height="46" viewBox="0 0 152 46" fill="none" xmlns="http://www.w3.org/2000/svg">
<rect x="0.5" y="1" width="150.875" height="44" rx="4.5" fill="#2F2F2F"/>
<path d="M76.653 24.97C74.007 24.97 71.8504 26.9826 71.8504 29.7546C71.8504 32.5098 74.007 34.5393 76.653 34.5393C79.3001 34.5393 81.4567 32.5098 81.4567 29.7546C81.4556 26.9826 79.299 24.97 76.653 24.97ZM76.653 32.656C75.2029 32.656 73.953 31.4601 73.953 29.7558C73.953 28.0334 75.204 26.8555 76.653 26.8555C78.1031 26.8555 79.353 28.0334 79.353 29.7558C79.353 31.459 78.1031 32.656 76.653 32.656ZM66.1747 24.97C63.5287 24.97 61.3721 26.9826 61.3721 29.7546C61.3721 32.5098 63.5287 34.5393 66.1747 34.5393C68.8219 34.5393 70.9785 32.5098 70.9785 29.7546C70.9785 26.9826 68.8219 24.97 66.1747 24.97ZM66.1747 32.656C64.7246 32.656 63.4747 31.4601 63.4747 29.7558C63.4747 28.0334 64.7257 26.8555 66.1747 26.8555C67.6249 26.8555 68.8747 28.0334 68.8747 29.7558C68.8759 31.459 67.6249 32.656 66.1747 32.656ZM53.712 26.4393V28.4688H58.5697C58.4246 29.6106 58.0444 30.4443 57.4639 31.0236C56.7574 31.7301 55.6515 32.5098 53.712 32.5098C50.7217 32.5098 48.384 30.0989 48.384 27.1086C48.384 24.1184 50.7217 21.7075 53.712 21.7075C55.3252 21.7075 56.5031 22.342 57.3727 23.1576L58.8049 21.7255C57.5899 20.5656 55.9777 19.678 53.712 19.678C49.6159 19.678 46.1722 23.0125 46.1722 27.1086C46.1722 31.2048 49.6159 34.5393 53.712 34.5393C55.9226 34.5393 57.591 33.8136 58.8949 32.4546C60.2359 31.1136 60.6532 29.2281 60.6532 27.706C60.6532 27.2358 60.6172 26.8004 60.5441 26.4381H53.712V26.4393ZM104.683 28.0154C104.285 26.9466 103.07 24.97 100.587 24.97C98.1225 24.97 96.0739 26.9095 96.0739 29.7546C96.0739 32.4366 98.1045 34.5393 100.822 34.5393C103.015 34.5393 104.284 33.1983 104.811 32.4186L103.179 31.3308C102.636 32.1284 101.892 32.6538 100.822 32.6538C99.7537 32.6538 98.9921 32.1644 98.5027 31.2036L104.901 28.5576L104.683 28.0154ZM98.1585 29.6106C98.1045 27.7611 99.5906 26.8195 100.66 26.8195C101.494 26.8195 102.201 27.2369 102.437 27.8343L98.1585 29.6106ZM92.9576 34.2501H95.0591V20.1865H92.9576V34.2501ZM89.5129 26.0399H89.4409C88.9695 25.4774 88.0627 24.97 86.922 24.97C84.5291 24.97 82.3365 27.0726 82.3365 29.7738C82.3365 32.4558 84.5291 34.5404 86.922 34.5404C88.0639 34.5404 88.9695 34.033 89.4409 33.4536H89.5129V34.1421C89.5129 35.9725 88.5341 36.9513 86.958 36.9513C85.671 36.9513 84.8734 36.0276 84.5471 35.248L82.7167 36.0096C83.2421 37.2775 84.6371 38.8368 86.958 38.8368C89.4229 38.8368 91.5075 37.3866 91.5075 33.8519V25.2614H89.514V26.0399H89.5129ZM87.1031 32.656C85.653 32.656 84.4391 31.441 84.4391 29.7738C84.4391 28.0874 85.653 26.8555 87.1031 26.8555C88.5341 26.8555 89.658 28.0874 89.658 29.7738C89.658 31.441 88.5341 32.656 87.1031 32.656ZM114.532 20.1865H109.502V34.2501H111.6V28.9221H114.531C116.857 28.9221 119.145 27.238 119.145 24.5549C119.145 21.8718 116.858 20.1865 114.532 20.1865ZM114.586 26.9646H111.6V22.144H114.586C116.155 22.144 117.046 23.4434 117.046 24.5549C117.046 25.6439 116.155 26.9646 114.586 26.9646ZM127.559 24.9453C126.039 24.9453 124.465 25.6146 123.814 27.0985L125.677 27.8759C126.075 27.0985 126.818 26.8443 127.595 26.8443C128.681 26.8443 129.784 27.4956 129.802 28.6533V28.7984C129.422 28.5813 128.608 28.2561 127.613 28.2561C125.605 28.2561 123.56 29.3598 123.56 31.4219C123.56 33.304 125.207 34.5156 127.052 34.5156C128.463 34.5156 129.241 33.8823 129.729 33.1398H129.801V34.2254H131.829V28.8333C131.83 26.338 129.964 24.9453 127.559 24.9453ZM127.305 32.6526C126.619 32.6526 125.659 32.3084 125.659 31.4579C125.659 30.3723 126.854 29.956 127.885 29.956C128.807 29.956 129.242 30.1551 129.802 30.4263C129.639 31.7301 128.518 32.6526 127.305 32.6526ZM139.211 25.2524L136.804 31.3499H136.732L134.235 25.2524H131.974L135.719 33.7743L133.584 38.515H135.773L141.545 25.2524H139.211ZM120.304 34.2501H122.402V20.1865H120.304V34.2501Z" fill="white"/>
<path d="M53.3453 12.0233C53.3453 12.9661 53.0663 13.7164 52.5072 14.2767C51.8727 14.9427 51.0447 15.2757 50.0277 15.2757C49.0534 15.2757 48.2243 14.9382 47.5437 14.2632C46.8619 13.5871 46.5211 12.7501 46.5211 11.7511C46.5211 10.7509 46.8619 9.91394 47.5437 9.23894C48.2243 8.56281 49.0534 8.22531 50.0277 8.22531C50.5114 8.22531 50.9738 8.31981 51.4126 8.50769C51.8524 8.69669 52.2046 8.94756 52.4678 9.26144L51.8749 9.85544C51.4283 9.32106 50.8129 9.05444 50.0266 9.05444C49.3156 9.05444 48.7013 9.30419 48.1827 9.80369C47.6641 10.3032 47.4053 10.9523 47.4053 11.7499C47.4053 12.5476 47.6641 13.1967 48.1827 13.6962C48.7013 14.1957 49.3156 14.4454 50.0266 14.4454C50.7803 14.4454 51.4092 14.1946 51.9121 13.6917C52.2383 13.3643 52.4273 12.9087 52.4779 12.3248H50.0266V11.5137H53.2969C53.3307 11.6903 53.3453 11.8602 53.3453 12.0233Z" fill="white"/>
<path d="M58.5317 9.20412H55.4582V11.3439H58.2302V12.155H55.4582V14.2947H58.5317V15.125H54.5908V8.375H58.5317V9.20412Z" fill="white"/>
<path d="M62.1889 15.125H61.3215V9.20412H59.436V8.375H64.0744V9.20412H62.1889V15.125Z" fill="white"/>
<path d="M67.4302 15.125V8.375H68.2976V15.125H67.4302Z" fill="white"/>
<path d="M72.1442 15.125H71.2768V9.20412H69.3913V8.375H74.0297V9.20412H72.1442V15.125Z" fill="white"/>
<path d="M82.81 14.2531C82.1463 14.9349 81.3217 15.2757 80.335 15.2757C79.3484 15.2757 78.5238 14.9349 77.8612 14.2531C77.1974 13.5714 76.8667 12.7366 76.8667 11.75C76.8667 10.7634 77.1974 9.92861 77.8612 9.24686C78.5238 8.56511 79.3484 8.22311 80.335 8.22311C81.316 8.22311 82.1395 8.56624 82.8055 9.25136C83.4715 9.93649 83.8045 10.769 83.8045 11.75C83.8045 12.7366 83.4727 13.5714 82.81 14.2531ZM78.5013 13.6872C79.0008 14.1935 79.6117 14.4455 80.335 14.4455C81.0584 14.4455 81.6704 14.1924 82.1688 13.6872C82.6683 13.181 82.9192 12.5352 82.9192 11.75C82.9192 10.9647 82.6683 10.319 82.1688 9.81274C81.6704 9.30649 81.0584 9.05449 80.335 9.05449C79.6117 9.05449 79.0008 9.30761 78.5013 9.81274C78.0029 10.319 77.752 10.9647 77.752 11.75C77.752 12.5352 78.0029 13.181 78.5013 13.6872Z" fill="white"/>
<path d="M85.0218 15.125V8.375H86.0771L89.3576 13.6254H89.3947L89.3576 12.3249V8.375H90.2249V15.125H89.3193L85.8869 9.61925H85.8498L85.8869 10.9197V15.125H85.0218Z" fill="white"/>
<path d="M53.3453 12.0233C53.3453 12.9661 53.0663 13.7164 52.5072 14.2767C51.8727 14.9427 51.0447 15.2757 50.0277 15.2757C49.0534 15.2757 48.2243 14.9382 47.5437 14.2632C46.8619 13.5871 46.5211 12.7501 46.5211 11.7511C46.5211 10.7509 46.8619 9.91394 47.5437 9.23894C48.2243 8.56281 49.0534 8.22531 50.0277 8.22531C50.5114 8.22531 50.9738 8.31981 51.4126 8.50769C51.8524 8.69669 52.2046 8.94756 52.4678 9.26144L51.8749 9.85544C51.4283 9.32106 50.8129 9.05444 50.0266 9.05444C49.3156 9.05444 48.7013 9.30419 48.1827 9.80369C47.6641 10.3032 47.4053 10.9523 47.4053 11.7499C47.4053 12.5476 47.6641 13.1967 48.1827 13.6962C48.7013 14.1957 49.3156 14.4454 50.0266 14.4454C50.7803 14.4454 51.4092 14.1946 51.9121 13.6917C52.2383 13.3643 52.4273 12.9087 52.4779 12.3248H50.0266V11.5137H53.2969C53.3307 11.6903 53.3453 11.8602 53.3453 12.0233Z" stroke="white" stroke-width="0.225" stroke-miterlimit="10"/>
<path d="M58.5317 9.20412H55.4582V11.3439H58.2302V12.155H55.4582V14.2947H58.5317V15.125H54.5908V8.375H58.5317V9.20412Z" stroke="white" stroke-width="0.225" stroke-miterlimit="10"/>
<path d="M62.1889 15.125H61.3215V9.20412H59.436V8.375H64.0744V9.20412H62.1889V15.125Z" stroke="white" stroke-width="0.225" stroke-miterlimit="10"/>
<path d="M67.4302 15.125V8.375H68.2976V15.125H67.4302Z" stroke="white" stroke-width="0.225" stroke-miterlimit="10"/>
<path d="M72.1442 15.125H71.2768V9.20412H69.3913V8.375H74.0297V9.20412H72.1442V15.125Z" stroke="white" stroke-width="0.225" stroke-miterlimit="10"/>
<path d="M82.81 14.2531C82.1463 14.9349 81.3217 15.2757 80.335 15.2757C79.3484 15.2757 78.5238 14.9349 77.8612 14.2531C77.1974 13.5714 76.8667 12.7366 76.8667 11.75C76.8667 10.7634 77.1974 9.92861 77.8612 9.24686C78.5238 8.56511 79.3484 8.22311 80.335 8.22311C81.316 8.22311 82.1395 8.56624 82.8055 9.25136C83.4715 9.93649 83.8045 10.769 83.8045 11.75C83.8045 12.7366 83.4727 13.5714 82.81 14.2531ZM78.5013 13.6872C79.0008 14.1935 79.6117 14.4455 80.335 14.4455C81.0584 14.4455 81.6704 14.1924 82.1688 13.6872C82.6683 13.181 82.9192 12.5352 82.9192 11.75C82.9192 10.9647 82.6683 10.319 82.1688 9.81274C81.6704 9.30649 81.0584 9.05449 80.335 9.05449C79.6117 9.05449 79.0008 9.30761 78.5013 9.81274C78.0029 10.319 77.752 10.9647 77.752 11.75C77.752 12.5352 78.0029 13.181 78.5013 13.6872Z" stroke="white" stroke-width="0.225" stroke-miterlimit="10"/>
<path d="M85.0218 15.125V8.375H86.0771L89.3576 13.6254H89.3947L89.3576 12.3249V8.375H90.2249V15.125H89.3193L85.8869 9.61925H85.8498L85.8869 10.9197V15.125H85.0218Z" stroke="white" stroke-width="0.225" stroke-miterlimit="10"/>
<g filter="url(#filter0_ii_4_76696)">
<path d="M11.7405 8.98026C11.4132 9.32676 11.2197 9.86451 11.2197 10.5609V35.4414C11.2197 36.1389 11.4132 36.6755 11.7405 37.022L11.8238 37.103L25.7614 23.1654V23.0011V22.8369L11.8238 8.89813L11.7405 8.98026Z" fill="url(#paint0_linear_4_76696)"/>
<path d="M30.4065 27.8128L25.7614 23.1654V23.0011V22.8369L30.4077 18.1906L30.5123 18.2503L36.0169 21.3778C37.5885 22.271 37.5885 23.7324 36.0169 24.6268L30.5123 27.7543L30.4065 27.8128Z" fill="url(#paint1_linear_4_76696)"/>
<g filter="url(#filter1_i_4_76696)">
<path d="M30.5123 27.7531L25.7603 23.0011L11.7405 37.022C12.258 37.571 13.1142 37.6385 14.0783 37.0918L30.5123 27.7531Z" fill="url(#paint2_linear_4_76696)"/>
</g>
<path d="M30.5123 18.2491L14.0783 8.91162C13.1142 8.36375 12.258 8.43237 11.7405 8.98137L25.7614 23.0022L30.5123 18.2491Z" fill="url(#paint3_linear_4_76696)"/>
</g>
<rect x="0.5" y="1" width="150.875" height="44" rx="4.5" stroke="#A6A6A6"/>
<defs>
<filter id="filter0_ii_4_76696" x="11.2197" y="8.53354" width="25.976" height="28.9359" filterUnits="userSpaceOnUse" color-interpolation-filters="sRGB">
<feFlood flood-opacity="0" result="BackgroundImageFix"/>
<feBlend mode="normal" in="SourceGraphic" in2="BackgroundImageFix" result="shape"/>
<feColorMatrix in="SourceAlpha" type="matrix" values="0 0 0 0 0 0 0 0 0 0 0 0 0 0 0 0 0 0 127 0" result="hardAlpha"/>
<feOffset dy="-0.16875"/>
<feComposite in2="hardAlpha" operator="arithmetic" k2="-1" k3="1"/>
<feColorMatrix type="matrix" values="0 0 0 0 0 0 0 0 0 0 0 0 0 0 0 0 0 0 0.12 0"/>
<feBlend mode="normal" in2="shape" result="effect1_innerShadow_4_76696"/>
<feColorMatrix in="SourceAlpha" type="matrix" values="0 0 0 0 0 0 0 0 0 0 0 0 0 0 0 0 0 0 127 0" result="hardAlpha"/>
<feOffset dy="0.16875"/>
<feComposite in2="hardAlpha" operator="arithmetic" k2="-1" k3="1"/>
<feColorMatrix type="matrix" values="0 0 0 0 1 0 0 0 0 1 0 0 0 0 1 0 0 0 0.25 0"/>
<feBlend mode="normal" in2="effect1_innerShadow_4_76696" result="effect2_innerShadow_4_76696"/>
</filter>
<filter id="filter1_i_4_76696" x="11.7405" y="23.0011" width="18.7717" height="14.4683" filterUnits="userSpaceOnUse" color-interpolation-filters="sRGB">
<feFlood flood-opacity="0" result="BackgroundImageFix"/>
<feBlend mode="normal" in="SourceGraphic" in2="BackgroundImageFix" result="shape"/>
<feColorMatrix in="SourceAlpha" type="matrix" values="0 0 0 0 0 0 0 0 0 0 0 0 0 0 0 0 0 0 127 0" result="hardAlpha"/>
<feOffset dy="-0.16875"/>
<feComposite in2="hardAlpha" operator="arithmetic" k2="-1" k3="1"/>
<feColorMatrix type="matrix" values="0 0 0 0 0 0 0 0 0 0 0 0 0 0 0 0 0 0 0.08 0"/>
<feBlend mode="normal" in2="shape" result="effect1_innerShadow_4_76696"/>
</filter>
<linearGradient id="paint0_linear_4_76696" x1="24.5259" y1="10.2976" x2="5.64619" y2="29.1774" gradientUnits="userSpaceOnUse">
<stop stop-color="#00A0FF"/>
<stop offset="0.0066" stop-color="#00A1FF"/>
<stop offset="0.2601" stop-color="#00BEFF"/>
<stop offset="0.5122" stop-color="#00D2FF"/>
<stop offset="0.7604" stop-color="#00DFFF"/>
<stop offset="1" stop-color="#00E3FF"/>
</linearGradient>
<linearGradient id="paint1_linear_4_76696" x1="38.0627" y1="23.0011" x2="10.8423" y2="23.0011" gradientUnits="userSpaceOnUse">
<stop stop-color="#FFE000"/>
<stop offset="0.4087" stop-color="#FFBD00"/>
<stop offset="0.7754" stop-color="#FFA500"/>
<stop offset="1" stop-color="#FF9C00"/>
</linearGradient>
<linearGradient id="paint2_linear_4_76696" x1="27.9317" y1="25.5818" x2="2.32834" y2="51.1851" gradientUnits="userSpaceOnUse">
<stop stop-color="#FF3A44"/>
<stop offset="1" stop-color="#C31162"/>
</linearGradient>
<linearGradient id="paint3_linear_4_76696" x1="8.20961" y1="0.698899" x2="19.6422" y2="12.1315" gradientUnits="userSpaceOnUse">
<stop stop-color="#32A071"/>
<stop offset="0.0685" stop-color="#2DA771"/>
<stop offset="0.4762" stop-color="#15CF74"/>
<stop offset="0.8009" stop-color="#06E775"/>
<stop offset="1" stop-color="#00F076"/>
</linearGradient>
</defs>
</svg>
