<svg width="150" height="284" viewBox="0 0 933 284" fill="none" xmlns="http://www.w3.org/2000/svg">
<g clip-path="url(#clip0_57_1346)">
<path d="M178.825 246.361L150.835 247.917L58.81 136.868V254.822H0.59082V-0.0310669H58.81V110.645L136.684 -0.0310669H202.927L111.649 125.98V126.602C111.649 126.602 148.658 152.732 168.562 180.105C194.033 215.162 202.088 246.704 198.107 238.896C198.076 238.834 178.887 246.361 178.825 246.361Z" fill="#3E68BA"/>
<path d="M244.788 254.791V72.7886H299.369V254.791H244.788Z" fill="#3E68BA"/>
<path d="M244.788 6.439V44.4819C244.788 48.0591 247.68 50.952 251.226 50.9209H292.9C296.445 50.9209 299.338 48.0591 299.338 44.4819V6.439C299.338 2.89288 296.476 0 292.9 0H251.226C247.68 0 244.788 2.86178 244.788 6.439Z" fill="#F6B83F"/>
<path d="M466.344 67.6872C490.354 67.6872 510.88 77.0191 527.86 95.714C544.841 114.16 553.331 136.836 553.331 163.774C553.331 190.712 544.841 213.513 527.86 232.208C510.88 250.654 490.385 259.862 466.344 259.862C443.05 259.862 424.981 252.458 412.106 237.652V254.76H357.525V-0.0310669H412.106V89.8971C424.981 75.0905 443.05 67.6872 466.344 67.6872ZM424.142 196.187C432.383 204.181 442.833 208.194 455.428 208.194C468.024 208.194 478.349 204.181 486.373 196.187C494.614 188.193 498.751 177.368 498.751 163.774C498.751 150.181 494.614 139.387 486.373 131.362C478.38 123.367 468.055 119.355 455.428 119.355C442.802 119.355 432.383 123.367 424.142 131.362C416.149 139.356 412.137 150.181 412.137 163.774C412.106 177.368 416.118 188.193 424.142 196.187Z" fill="#3E68BA"/>
<path d="M650.519 185.642C656.583 205.799 670.765 215.846 693.094 215.846C699.657 215.846 705.845 214.633 711.661 212.207C717.477 209.532 721.738 206.141 724.412 202.004L777.562 201.631C771.746 220.574 761.297 235.008 746.275 244.962C731.254 254.916 713.278 259.893 692.41 259.893C662.803 259.893 638.918 250.779 620.725 232.581C602.531 214.384 593.419 191.459 593.419 163.774C593.419 136.339 602.531 113.538 620.725 95.3406C639.167 76.8946 662.585 67.6872 690.98 67.6872C717.415 67.6872 739.278 76.8013 756.476 94.9985C773.954 113.196 782.694 136.121 782.694 163.805C782.694 171.582 781.978 178.861 780.517 185.642H650.519ZM650.176 144.146H728.424C723.075 125.451 710.479 116.12 690.575 116.12C669.707 116.12 656.241 125.451 650.176 144.146Z" fill="#3E68BA"/>
<path d="M885.697 101.531C888.62 91.1102 894.311 83.0848 902.802 77.5168C911.292 71.9488 921.368 69.1492 933 69.1492V131.02C920.373 129.091 909.333 131.144 899.878 137.21C890.424 143.275 885.697 153.82 885.697 168.876V254.791H831.116V72.7887H885.697V101.531Z" fill="#3E68BA"/>
<path d="M179.882 276.721L210.92 225.925C213.532 221.632 209.862 216.282 204.918 217.184L126.95 231.368C122.005 232.27 120.45 238.585 124.431 241.664L171.361 278.276C174.097 280.423 178.078 279.707 179.882 276.721Z" fill="#3E68BA"/>
</g>
<defs>
<clipPath id="clip0_57_1346">
<rect width="933" height="284" fill="white"/>
</clipPath>
</defs>
</svg>
