<svg width="108" height="32" viewBox="0 0 108 32" fill="none" xmlns="http://www.w3.org/2000/svg">
<g clip-path="url(#clip0_4_76712)">
<path d="M33.6572 -0.00354004H28.869C28.458 -0.00354004 28.1293 0.322418 28.1293 0.72198V5.01201C28.1293 5.41508 28.4616 5.73753 28.869 5.73753H33.6572C34.0682 5.73753 34.3969 5.41157 34.3969 5.01201V0.725485C34.3969 0.322418 34.0646 -0.00354004 33.6572 -0.00354004Z" fill="#F6B83F"/>
<path d="M34.3969 8.20154H28.1257V28.7089H34.3969V8.20154Z" fill="#2F2F2F"/>
<path d="M53.5821 7.62669C50.9057 7.62669 48.8296 8.46086 47.3502 10.1292V-0.00354004H41.079V28.7088H47.3502V26.7811C48.826 28.4495 50.9057 29.2836 53.5821 29.2836C56.3407 29.2836 58.6991 28.2462 60.6502 26.1678C62.6012 24.0613 63.5767 21.4922 63.5767 18.4569C63.5767 15.4216 62.6012 12.8666 60.6502 10.7881C58.6991 8.67817 56.3407 7.62669 53.5821 7.62669ZM55.8834 22.1055C54.965 23.0063 53.7787 23.4584 52.3279 23.4584C50.8771 23.4584 49.6801 23.0063 48.7331 22.1055C47.8148 21.2048 47.3538 19.9851 47.3538 18.4534C47.3538 16.9218 47.8148 15.7055 48.7331 14.8013C49.6801 13.9005 50.8807 13.4484 52.3279 13.4484C53.7751 13.4484 54.9614 13.9005 55.8834 14.8013C56.8303 15.702 57.3055 16.9218 57.3055 18.4534C57.3055 19.9851 56.8303 21.2048 55.8834 22.1055Z" fill="#2F2F2F"/>
<path d="M79.3852 7.62671C76.1227 7.62671 73.432 8.66417 71.313 10.7426C69.2226 12.793 68.1756 15.3656 68.1756 18.4534C68.1756 21.5693 69.2226 24.156 71.313 26.2063C73.4034 28.2567 76.1513 29.2837 79.5495 29.2837C81.9472 29.2837 84.009 28.7229 85.7385 27.6013C87.468 26.4797 88.6651 24.8534 89.3333 22.7189L83.2265 22.761C82.9192 23.2271 82.4332 23.6092 81.7614 23.9106C81.0932 24.184 80.3821 24.3207 79.6281 24.3207C77.0625 24.3207 75.433 23.1851 74.7362 20.9174H89.6656C89.8336 20.1533 89.9158 19.3297 89.9158 18.4569C89.9158 15.3411 88.9117 12.7544 86.9035 10.704C84.9345 8.65365 82.4261 7.62671 79.3852 7.62671ZM74.7041 16.2418C75.4009 14.1354 76.9481 13.0839 79.3458 13.0839C81.6328 13.0839 83.08 14.1354 83.6946 16.2418H74.7041Z" fill="#2F2F2F"/>
<path d="M103.73 8.73421C102.755 9.36159 102.101 10.2659 101.765 11.44V8.20146H95.4938V28.7088H101.765V19.0282C101.765 17.3318 102.308 16.1436 103.394 15.4602C104.481 14.7767 105.749 14.5454 107.2 14.7627V7.79138C105.864 7.79138 104.706 8.10683 103.73 8.73421Z" fill="#2F2F2F"/>
<path d="M23.5447 24.4714L22.0331 24.7413C21.465 23.5251 20.5895 21.9443 19.3674 20.2935C17.0805 17.2092 12.8282 14.265 12.8282 14.265V14.1949L23.316 -0.00354004H15.7048L6.75715 12.467V-0.00354004H0.0678711V28.7088H6.75715V15.4217L15.6047 25.8909L14.5863 26.0731C14.0182 26.1748 13.8395 26.8863 14.2969 27.2333L19.689 31.3551C20.0035 31.5969 20.4609 31.5128 20.6681 31.1798L24.2343 25.4563C24.5345 24.9761 24.1128 24.3697 23.5447 24.4714Z" fill="#2F2F2F"/>
</g>
<defs>
<clipPath id="clip0_4_76712">
<rect width="107.2" height="32" fill="white"/>
</clipPath>
</defs>
</svg>
