<svg width="134" height="40" viewBox="0 0 134 40" fill="none" xmlns="http://www.w3.org/2000/svg">
<g clip-path="url(#clip0_70_22)">
<path d="M42.0716 -0.00439453H36.0862C35.5726 -0.00439453 35.1616 0.403053 35.1616 0.902506V6.26505C35.1616 6.76888 35.577 7.17195 36.0862 7.17195H42.0716C42.5852 7.17195 42.9962 6.7645 42.9962 6.26505V0.906887C42.9962 0.403053 42.5808 -0.00439453 42.0716 -0.00439453Z" fill="#F6B83F"/>
<path d="M42.9962 10.2519H35.1572V35.8861H42.9962V10.2519Z" fill="white"/>
<path d="M66.978 9.53339C63.6325 9.53339 61.0373 10.5761 59.1881 12.6615V-0.00439453H51.3491V35.8861H59.1881V33.4764C61.0329 35.5619 63.6325 36.6046 66.978 36.6046C70.4262 36.6046 73.3743 35.3078 75.813 32.7097C78.2518 30.0767 79.4712 26.8653 79.4712 23.0712C79.4712 19.2771 78.2518 16.0832 75.813 13.4852C73.3743 10.8477 70.4262 9.53339 66.978 9.53339ZM69.8545 27.632C68.7066 28.7579 67.2237 29.3231 65.4102 29.3231C63.5967 29.3231 62.1004 28.7579 60.9167 27.632C59.7688 26.506 59.1926 24.9814 59.1926 23.0668C59.1926 21.1522 59.7688 19.632 60.9167 18.5016C62.1004 17.3757 63.6012 16.8105 65.4102 16.8105C67.2192 16.8105 68.7021 17.3757 69.8545 18.5016C71.0382 19.6276 71.6322 21.1522 71.6322 23.0668C71.6322 24.9814 71.0382 26.506 69.8545 27.632Z" fill="white"/>
<path d="M99.2317 9.53339C95.1536 9.53339 91.7902 10.8302 89.1415 13.4282C86.5285 15.9912 85.2197 19.207 85.2197 23.0668C85.2197 26.9616 86.5285 30.1949 89.1415 32.7579C91.7545 35.3209 95.1893 36.6046 99.4371 36.6046C102.434 36.6046 105.012 35.9036 107.173 34.5016C109.335 33.0997 110.832 31.0668 111.667 28.3987L104.033 28.4512C103.649 29.0339 103.042 29.5115 102.202 29.8883C101.367 30.23 100.478 30.4009 99.5354 30.4009C96.3283 30.4009 94.2915 28.9814 93.4205 26.1467H112.082C112.292 25.1917 112.395 24.1621 112.395 23.0712C112.395 19.1763 111.14 15.943 108.63 13.38C106.168 10.8171 103.033 9.53339 99.2317 9.53339ZM93.3803 20.3023C94.2513 17.6692 96.1854 16.3549 99.1825 16.3549C102.041 16.3549 103.85 17.6692 104.618 20.3023H93.3803Z" fill="white"/>
<path d="M129.663 10.9179C128.443 11.7021 127.626 12.8324 127.206 14.3001V10.2519H119.367V35.8861H127.206V23.7853C127.206 21.6648 127.885 20.1796 129.243 19.3253C130.601 18.471 132.187 18.1818 134 18.4535V9.73932C132.329 9.73932 130.882 10.1336 129.663 10.9179Z" fill="white"/>
<path d="M29.431 30.5893L27.5416 30.9266C26.8314 29.4063 25.737 27.4304 24.2094 25.3669C21.3508 21.5115 16.0354 17.8313 16.0354 17.8313V17.7437L29.1451 -0.00439453H19.6311L8.44656 15.5838V-0.00439453H0.0849609V35.8861H8.44656V19.2771L19.506 32.3636L18.233 32.5914C17.5228 32.7185 17.2995 33.6079 17.8712 34.0416L24.6114 39.1939C25.0045 39.4962 25.5762 39.391 25.8353 38.9748L30.293 31.8204C30.6682 31.2201 30.1412 30.4622 29.431 30.5893Z" fill="white"/>
</g>
<defs>
<clipPath id="clip0_70_22">
<rect width="134" height="40" fill="white"/>
</clipPath>
</defs>
</svg>
