<?xml version="1.0" encoding="UTF-8" standalone="no"?>
<svg
   xmlns:dc="http://purl.org/dc/elements/1.1/"
   xmlns:cc="http://creativecommons.org/ns#"
   xmlns:rdf="http://www.w3.org/1999/02/22-rdf-syntax-ns#"
   xmlns:svg="http://www.w3.org/2000/svg"
   xmlns="http://www.w3.org/2000/svg"
   viewBox="0 0 4000 2666.6667"
   height="2666.6667"
   width="4000"
   xml:space="preserve"
   id="svg2"
   version="1.1"><metadata
     id="metadata8"><rdf:RDF><cc:Work
         rdf:about=""><dc:format>image/svg+xml</dc:format><dc:type
           rdf:resource="http://purl.org/dc/dcmitype/StillImage" /></cc:Work></rdf:RDF></metadata><defs
     id="defs6" /><g
     transform="matrix(1.3333333,0,0,-1.3333333,0,2666.6667)"
     id="g10"><g
       transform="scale(0.1)"
       id="g12"><g
         transform="scale(1.84049)"
         id="g14"><path
           id="path16"
           style="fill:#ffffff;fill-opacity:1;fill-rule:nonzero;stroke:none"
           d="M 0,10866.7 V 0 H 16300 V 10866.7 H 0" /></g><g
         transform="scale(1.71107)"
         id="g18"><path
           id="path20"
           style="fill:#fcecdb;fill-opacity:1;fill-rule:nonzero;stroke:none"
           d="m 14338.1,1149.4 c 0,0 806.9,-73.99 1275.1,951.28 686.8,1503.85 -14.6,3460.7 -1682,3563.56 C 11526.5,5812.57 12930,9073.39 9135.41,8031.7 8068.41,7738.79 5747.68,9250.86 4381.53,6688.84 4149.23,6253.2 3454.8,6274.59 2529.6,5531.4 897.532,4220.35 1485.06,1135.49 2860.19,1121.46 4235.31,1107.5 14338.1,1149.4 14338.1,1149.4" /></g><g
         transform="scale(1.35393)"
         id="g22"><path
           id="path24"
           style="fill:#a8d29f;fill-opacity:1;fill-rule:nonzero;stroke:none"
           d="m 3918.46,1424.38 c 0,0 63.34,415.08 871.64,526.76 808.3,111.68 1559.88,1007 2892.89,877.08 1332.93,-129.99 2439.01,-945.4 3956.31,-695.53 1517.4,249.86 2467.4,-68.62 2807.8,-319.74 340.3,-251.2 1748.8,58.94 1852.9,-401.28 l -12381.54,12.71" /></g><g
         transform="scale(1.06133)"
         id="g26"><path
           id="path28"
           style="fill:#afcdfb;fill-opacity:1;fill-rule:nonzero;stroke:none"
           d="m 9237.42,14434.5 c 0,0 -1163.79,57 -546.42,-3490 0,0 415.34,-1203.95 -108.96,-1979.95 H 16300 V 14434.5 H 9237.42" /></g><g
         transform="scale(1.34501)"
         id="g30"><path
           id="path32"
           style="fill:#82b378;fill-opacity:1;fill-rule:nonzero;stroke:none"
           d="m 13797.6,9943.14 c 0,0 -306.1,577.66 152.5,797.66 0,0 323.3,108.2 552.1,42 0,0 -452.7,-477.2 -358.7,-556 94.1,-78.7 466.2,568.2 466.2,568.2 0,0 661.5,-82.9 847.3,-229.9 0,0 -655.4,-328.4 -544.9,-381.6 110.5,-53.2 808.3,256.9 808.3,256.9 0,0 579.6,-238.1 464.7,-598.5 -114.8,-360.36 -334.5,-344.2 -423.6,-313.91 -89.1,30.32 -517.3,444.48 -618.9,199.07 -29.7,-71.65 237.8,-388.81 460.3,-450.87 0,0 -530.2,-372.93 -782.2,-174.19 -251.8,198.74 -227.8,418.51 -385.7,538.48 -157.9,119.99 -308.2,153.59 -253.9,55.26 54.2,-98.35 354.7,-249.69 415.4,-450.37 60.6,-200.68 123.9,-341.08 -158.4,-231.4 -282.2,109.68 -708.9,430.25 -674.7,679.69 34.2,249.48 34.2,249.48 34.2,249.48" /></g><g
         transform="scale(1.31091)"
         id="g34"><path
           id="path36"
           style="fill:#82b378;fill-opacity:1;fill-rule:nonzero;stroke:none"
           d="m 16300,10156 c 0,0 -1664.7,442.5 -2143.5,45.7 0,0 -137.4,-227.16 -440,-394.04 l -63.5,-98.37 c 0,0 360,241.35 468.3,236.47 0,0 -29,631.64 2178.7,210.24" /></g><g
         transform="scale(1.12245)"
         id="g38"><path
           id="path40"
           style="fill:#599dad;fill-opacity:1;fill-rule:nonzero;stroke:none"
           d="m 16019.5,11454.4 c 0,0 -491,-216.7 -645.4,-766.3 l 74.8,-24 c 0,0 263.9,544.9 557.5,715.1 293.6,170.3 13.1,75.2 13.1,75.2" /></g><g
         transform="scale(1.24758)"
         id="g42"><path
           id="path44"
           style="fill:#a8d29f;fill-opacity:1;fill-rule:nonzero;stroke:none"
           d="m 12701.8,11842.9 c 0,0 -977.4,509.7 -550.5,1253.8 0,0 345.6,459.3 726.7,586.1 0,0 -172.6,-1095.7 33.2,-1115.2 205.8,-19.5 104.4,1234.8 104.4,1234.8 0,0 998.1,517.3 1396.7,490.6 0,0 -596.5,-1082.6 -392.1,-1050.9 204.3,31.8 877.2,1129.5 877.2,1129.5 0,0 1032.7,223.3 1217.7,-387.1 184.9,-610.3 -75.1,-926 -227.8,-969 -152.6,-43.1 -1140.1,-59.6 -1110.6,-187.1 29.4,-127.4 702.1,-312.6 1070.4,-186.2 0,0 -380,-1024.9 -919.9,-989.7 -539.9,35.3 -716.5,363.6 -1050.6,379.3 -334.1,15.7 -575,-81.3 -405.6,-166 169.3,-84.8 731.5,-7.7 1007.6,-228.5 275.9,-220.8 498,-355.4 1.2,-472.8 -496.8,-117.5 -1396.1,-80.1 -1587,299.1 -191,379.3 -191,379.3 -191,379.3" /></g><g
         transform="scale(1.19756)"
         id="g46"><path
           id="path48"
           style="fill:#82b378;fill-opacity:1;fill-rule:nonzero;stroke:none"
           d="m 16300,14353.6 c 0,0 -2777.4,-991.6 -3067.6,-2016.1 0,0 26.8,-453.6 -238.1,-982.8 l 6,-200.3 c 0,0 273.5,689.8 431,788 0,0 -654,862.7 2868.7,2411.2" /></g><path
         id="path50"
         style="fill:#6bb7bf;fill-opacity:1;fill-rule:nonzero;stroke:none"
         d="m 15561.5,13598 c 0,0 -494.5,-801.9 -170.7,-1750.5 l 132.2,39.7 c 0,0 -160.8,1050.7 94.4,1589.1 255.2,538.4 -55.9,121.7 -55.9,121.7" /><g
         transform="scale(1.15799)"
         id="g52"><path
           id="path54"
           style="fill:#9abcef;fill-opacity:1;fill-rule:nonzero;stroke:none"
           d="M 8914.81,11305.4 V 1674.1 H 16300 v 9631.3 H 8914.81" /></g><g
         transform="scale(1.16633)"
         id="g56"><path
           id="path58"
           style="fill:#e9f3fe;fill-opacity:1;fill-rule:nonzero;stroke:none"
           d="M 9090.86,11224.6 V 1662.14 H 16300 V 11224.6 H 9090.86" /></g><g
         transform="scale(1.18431)"
         id="g60"><path
           id="path62"
           style="fill:#e9f3fe;fill-opacity:1;fill-rule:nonzero;stroke:none"
           d="m 16052.6,11054.3 c -0.1,-0.1 -0.1,-0.1 -0.1,-0.1 H 8952.83 c 39.26,536.9 -19.93,926.8 -114.75,1207.1 -182.05,539.1 -495.86,674.4 -495.86,674.4 h 6695.68 c 571.5,0 1014.6,-344.3 1135.3,-801.3 4.4,-17.2 8.6,-34.3 12.3,-51.4 114.5,-522.9 -128.2,-1019.1 -132.9,-1028.7" /></g><g
         transform="scale(1.18431)"
         id="g64"><path
           id="path66"
           style="fill:#d8e8fd;fill-opacity:1;fill-rule:nonzero;stroke:none"
           d="m 16052.6,11054.3 c -0.1,-0.1 -0.1,-0.1 -0.1,-0.1 H 8952.83 c 39.26,536.9 -19.93,926.8 -114.75,1207.1 725.57,-132.8 2522.62,-415.9 4446.02,-368.3 1244.4,30.9 2227.8,114.2 2901.4,190 114.5,-522.9 -128.2,-1019.1 -132.9,-1028.7" /></g><g
         transform="scale(1.2271)"
         id="g68"><path
           id="path70"
           style="fill:#a8d29f;fill-opacity:1;fill-rule:nonzero;stroke:none"
           d="m 15592,1941 c 0,0 211.5,735.72 459.8,648.93 C 16300,2503.06 15592,1941 15592,1941" /></g><g
         transform="scale(1.24687)"
         id="g72"><path
           id="path74"
           style="fill:#a8d29f;fill-opacity:1;fill-rule:nonzero;stroke:none"
           d="m 15534.7,1949.68 c 0,0 531.7,348.95 648.4,241.08 116.9,-107.87 -648.4,-241.08 -648.4,-241.08" /></g><g
         transform="scale(1.13751)"
         id="g76"><path
           id="path78"
           style="fill:#a8c3f7;fill-opacity:1;fill-rule:nonzero;stroke:none"
           d="M 16300,10207 H 9784.97 v 372.6 H 16300 V 10207" /></g><g
         transform="scale(1.13751)"
         id="g80"><path
           id="path82"
           style="fill:#a8c3f7;fill-opacity:1;fill-rule:nonzero;stroke:none"
           d="M 16300,8134.53 H 9784.97 v 170.9 H 16300 v -170.9" /></g><g
         transform="scale(1.13751)"
         id="g84"><path
           id="path86"
           style="fill:#a8c3f7;fill-opacity:1;fill-rule:nonzero;stroke:none"
           d="M 16300,7732.33 H 9784.97 v 170.99 H 16300 v -170.99" /></g><g
         transform="scale(1.13751)"
         id="g88"><path
           id="path90"
           style="fill:#a8c3f7;fill-opacity:1;fill-rule:nonzero;stroke:none"
           d="M 16300,7330.22 H 9784.97 v 170.91 H 16300 v -170.91" /></g><g
         transform="scale(1.13751)"
         id="g92"><path
           id="path94"
           style="fill:#a8c3f7;fill-opacity:1;fill-rule:nonzero;stroke:none"
           d="M 16300,6928.03 H 9784.97 v 170.9 H 16300 v -170.9" /></g><g
         transform="scale(1.13751)"
         id="g96"><path
           id="path98"
           style="fill:#a8c3f7;fill-opacity:1;fill-rule:nonzero;stroke:none"
           d="M 16300,6525.84 H 9784.97 v 170.98 H 16300 v -170.98" /></g><g
         transform="scale(1.13751)"
         id="g100"><path
           id="path102"
           style="fill:#a8c3f7;fill-opacity:1;fill-rule:nonzero;stroke:none"
           d="M 16300,6123.73 H 9784.97 v 170.9 H 16300 v -170.9" /></g><path
         id="path104"
         style="fill:#a8c3f7;fill-opacity:1;fill-rule:nonzero;stroke:none"
         d="m 13300.6,4503.4 c 0,-315.8 -256,-571.9 -571.8,-571.9 -315.9,0 -571.9,256.1 -571.9,571.9 0,315.8 256,571.8 571.9,571.8 315.8,0 571.8,-256 571.8,-571.8" /><g
         transform="scale(1.07477)"
         id="g106"><path
           id="path108"
           style="fill:#a8c3f7;fill-opacity:1;fill-rule:nonzero;stroke:none"
           d="m 15191.9,4102.73 v 0 z m -589.1,-424.09 c -1.5,0 -3,0.09 -4.6,0.37 -14.4,2.42 -24.1,16.19 -21.6,30.7 4.9,29.12 125.9,717.46 507.7,951.74 27.2,16.66 44.3,8 52,1.39 33.6,-28.74 8,-101.78 -106.9,-377.38 -45.8,-109.88 -100.1,-240.14 -122.4,-319.32 40.6,53.31 101.5,144.59 149.8,217.16 151,226.75 180.4,263.69 209.9,263.69 10.9,0 20.6,-5.12 26.9,-13.96 16,-22.98 3.9,-61.5 -37.9,-174.46 -15.9,-43.26 -40.5,-109.6 -47.6,-145.24 21.7,19.54 53.6,61.04 72.8,85.98 52.2,68.1 78.8,100.67 110.1,95.74 6.5,-1.03 22.4,-5.68 30,-26.8 3.2,-8.65 4.7,-18.61 6.3,-29.12 4,-27.26 8.7,-58.15 41.5,-76.58 66.3,-37.4 257.3,-35.26 790.8,187.21 13.5,5.58 29.1,-0.75 34.8,-14.33 5.6,-13.59 -0.8,-29.12 -14.3,-34.8 -450.5,-187.76 -724.4,-248.15 -837.4,-184.5 -55,30.98 -63.3,82.9 -67.9,114.35 -15.2,-16.01 -36.3,-43.46 -51.8,-63.55 -57.6,-75.18 -95.6,-120.4 -134.3,-117.24 -11.9,1.03 -21.9,7.07 -28.2,17.12 -18.5,29.12 -0.4,86.44 45.3,210.19 7.3,19.82 15.7,42.52 23,63.64 -36.9,-50.43 -87.1,-125.8 -127.8,-186.83 -169.1,-253.82 -199.7,-290.67 -233.8,-281.36 -5.2,1.39 -22.3,7.9 -23.8,32.56 -3.3,59.45 52,197.35 136.9,400.92 43.2,103.47 99.6,238.94 113.6,298.48 -347.3,-233.25 -463.7,-896.84 -465,-903.63 -2.2,-13.02 -13.4,-22.14 -26.1,-22.14" /></g><path
         id="path110"
         style="fill:#ffb27d;fill-opacity:1;fill-rule:nonzero;stroke:none"
         d="m 9320.73,13172.8 -0.48,-85.5 c 0,0 23.29,-267.3 -305.88,-306.3 -329.15,-39.2 -599.08,-34 -590.17,172.2 29.66,159.7 82.77,407.7 84.97,539.8 0.82,49.1 -2.55,101.2 -11.7,160.1 l 637.83,12.7 187.85,-30.7 -2.42,-462.3" /><path
         id="path112"
         style="fill:#e2915a;fill-opacity:1;fill-rule:nonzero;stroke:none"
         d="m 9323.15,13635.1 -2.42,-462.3 c -67.76,-31.5 -144.21,-50.8 -229.92,-50.8 -293.13,0 -482.6,215 -581.64,371 0.82,49.1 -2.55,101.2 -11.7,160.1 l 637.83,12.7 187.85,-30.7" /><path
         id="path114"
         style="fill:#ffb27d;fill-opacity:1;fill-rule:nonzero;stroke:none"
         d="m 8448.61,13755.7 c 73.99,-398.3 587.9,-385.2 809.98,-360.1 62.5,6.9 101.83,14.9 101.83,14.9 70.47,18.8 109.79,129.8 128.06,275.2 36.25,287.7 -9.55,710.1 -58.16,818.2 -73.15,162.5 -210.94,338.3 -728.47,211.5 -517.61,-127 -348.2,-449.4 -253.24,-959.7" /><path
         id="path116"
         style="fill:#233862;fill-opacity:1;fill-rule:nonzero;stroke:none"
         d="m 8028.1,1964 h 728.21 c -5.43,38.2 -24,154.4 -58.08,261.4 -11.8,37.2 -25.59,73.5 -41.24,104.9 -70.82,141.4 -520.67,51.4 -520.67,51.4 0,0 -41.78,-35.8 -74.41,-172.5 C 8047.46,2149 8034.73,2069 8028.1,1964" /><path
         id="path118"
         style="fill:#233862;fill-opacity:1;fill-rule:nonzero;stroke:none"
         d="m 10228.7,2193.8 c 2,-99.1 14.4,-192.8 50.4,-229.8 h 1440.4 c -18.3,52.1 -70.2,130.5 -218.1,154.5 -168,27.2 -429.9,108.1 -582.8,269.8 -54.5,57.4 -95.1,125.1 -112.9,204.3 -67.8,301.7 -560.3,-92.4 -560.3,-92.4 0,0 -19.9,-158.9 -16.7,-306.4" /><path
         id="path120"
         style="fill:#2b478b;fill-opacity:1;fill-rule:nonzero;stroke:none"
         d="m 9270.63,5455.3 c 20.04,-110.5 32.78,-201.1 36.15,-266.1 45.8,-893.2 751.82,-2935.4 878.12,-2983 195.4,-73.8 503.1,83 664.1,134.3 66.7,21.3 111.8,88.6 96.9,156.8 -349.6,1607.4 -478.1,3922.1 -524.9,5292.5 -23.6,690.2 -142.1,1167 -142.1,1167 0,0 -1722.04,459.5 -1732.26,-121.7 -9.07,-514.4 570.42,-2531.4 723.99,-3379.8" /><path
         id="path122"
         style="fill:#233862;fill-opacity:1;fill-rule:nonzero;stroke:none"
         d="M 9270.63,5455.3 10421,7789.8 c -23.6,690.2 -142.1,1167 -142.1,1167 0,0 -1722.04,459.5 -1732.26,-121.7 -9.07,-514.4 570.42,-2531.4 723.99,-3379.8" /><path
         id="path124"
         style="fill:#2b478b;fill-opacity:1;fill-rule:nonzero;stroke:none"
         d="M 9653.77,8833 8743.43,2235.1 c 0,0 -399.78,-96.4 -710.72,-19.3 0,0 -266.51,3509.1 -244.3,4357.4 22.2,848.4 -191.28,2270.1 48.72,2426.9 240,156.8 1816.64,-167.1 1816.64,-167.1" /><path
         id="path126"
         style="fill:#233862;fill-opacity:1;fill-rule:nonzero;stroke:none"
         d="m 9589.15,14882.9 c 0,0 -227.8,17.6 -496.47,134.4 -218.09,94.8 -493.21,-9.6 -582.51,-56.7 2.39,14.4 8.14,34.1 21.77,53.8 0,0 -40.1,-28.5 -46,-68.2 -4.14,-3 -5.98,-5.1 -4.91,-5.8 0,0 -45.46,8.3 -74.67,-4.9 0,0 20.44,2.9 27.74,-10.2 0.78,-1.4 1.93,-2.6 3.28,-3.6 -340.18,-164.4 -371.58,-702 -262.13,-826.4 131.71,-149.7 289.64,-486.7 289.64,-486.7 0,0 57.58,79.6 33.63,211.3 -23.94,131.7 89.81,131.7 233.49,191.6 143.67,59.9 23.94,227.5 149.66,329.3 125.72,101.7 586.68,41.9 580.69,119.7 171.11,62.3 126.79,404.9 126.79,422.4" /><path
         id="path128"
         style="fill:#e9f3fe;fill-opacity:1;fill-rule:nonzero;stroke:none"
         d="m 8346.57,12838.6 209.6,-4497.1 c 0,0 1749.33,-28.6 1699.33,367.3 -49.9,395.8 -630.5,3992.1 -630.5,3992.1 l -1278.43,137.7 v 0" /><path
         id="path130"
         style="fill:#22407a;fill-opacity:1;fill-rule:nonzero;stroke:none"
         d="m 7722.02,10289.5 c 104.08,-312.2 -92.14,-1359.8 -162.08,-1714.7 -15.36,-75.1 -25.6,-119.5 -25.6,-119.5 242.28,-394.1 1129.52,-389 1129.52,-389 170.61,754.2 259.34,1955.3 259.34,1955.3 l -680.78,2984.3 -856.53,-791.7 c 0,0 64.84,-482.9 145.04,-974.3 63.13,-389 134.79,-784.9 191.09,-950.4" /><path
         id="path132"
         style="fill:#ffffff;fill-opacity:1;fill-rule:nonzero;stroke:none"
         d="m 9177.84,13690.2 c 0,0 16.61,-51.4 146.28,-32.6 0,0 108.85,15.7 100.78,73 0,0 -109.44,32.3 -247.06,-40.4" /><path
         id="path134"
         style="fill:#22407a;fill-opacity:1;fill-rule:nonzero;stroke:none"
         d="m 10856.4,10960.1 c 1.7,1.7 1.7,5.1 1.7,6.8 0,64.9 -247.5,208.2 -515.3,377.1 -3.4,3.4 -5.2,5.1 -5.2,5.1 -0.1,0.1 -0.3,0.3 -0.5,0.4 4.8,-138 4.3,-273.4 -3.9,-399.5 -15.2,-233.7 1.8,-513.1 30,-797.6 127.6,199.1 468.2,734.3 493.2,807.7 z m -695.3,1814.4 c 0,0 0.1,-0.8 0.3,-1.9 41.4,-40.1 1209.2,-1173.9 1435.4,-1618 230.4,-450.5 -1052.7,-1347.9 -1052.7,-1347.9 0,0 -82.6,-32.6 -139.9,-19.9 60.5,-498.1 128.5,-957.6 88.2,-1153.8 -72.7,-354.6 -400.7,-473.6 -400.7,-446.4 0,8.7 -84.5,1292.9 -185.06,1956.2 -223.26,1472.3 -489.53,2854 -489.53,2854 381.85,-39.7 743.99,-222.3 743.99,-222.3" /><path
         id="path136"
         style="fill:#d9e9f9;fill-opacity:1;fill-rule:nonzero;stroke:none"
         d="m 8297,13011.2 c -2.13,42.9 201.15,102.2 201.15,102.2 0,0 232.67,-322.6 616.02,-328.1 0,0 -109.24,-212.6 -237.99,-267.7 0,0 -566.53,238.8 -579.18,493.6" /><path
         id="path138"
         style="fill:#c65447;fill-opacity:1;fill-rule:nonzero;stroke:none"
         d="m 9652.53,9745.8 c -9.4,-105 -57.57,-202.9 -135.18,-274.4 l -121.98,-112.3 c -30.61,-28.3 -78.78,-24.4 -104.53,8.3 l -151.1,191.9 c -40.53,51.5 -59.57,116.6 -53.37,181.8 14.14,145.2 40.47,424.9 61.54,695 17.15,218.7 30.91,431.3 31.94,560.6 3.32,412.8 -78.58,1729.2 -78.58,1729.2 l 98.98,-5.1 c 0,0 245.8,-511 374.5,-1206.3 31.76,-171.2 56.25,-353.4 68.41,-542 0,0 51.59,-751.9 9.37,-1226.7" /><path
         id="path140"
         style="fill:#ba4c43;fill-opacity:1;fill-rule:nonzero;stroke:none"
         d="m 9652.53,9745.8 c -9.4,-105 -57.57,-202.9 -135.18,-274.4 l -121.98,-112.3 c -30.61,-28.3 -78.78,-24.4 -104.53,8.3 l -151.1,191.9 c -40.53,51.5 -59.57,116.6 -53.37,181.8 14.14,145.2 40.47,424.9 61.54,695 273.5,307.2 384.33,731.9 426.84,1078.4 31.76,-171.2 56.25,-353.4 68.41,-542 0,0 51.59,-751.9 9.37,-1226.7" /><path
         id="path142"
         style="fill:#d9e9f9;fill-opacity:1;fill-rule:nonzero;stroke:none"
         d="m 9114.17,12792.8 c 0,0 203.08,120.4 203.77,250.9 0,0 131.16,16.4 188.45,-47.2 0,0 48.15,-223.6 -15.72,-353.6 0,0 -292.44,44.6 -376.5,149.9" /><path
         id="path144"
         style="fill:#ba4c43;fill-opacity:1;fill-rule:nonzero;stroke:none"
         d="m 8976.31,12812.2 275.37,66 c 0,0 35.98,-3.2 34.98,-48 -0.99,-44.9 -77.55,-175.9 -111.46,-186.4 -33.92,-10.5 -264.02,77.6 -198.89,168.4" /><path
         id="path146"
         style="fill:#e9f3fe;fill-opacity:1;fill-rule:nonzero;stroke:none"
         d="m 8329.07,13033.4 c -2.13,42.9 135.46,131.3 135.46,131.3 0,0 266.29,-311.2 649.64,-316.8 0,0 -109.24,-212.6 -237.99,-267.7 0,0 -534.46,198.3 -547.11,453.2" /><path
         id="path148"
         style="fill:#e9f3fe;fill-opacity:1;fill-rule:nonzero;stroke:none"
         d="m 9114.17,12847.9 c 0,0 205.4,108.9 206.08,239.4 0,0 123.97,-54.6 181.27,-118.1 0,0 53.02,-141.3 -10.85,-271.2 0,0 -292.44,44.6 -376.5,149.9" /><path
         id="path150"
         style="fill:#ffb27d;fill-opacity:1;fill-rule:nonzero;stroke:none"
         d="m 10625.9,9733.7 c 0,114.6 -100.8,206.6 -214.1,189.4 -31.5,-4.8 -59.9,-17.8 -79.5,-43.9 -78,-103.8 -152.2,-405.9 -14,-420 56.2,-5.8 128.5,33.7 184.1,76 56.6,43 123.5,110.2 123.5,181.2 v 17.3" /><path
         id="path152"
         style="fill:#233862;fill-opacity:1;fill-rule:nonzero;stroke:none"
         d="m 7559.94,8574.8 c 250.81,261 684.2,774.6 668.83,1196.1 -20.47,590.3 -697.84,1469 -697.84,1469 63.13,-389 134.79,-784.9 191.09,-950.4 104.08,-312.2 -92.14,-1359.8 -162.08,-1714.7" /><path
         id="path154"
         style="fill:#ffb27d;fill-opacity:1;fill-rule:nonzero;stroke:none"
         d="m 7567.8,9601.6 c 0,0 180.32,-90.1 289.78,-45 109.47,45 238.26,78.9 360.6,-60.4 122.36,-139.3 148.11,-235.9 122.36,-287.4 -25.76,-51.5 -311.01,-32.2 -358.35,0 -47.34,32.2 -122.19,111.5 -169.68,97.7 -131.02,-38.1 -241.37,61.8 -303.14,141.4 -37.27,48.1 63.29,71.3 58.43,153.7" /><path
         id="path156"
         style="fill:#22407a;fill-opacity:1;fill-rule:nonzero;stroke:none"
         d="m 8242.42,13005.9 c 0,0 -718.15,-79.5 -887.53,-392.3 -169.36,-312.7 -1050.04,-1580.2 -1021.2,-2106.9 28.83,-526.7 1201.35,-1117.4 1201.35,-1117.4 0,0 259.69,109.8 263.58,227.8 3.89,118.1 -810.6,823.7 -761.23,955.4 49.38,131.7 946.25,1173.2 1032.78,1516.7 86.52,343.4 172.25,916.7 172.25,916.7" /><path
         id="path158"
         style="fill:#233862;fill-opacity:1;fill-rule:nonzero;stroke:none"
         d="m 10337.6,11349.1 c 0,0 1.8,-1.7 5.2,-5.1 267.8,-168.9 515.3,-312.2 515.3,-377.1 35.8,114.3 -312.3,592.1 -424.9,689.3 -114.3,99 -95.6,-307.1 -95.6,-307.1" /><path
         id="path160"
         style="fill:#233862;fill-opacity:1;fill-rule:nonzero;stroke:none"
         d="m 8464.53,13164.7 c 0,0 545.2,-2283.5 458.43,-3143.7 0,0 -200.47,919.2 -682.84,1672.2 0,0 176.04,154.8 166.47,211.9 0,0 -130.66,38.7 -257.45,12.6 0,0 14.01,984.4 93.07,1088.3 79.05,104 222.32,158.7 222.32,158.7" /><path
         id="path162"
         style="fill:#233862;fill-opacity:1;fill-rule:nonzero;stroke:none"
         d="m 9320.25,13087.3 c -7.38,-3.5 540.31,-2231.4 586.39,-2944.5 0,0 -54.64,1272.6 -49.27,1639.3 0,0 -226.43,119.9 -226.43,162 0,42 241.56,155.7 241.56,155.7 0,0 -152.96,783.7 -236.45,870.1 -83.47,86.3 -315.8,117.4 -315.8,117.4" /><path
         id="path164"
         style="fill:#233862;fill-opacity:1;fill-rule:nonzero;stroke:none"
         d="m 4535.22,1955.1 1580.33,1.8 c 205.67,0.2 373.74,168.7 373.51,374.4 l -0.8,684.8 c -0.24,205.7 -168.71,373.8 -374.38,373.6 l -1580.33,-1.9 c -205.65,-0.2 -373.74,-168.7 -373.51,-374.4 l 0.8,-684.8 c 0.24,-205.7 168.72,-373.8 374.38,-373.5" /><path
         id="path166"
         style="fill:#2b478b;fill-opacity:1;fill-rule:nonzero;stroke:none"
         d="m 4947.22,3547 c 0.01,20.7 13.67,38.3 32.48,44.1 4.36,1.4 8.91,2.1 13.74,2.2 l 70.17,0.1 260.05,0.2 141.75,0.2 c 25.51,0 46.26,-20.7 46.28,-46.1 l 0.2,-147.8 -564.48,-0.6 z m 1282.86,-335.8 -0.02,0.1 c -59.15,102.7 -165.45,175.2 -288.75,187.3 l -0.1,-0.1 c -0.09,0 -0.17,0 -0.28,0.1 -12.08,1.1 -24.28,1.8 -36.75,1.8 l -314.66,-0.5 -0.2,147.8 c 0.01,33 -12.93,64.1 -36.4,87.5 -23.46,23.4 -54.65,36.3 -87.58,36.2 h -82.09 l -330.4,-0.4 -59.58,-0.1 c -68.22,-0.1 -123.81,-55.7 -123.67,-124 l 0.19,-147.8 -543.17,-0.6 c -206.42,-0.2 -375.11,-169.3 -374.95,-375.8 l 0.88,-692.8 c 0.25,-206.4 169.32,-375.1 375.76,-374.8 l 1577.48,1.7 c 27.83,0 54.93,3.2 80.99,9.1 h 0.1 c 0.08,0 0.08,0 0.17,0 41.86,9.3 81.02,25.7 116.29,47.8 106.44,66.5 177.48,184.9 177.39,319 l -0.78,692.7 c -0.12,67.6 -18.26,131 -49.87,185.8" /><g
         transform="scale(1.7213)"
         id="g168"><path
           id="path170"
           style="fill:#1c468a;fill-opacity:1;fill-rule:nonzero;stroke:none"
           d="M 16285.5,1110.38 H 1389.83 c -7.99,0 -14.53,6.51 -14.53,14.53 v 2.67 c 0,8.01 6.54,14.52 14.53,14.52 H 16285.5 c 8,0 14.5,-6.51 14.5,-14.52 v -2.67 c 0,-8.02 -6.5,-14.53 -14.5,-14.53" /></g><g
         transform="scale(1.20098)"
         id="g172"><path
           id="path174"
           style="fill:#ffb27d;fill-opacity:1;fill-rule:nonzero;stroke:none"
           d="m 15758.4,10169.5 c 58.7,-118.5 153,-253.22 240.1,-280.06 98.7,-30.45 144.2,-83.31 144.2,-83.31 l 71.7,52.3 85.6,62.51 c 0,0 -3.2,9.9 -9.4,25.92 -6.1,15.96 -15.3,38.12 -27.2,62.44 0,0 -31.8,33.1 -19.4,80.1 12.5,46.8 1.8,116.2 -31.9,155.7 -33.8,39.4 -72.9,141.2 -90.1,136.2 -41.9,-11.7 36.7,-149 21.2,-177.6 -13.9,-25.9 -35.5,-19.8 -39.5,-18.3 -0.2,0.1 -0.5,0.2 -0.7,0.3 -125.2,40.1 -299.8,308.4 -360.1,263.5 -22.4,-16.9 -9.6,-229.3 15.5,-279.7" /></g><g
         transform="scale(1.38233)"
         id="g176"><path
           id="path178"
           style="fill:#ed7d2b;fill-opacity:1;fill-rule:nonzero;stroke:none"
           d="m 15807.9,9092 c 0,0 -506.9,-776.6 -735,-1004.74 l -924.7,605 c 0,0 -126,-47.23 -174.2,-179.49 0,0 604.1,-1061.08 1135.7,-1075 531.6,-13.94 1190.3,1389.31 1190.3,1389.31 L 15807.9,9092" /></g><g
         transform="scale(1.55438)"
         id="g180"><path
           id="path182"
           style="fill:#233862;fill-opacity:1;fill-rule:nonzero;stroke:none"
           d="m 15670.5,1240.88 h 342.2 c 43.1,23.42 81.4,77.01 93.6,156.85 16.7,110.27 140.3,170.36 167,260.55 26.7,90.13 -110.2,217.07 -110.2,217.07 l -22.9,29.53 -23.9,30.62 -227.1,-53.46 c 0,0 -5.6,-54.11 -9,-123.01 -2.5,-49.73 -3.8,-107.18 -1,-157.56 6.7,-120.24 -33.7,-249.74 -140.5,-273.16 -79,-17.24 -75.5,-64.14 -68.2,-87.43" /></g><g
         transform="scale(1.38317)"
         id="g184"><path
           id="path186"
           style="fill:#233862;fill-opacity:1;fill-rule:nonzero;stroke:none"
           d="m 15378.2,1394.48 h 879.5 c 42.3,51.62 26.8,242.12 20.3,304.3 -1.3,12.58 -2.2,19.88 -2.2,19.88 0,0 -300.3,240.17 -341.6,56.25 -1.3,-5.79 -2.8,-11.42 -4.4,-16.99 -52,-172 -285.1,-250.22 -419.7,-271.99 -87.6,-14.17 -119.9,-59.72 -131.9,-91.45" /></g><g
         transform="scale(1.4273)"
         id="g188"><path
           id="path190"
           style="fill:#22407a;fill-opacity:1;fill-rule:nonzero;stroke:none"
           d="m 15065.2,6108.87 c 0,0 44.2,-551.39 96.1,-1214.18 70.6,-900.37 155.5,-2006.3 163.9,-2215.79 14.5,-363.83 72.7,-945.77 72.7,-945.77 0,0 138.2,-138.23 414.7,-79.94 0,0 246.5,830.73 316.8,1709.66 1.1,14.44 2.2,28.94 3.3,43.44 65.4,894.77 167.3,2778.95 167.3,2778.95 l -1234.8,-76.37" /></g><g
         transform="scale(1.4273)"
         id="g192"><path
           id="path194"
           style="fill:#233862;fill-opacity:1;fill-rule:nonzero;stroke:none"
           d="m 15065.2,6108.87 c 0,0 44.2,-551.39 96.1,-1214.18 l 968.1,-1531.84 c 1.1,14.44 2.2,28.94 3.3,43.44 65.4,894.77 167.3,2778.95 167.3,2778.95 l -1234.8,-76.37" /></g><g
         transform="scale(1.54133)"
         id="g196"><path
           id="path198"
           style="fill:#22407a;fill-opacity:1;fill-rule:nonzero;stroke:none"
           d="m 14137.6,5596.35 c 0,0 737.6,-1849.18 1222.6,-2718.18 485.1,-869.05 636.6,-1111.57 636.6,-1111.57 0,0 277.9,111.2 303.2,186.98 0,0 -185.5,1677.64 -510.3,2086.58 -183.5,231.1 -399.1,924.59 -409.2,1167.11 -10.2,242.52 -65.8,722.5 -65.8,722.5 l -1177.1,-333.42" /></g><g
         transform="scale(1.42863)"
         id="g200"><path
           id="path202"
           style="fill:#ffb27d;fill-opacity:1;fill-rule:nonzero;stroke:none"
           d="m 15450.9,8946.13 c 311,-98.13 849.1,166.72 849.1,166.72 0,0 -286.8,215.19 -271.7,662.64 l -240.5,-193.78 -163.3,-131.63 c 0,0 0.6,-77.58 18.5,-213.57 4.7,-35.77 10.6,-75.65 18,-119.23 -133.6,-73.28 -210.1,-171.15 -210.1,-171.15" /></g><g
         transform="scale(1.4049)"
         id="g204"><path
           id="path206"
           style="fill:#ed975d;fill-opacity:1;fill-rule:nonzero;stroke:none"
           d="m 15888.4,9609.7 c 0,0 0.6,-78.89 18.8,-217.18 184,31.58 392.8,329.04 392.8,329.04 -93.7,27.06 -175.7,31.92 -245.6,21.99 l -166,-133.85" /></g><g
         transform="scale(1.42322)"
         id="g208"><path
           id="path210"
           style="fill:#ffb27d;fill-opacity:1;fill-rule:nonzero;stroke:none"
           d="m 15588.4,9493.41 c 0,0 515.6,-85.66 564,236.28 48.5,321.91 147.6,527.71 -179.6,596.01 -327.2,68.3 -409.7,-44.9 -452,-148.4 -42.3,-103.6 -65.3,-653.3 67.6,-683.89" /></g><g
         transform="scale(1.45361)"
         id="g212"><path
           id="path214"
           style="fill:#f99746;fill-opacity:1;fill-rule:nonzero;stroke:none"
           d="m 14758.7,5953.23 c 9.3,-7.7 19.9,-12.24 32.2,-12.24 114.7,1.51 449.5,-62.19 732.6,-33.16 238.8,22.98 450.1,93.7 677,195.37 30.2,13.56 99.5,50.57 98,84.28 -1,36.87 -4.7,90.32 -9.3,157.67 -16,234.25 -44,637.15 -16.8,1101.95 5,86.55 7.5,172.4 7.9,256.92 2.3,629.95 -122.6,1184.02 -373.7,1371.55 -21.4,15.36 -153,-48.97 -274,-108.62 -111.7,-55.12 -223.4,-61.2 -329,-39.84 l -105.5,-93.34 c -128.6,-119.38 -269.4,-281.63 -330.7,-528.02 -52,-209.68 -82.6,-587.78 -99.4,-979.59 -7.7,-177.55 -13.9,-356.64 -15.5,-526.55 v -6.06 c -1.4,-16.85 -1.4,-35.29 -1.4,-52.07 -6.2,-436.23 0,-782.12 7.6,-788.25" /></g><g
         transform="scale(1.45265)"
         id="g216"><path
           id="path218"
           style="fill:#ed7d2b;fill-opacity:1;fill-rule:nonzero;stroke:none"
           d="m 16300,6349.36 c -16,234.4 -44.1,637.57 -16.8,1102.68 5,86.6 7.5,172.51 7.8,257.09 -104.6,253.81 -190.2,437.87 -190.2,437.87 h -263.7 c 0,0 -193.3,-1320.65 462.9,-1797.64" /></g><g
         transform="scale(1.42406)"
         id="g220"><path
           id="path222"
           style="fill:#233862;fill-opacity:1;fill-rule:nonzero;stroke:none"
           d="m 16143.3,9754.92 c 0,0 -52.8,8.83 -44.3,81.67 8.5,72.84 8.4,168.01 -50.8,150.3 -59.3,-17.73 -62.2,-65.15 -86.5,-37.47 -24.4,27.69 -24.8,144.38 -201,152.48 -176.3,8.1 -247.9,-53.2 -329.8,-17.2 -81.9,36 -86.3,160.1 -86.3,160.1 0,0 23.3,-44.3 58.5,-58.4 0,0 -136.7,187 21.6,315.2 158.3,128.2 319.7,44.3 411.3,38.7 201.8,-12.2 332.2,-24.3 398.1,-156.9 65.9,-132.6 38.7,-500.84 -90.8,-628.48" /></g><g
         transform="scale(1.01626)"
         id="g224"><path
           id="path226"
           style="fill:#233862;fill-opacity:1;fill-rule:nonzero;stroke:none"
           d="m 15545.5,14527.3 678.5,-419.4 76,122.9 -678.6,419.5 c -33.9,21 -78.5,10.5 -99.4,-23.5 v 0 c -21,-33.9 -10.5,-78.5 23.5,-99.5" /></g><g
         transform="scale(1.42222)"
         id="g228"><path
           id="path230"
           style="fill:#6bb7bf;fill-opacity:1;fill-rule:nonzero;stroke:none"
           d="m 16300,7636.71 -130.1,-313.54 2.6,-1.59 -6.2,-7.14 -3.6,-8.73 -2.6,1.59 -222.3,-256.5 c 0,0 -3331.5,2058.15 -4583,3114.7 -40.1,33.9 -49.2,92 -21.6,136.7 v 0 c 27.6,44.6 83.7,62.4 131.8,41.7 1504.6,-647.18 4835,-2707.19 4835,-2707.19" /></g><g
         transform="scale(1.41325)"
         id="g232"><path
           id="path234"
           style="fill:#599dad;fill-opacity:1;fill-rule:nonzero;stroke:none"
           d="m 11477.9,10416.6 c 5.8,-19.1 16.9,-36.8 33.1,-50.5 1259.5,-1063.29 4612.1,-3134.5 4612.1,-3134.5 l 176.9,204.11 -27.4,-66.04 2.6,-1.59 -6.2,-7.19 -3.7,-8.78 -2.5,1.59 -223.8,-258.12 c 0,0 -3352.6,2071.21 -4612.1,3134.52 -40.3,34.1 -49.5,92.6 -21.7,137.5 16.5,26.9 43.4,44 72.7,49" /></g><g
         transform="scale(1.71621)"
         id="g236"><path
           id="path238"
           style="fill:#233862;fill-opacity:1;fill-rule:nonzero;stroke:none"
           d="m 16087.8,4248.36 -477.8,295.42 133.8,216.52 477.9,-295.42 c 59.8,-36.94 78.3,-115.37 41.4,-175.15 v 0 c -37,-59.84 -115.5,-78.31 -175.3,-41.37" /></g><g
         transform="scale(1.67176)"
         id="g240"><path
           id="path242"
           style="fill:#6bb7bf;fill-opacity:1;fill-rule:nonzero;stroke:none"
           d="m 13480.1,5973.82 2227.8,-1377.17 c 166.9,-103.12 385.8,-51.5 489,115.39 v 0 c 103.1,166.89 51.5,385.76 -115.4,488.94 l -2227.8,1377.18 c -28.8,17.75 -66.4,8.87 -84.2,-19.86 l -309.3,-500.29 c -17.7,-28.72 -8.8,-66.4 19.9,-84.19" /></g><g
         transform="scale(1.66426)"
         id="g244"><path
           id="path246"
           style="fill:#599dad;fill-opacity:1;fill-rule:nonzero;stroke:none"
           d="m 16300,4794.45 c -7.9,-20.91 -17.9,-41.4 -30.1,-61.17 v 0 c -103.7,-167.64 -323.6,-219.5 -491.2,-115.91 l -2237.8,1383.38 c -28.9,17.87 -37.8,55.72 -20,84.58 l 39.1,63.25 2290.1,-1415.72 c 147.9,-91.39 336.4,-61.71 449.9,61.59" /></g><g
         transform="scale(1.69587)"
         id="g248"><path
           id="path250"
           style="fill:#2b478b;fill-opacity:1;fill-rule:nonzero;stroke:none"
           d="m 13962.8,6377.89 217.1,-138.05 c 21.7,-75.3 83,-154.16 172.5,-211.07 89.5,-56.91 186.9,-79.03 264.3,-66.77 l 1297,-824.92 c 180.9,-114.98 234.4,-355.68 119.4,-536.54 l -124.2,-195.18 c -19.7,-31.01 -10.5,-72.23 20.5,-91.99 31.1,-19.69 72.2,-10.55 92,20.47 l 124.1,195.18 c 154.5,242.88 82.6,566.08 -160.3,720.51 l -1950.8,1240.8 c -31.1,19.75 -72.3,10.59 -92,-20.46 -19.8,-31.05 -10.6,-72.23 20.4,-91.98" /></g><g
         transform="scale(1.41217)"
         id="g252"><path
           id="path254"
           style="fill:#599dad;fill-opacity:1;fill-rule:nonzero;stroke:none"
           d="m 15975.1,7132.48 5.5,113.71 319.4,516.62 -449.1,-503.54 124.2,-126.79" /></g><g
         transform="scale(1.52325)"
         id="g256"><path
           id="path258"
           style="fill:#ffb27d;fill-opacity:1;fill-rule:nonzero;stroke:none"
           d="m 16032.3,5889.18 c -0.3,5.71 -0.7,11.62 -1.1,17.66 -2.3,29.93 -58.6,104.97 -58.6,104.97 l 141.2,73.33 56,-92.43 c 84.4,-67.16 86,-68.41 70.6,-197.08 -13.3,-111.54 59.6,-112.85 57.8,-192.48 -1.7,-79.7 -104.3,-40.51 -104.3,-40.51 -159.1,74.64 -172.3,112.26 -167.3,187.95 -15.1,-21.4 -32,-33.87 -46.4,-24.55 -12.6,8.21 12.6,40.83 23.6,116.33 1.6,11.29 15,30.2 28.5,46.81" /></g><g
         transform="scale(1.51768)"
         id="g260"><path
           id="path262"
           style="fill:#f99746;fill-opacity:1;fill-rule:nonzero;stroke:none"
           d="m 16175,5976.16 c -90.9,-17.73 -189.4,-10.54 -189.4,-10.54 0,0 -269.8,833.63 -304.6,909.78 -34.7,76.15 -801.5,977.48 -801.5,977.48 l 319.4,799.45 c 0,0 829.4,-1385.43 913.6,-1580.1 139.2,-321.68 187.5,-1042.9 187.5,-1042.9 0,0 -53.6,-39.27 -125,-53.17" /></g><g
         transform="scale(1.19047)"
         id="g264"><path
           id="path266"
           style="fill:#ffb27d;fill-opacity:1;fill-rule:nonzero;stroke:none"
           d="m 15871.7,10412 c 0,0 -9.7,156.8 52.1,156.8 61.6,0 376.2,-406.2 376.2,-406.2 l -25,-87.4 -403.3,336.8" /></g></g></g></svg>