<?xml version="1.0" encoding="UTF-8" standalone="no"?>
<svg
   xmlns:dc="http://purl.org/dc/elements/1.1/"
   xmlns:cc="http://creativecommons.org/ns#"
   xmlns:rdf="http://www.w3.org/1999/02/22-rdf-syntax-ns#"
   xmlns:svg="http://www.w3.org/2000/svg"
   xmlns="http://www.w3.org/2000/svg"
   viewBox="0 0 4000 2666.6667"
   height="2666.6667"
   width="4000"
   xml:space="preserve"
   id="svg2"
   version="1.1"><metadata
     id="metadata8"><rdf:RDF><cc:Work
         rdf:about=""><dc:format>image/svg+xml</dc:format><dc:type
           rdf:resource="http://purl.org/dc/dcmitype/StillImage" /></cc:Work></rdf:RDF></metadata><defs
     id="defs6" /><g
     transform="matrix(1.3333333,0,0,-1.3333333,0,2666.6667)"
     id="g10"><g
       transform="scale(0.1)"
       id="g12"><g
         transform="scale(1.84049)"
         id="g14"><path
           id="path16"
           style="fill:#ffffff;fill-opacity:1;fill-rule:nonzero;stroke:none"
           d="M 16300,0 H 0 V 10866.7 H 16300 V 0" /></g><g
         transform="scale(1.62142)"
         id="g18"><path
           id="path20"
           style="fill:#ebf3fa;fill-opacity:1;fill-rule:nonzero;stroke:none"
           d="m 3710.3,1632.28 c 0,0 -1558.59,1785.59 -907.76,3884.5 584.12,1883.76 3225.19,3102.94 4628.55,2169.96 678.91,-451.34 1227.38,1362.73 3480.51,2026.8 1666.2,491.06 4130,-610.27 3504.2,-3983 -475.7,-2564.3 1884.2,-1285.85 1368.8,-4118.62 l -12074.3,20.36" /></g><g
         transform="scale(1.36913)"
         id="g22"><path
           id="path24"
           style="fill:#599dad;fill-opacity:1;fill-rule:nonzero;stroke:none"
           d="m 14173.6,9533.83 c 0,0 -401,433.87 -51.2,732.17 0,0 257.4,169.3 472.7,164.4 0,0 -285.2,-521.65 -184.8,-568.71 100.3,-47.06 275.8,604.21 275.8,604.21 0,0 597.1,80.7 793.5,-4.8 0,0 -496.7,-438.5 -387.8,-459.5 108.8,-20.86 646.8,411.5 646.8,411.5 0,0 561.4,-74 544.4,-415.42 -17,-341.4 -205.2,-453.7 -290.1,-447.83 -84.8,5.88 -586,175.96 -594.2,106.34 -8.2,-69.63 297.8,-284.67 506.5,-287.43 0,0 -377,-448.48 -643.1,-333.13 -266.1,115.36 -295.8,312.94 -461.5,381.24 -165.7,68.29 -304.8,62.88 -234.7,-10.49 70.1,-73.38 367.8,-136.06 467.1,-297.37 99.4,-161.32 187.2,-269.33 -84.8,-238.8 -271.9,30.53 -718.9,211.9 -746.8,437.75 -27.8,225.87 -27.8,225.87 -27.8,225.87" /></g><g
         transform="scale(1.34471)"
         id="g26"><path
           id="path28"
           style="fill:#599dad;fill-opacity:1;fill-rule:nonzero;stroke:none"
           d="m 16300,10159.4 c 0,0 -1544.8,1.5 -1868.9,-452.41 0,0 -66.9,-228.49 -291,-442.65 l -32.5,-99.86 c 0,0 256.7,291.9 351.8,312.53 0,0 -170.1,540.99 1840.6,682.39" /></g><g
         transform="scale(1.18217)"
         id="g30"><path
           id="path32"
           style="fill:#599dad;fill-opacity:1;fill-rule:nonzero;stroke:none"
           d="m 16084.4,10538.2 c 0,0 -366.2,-292.7 -373.7,-791.4 l 68.6,-3.56 c 0,0 101,519.16 310.8,728.56 209.9,209.4 -5.7,66.4 -5.7,66.4" /></g><g
         transform="scale(1.33171)"
         id="g34"><path
           id="path36"
           style="fill:#86d1cd;fill-opacity:1;fill-rule:nonzero;stroke:none"
           d="m 13639.9,10333.3 c 0,0 -926.9,209.1 -735.3,923.2 0,0 186.6,458.9 476.2,648.7 0,0 97.8,-951 273.7,-921.9 175.7,29.2 -185.5,1051.8 -185.5,1051.8 0,0 717.6,651.2 1055.5,716.9 0,0 -258.1,-1033.6 -94.9,-962 163.3,71.5 481.8,1134.6 481.8,1134.6 0,0 811.1,413.7 1099.8,-54 288.8,-467.7 141.8,-788.1 24,-857.6 -117.6,-69.5 -936.7,-301.2 -884,-400.8 52.6,-99.7 654,-105.7 932.9,80.9 0,0 -90.5,-937.7 -548.2,-1027.5 -457.6,-89.7 -677.1,144.9 -958.9,84.3 -281.8,-60.6 -461.1,-194.6 -301.3,-227.8 159.7,-33.3 611.2,155 889.8,31.9 278.7,-123.1 493.4,-186.2 105.4,-393.7 -388.1,-207.44 -1145.5,-374.67 -1388.3,-100.8 -242.7,273.8 -242.7,273.8 -242.7,273.8" /></g><g
         transform="scale(1.27994)"
         id="g38"><path
           id="path40"
           style="fill:#6bb7bf;fill-opacity:1;fill-rule:nonzero;stroke:none"
           d="m 16300,13104.7 c 0,0 -2092.6,-1437 -2108.5,-2353.5 0,0 122.4,-371.5 18.5,-870.24 l 49.1,-165.35 c 0,0 75.6,634.29 185,750.69 0,0 -734.2,573.8 1855.9,2638.4" /></g><g
         transform="scale(1.13844)"
         id="g42"><path
           id="path44"
           style="fill:#6bb7bf;fill-opacity:1;fill-rule:nonzero;stroke:none"
           d="m 15976.2,11109.1 c 0,0 -220.4,-728.7 228.8,-1402.78 l 95,58.4 c 0,0 -342.9,787.48 -254.9,1260.88 87.9,473.4 -68.9,83.5 -68.9,83.5" /></g><path
         id="path46"
         style="fill:#86d1cd;fill-opacity:1;fill-rule:nonzero;stroke:none"
         d="m 11307.9,6678.8 c 0,0 1234.3,278.4 979.2,1229.4 0,0 -248.5,611.1 -634.1,863.8 0,0 -130.3,-1266.4 -364.5,-1227.6 -234.1,38.8 247,1400.7 247,1400.7 0,0 -955.6,867.2 -1405.6,954.7 0,0 343.7,-1376.5 126.3,-1281.2 -217.4,95.2 -641.56,1511 -641.56,1511 0,0 -1080.13,551 -1464.67,-71.9 -384.54,-622.8 -188.75,-1049.5 -31.99,-1142.1 156.75,-92.6 1247.48,-401.1 1177.36,-533.8 -70.12,-132.7 -870.91,-140.6 -1242.42,107.8 0,0 120.59,-1248.8 730,-1368.3 609.41,-119.5 901.79,192.9 1277.08,112.2 375.2,-80.7 614,-259.1 401.2,-303.4 -212.7,-44.3 -813.89,206.5 -1185.01,42.5 -371.12,-163.9 -657.09,-247.9 -140.29,-524.2 516.81,-276.3 1525.5,-499 1848.8,-134.3 323.2,364.7 323.2,364.7 323.2,364.7" /><path
         id="path48"
         style="fill:#6bb7bf;fill-opacity:1;fill-rule:nonzero;stroke:none"
         d="m 8609.22,9691.1 c 0,0 2678.38,-1839.4 2698.68,-3012.3 0,0 -156.6,-475.6 -23.6,-1113.9 l -62.9,-211.7 c 0,0 -96.7,811.8 -236.7,960.9 0,0 939.7,734.4 -2375.48,3377" /><path
         id="path50"
         style="fill:#6bb7bf;fill-opacity:1;fill-rule:nonzero;stroke:none"
         d="m 11284.3,5564.9 c 0,0 250.9,-829.7 -260.4,-1597 l -108.2,66.4 c 0,0 390.4,896.6 290.2,1435.5 -100.1,539 78.4,95.1 78.4,95.1" /><g
         transform="scale(1.19579)"
         id="g52"><path
           id="path54"
           style="fill:#739af0;fill-opacity:1;fill-rule:nonzero;stroke:none"
           d="M 16300,2185.67 H 8787.99 V 12734.7 H 16300 V 2185.67" /></g><g
         transform="scale(1.17642)"
         id="g56"><path
           id="path58"
           style="fill:#ddebfd;fill-opacity:1;fill-rule:nonzero;stroke:none"
           d="M 16300,2420.22 H 9201.03 V 12647.4 H 16300 V 2420.22" /></g><g
         transform="scale(1.13512)"
         id="g60"><path
           id="path62"
           style="fill:#a8c3f7;fill-opacity:1;fill-rule:nonzero;stroke:none"
           d="M 16300,11463.5 H 10293.5 V 11807 H 16300 v -343.5" /></g><g
         transform="scale(1.13512)"
         id="g64"><path
           id="path66"
           style="fill:#a8c3f7;fill-opacity:1;fill-rule:nonzero;stroke:none"
           d="m 16300,9552.87 h -6006.5 v 157.58 H 16300 v -157.58" /></g><g
         transform="scale(1.13512)"
         id="g68"><path
           id="path70"
           style="fill:#a8c3f7;fill-opacity:1;fill-rule:nonzero;stroke:none"
           d="m 16300,9182.1 h -6006.5 v 157.58 H 16300 V 9182.1" /></g><g
         transform="scale(1.13512)"
         id="g72"><path
           id="path74"
           style="fill:#a8c3f7;fill-opacity:1;fill-rule:nonzero;stroke:none"
           d="M 16300,8811.32 H 10293.5 V 8968.9 H 16300 v -157.58" /></g><g
         transform="scale(1.13512)"
         id="g76"><path
           id="path78"
           style="fill:#a8c3f7;fill-opacity:1;fill-rule:nonzero;stroke:none"
           d="m 16300,8440.54 h -6006.5 v 157.61 H 16300 v -157.61" /></g><g
         transform="scale(1.13512)"
         id="g80"><path
           id="path82"
           style="fill:#a8c3f7;fill-opacity:1;fill-rule:nonzero;stroke:none"
           d="m 16300,8069.83 h -6006.5 v 157.52 H 16300 v -157.52" /></g><g
         transform="scale(1.13512)"
         id="g84"><path
           id="path86"
           style="fill:#a8c3f7;fill-opacity:1;fill-rule:nonzero;stroke:none"
           d="m 16300,7699.03 h -6006.5 v 157.61 H 16300 v -157.61" /></g><path
         id="path88"
         style="fill:#a8c3f7;fill-opacity:1;fill-rule:nonzero;stroke:none"
         d="m 13680.8,6473.9 c 0,-290.6 -235.5,-526.1 -526.1,-526.1 -290.5,0 -526.1,235.5 -526.1,526.1 0,290.5 235.6,526.1 526.1,526.1 290.6,0 526.1,-235.6 526.1,-526.1" /><g
         transform="scale(1.0774)"
         id="g90"><path
           id="path92"
           style="fill:#a8c3f7;fill-opacity:1;fill-rule:nonzero;stroke:none"
           d="m 15283,5928.63 v 0 z m -540.6,-389.27 c -1.4,0 -2.8,0.19 -4.2,0.37 -13.3,2.23 -22.2,14.85 -20,28.12 4.6,26.83 115.7,658.54 466.1,873.59 24.9,15.31 40.6,7.33 47.8,1.21 30.7,-26.27 7.3,-93.38 -98.2,-346.3 -42,-100.89 -91.8,-220.35 -112.4,-293.02 37.4,48.91 93.1,132.64 137.5,199.27 138.6,208.01 165.6,241.98 192.6,241.98 10,0 19,-4.64 24.7,-12.81 14.7,-21.16 3.5,-56.43 -34.7,-160.11 -14.7,-39.72 -37.1,-100.61 -43.6,-133.28 19.8,17.91 49.1,55.97 66.7,78.89 48,62.56 72.3,92.35 101,87.9 6,-0.93 20.6,-5.2 27.6,-24.6 2.9,-7.98 4.2,-17.08 5.7,-26.73 3.8,-24.97 8,-53.37 38.1,-70.35 60.8,-34.26 236.2,-32.3 725.8,171.8 12.4,5.2 26.7,-0.65 31.9,-13.09 5.2,-12.44 -0.6,-26.73 -13.1,-31.93 -413.5,-172.36 -664.8,-227.77 -768.5,-169.29 -50.5,28.4 -58,76.01 -62.4,104.88 -13.9,-14.67 -33.2,-39.82 -47.4,-58.29 -53,-68.96 -87.8,-110.55 -123.4,-107.57 -10.8,0.92 -20,6.49 -25.9,15.68 -16.8,26.73 -0.3,79.27 41.6,192.87 6.8,18.19 14.5,39.08 21.2,58.48 -33.9,-46.32 -79.9,-115.47 -117.2,-171.53 -155.2,-232.97 -183.3,-266.75 -214.6,-258.21 -4.9,1.3 -20.5,7.33 -21.8,29.98 -3.2,54.48 47.7,180.99 125.5,367.83 39.6,94.95 91.5,219.32 104.3,273.99 -318.8,-214.12 -425.7,-823.19 -426.7,-829.4 -2,-11.88 -12.3,-20.33 -24,-20.33" /></g><g
         transform="scale(1.05042)"
         id="g94"><path
           id="path96"
           style="fill:#f99746;fill-opacity:1;fill-rule:nonzero;stroke:none"
           d="m 14637.2,14683.3 c -110.7,0 -200.4,89.7 -200.4,200.3 0,110.7 89.7,200.4 200.4,200.4 110.7,0 200.3,-89.7 200.3,-200.4 0,-110.6 -89.6,-200.3 -200.3,-200.3 z m 1515.8,8.3 h -1008.3 c 22.6,59.7 35.1,124.4 35.1,192 0,299.7 -243,542.6 -542.6,542.6 -299.6,0 -542.6,-242.9 -542.6,-542.6 0,-67.6 12.5,-132.3 35.1,-192 h -1008.3 c -81.1,0 -146.9,-65.7 -146.9,-146.9 v -407.3 c 0,-81.1 65.8,-146.9 146.9,-146.9 H 16153 c 81.2,0 147,65.8 147,146.9 v 407.3 c 0,81.2 -65.8,146.9 -147,146.9" /></g><g
         transform="scale(1.05042)"
         id="g98"><path
           id="path100"
           style="fill:#ed7d2b;fill-opacity:1;fill-rule:nonzero;stroke:none"
           d="M 13121.4,13990.5 H 16153 c 81.2,0 147,65.8 147,146.9 v 407.3 l -3178.6,-554.2" /></g><path
         id="path102"
         style="fill:#d39e7a;fill-opacity:1;fill-rule:nonzero;stroke:none"
         d="m 5275.46,2663.2 c 212.29,216.9 586.26,366.1 1018.28,383.7 v 639.3 h -745.27 c -16.53,0 -31.3,14.4 -40.66,36.6 -6.52,15.6 -10.44,35 -10.44,56 v 32.3 c 0,51 23,92.6 51.1,92.6 h 745.27 v 1785.7 c 0,47.2 38.58,85.8 85.75,85.8 v 0 c 47.17,0 85.75,-38.6 85.75,-85.8 V 3903.7 h 745.27 c 28.11,0 51.1,-41.6 51.1,-92.6 v -32.3 c 0,-21.7 -4.17,-41.7 -11.12,-57.5 -9.37,-21.4 -23.84,-35.1 -39.98,-35.1 h -745.27 v -639.3 c 432.02,-17.6 806,-166.8 1018.29,-383.7 15.43,-15.7 29.95,-31.8 43.58,-48.2 H 5231.87 c 13.57,16.4 28.16,32.5 43.59,48.2" /><path
         id="path104"
         style="fill:#e0b594;fill-opacity:1;fill-rule:nonzero;stroke:none"
         d="m 6293.74,3043.7 c 301.41,-27.9 560.47,-173.4 710.44,-380.5 11.43,-15.8 22.16,-31.8 32.26,-48.2 h 212.36 c -10.1,16.4 -20.83,32.4 -32.26,48.2 -167.32,231.1 -470.44,385.4 -816.6,385.4 -35.93,0 -71.36,-1.6 -106.2,-4.9" /><path
         id="path106"
         style="fill:#163560;fill-opacity:1;fill-rule:nonzero;stroke:none"
         d="m 8643.23,3040.6 c 0,0 25.97,-418.8 107,-424.8 10.78,-0.8 410.97,-0.8 410.97,-0.8 l 510.87,2.9 c 0,0 -3.35,123.1 -152.68,149.1 -149.32,26.1 -399.27,131 -489.73,328.4 -95.16,207.6 -386.43,-54.8 -386.43,-54.8" /><path
         id="path108"
         style="fill:#233862;fill-opacity:1;fill-rule:nonzero;stroke:none"
         d="m 6619.93,6117.8 c 72.93,-123.7 157.28,-239.6 244.22,-349.4 268.71,-339.2 561.21,-618.9 612.17,-883.3 10.12,-52.7 26.21,-109.4 47.23,-169.2 21.28,-60.6 47.59,-124.2 77.95,-190.1 114.03,-247.7 284.55,-525.2 454.8,-777.5 294.32,-436.1 535.2,-728.7 535.2,-728.7 0,0 77.16,-60.2 297.92,-60.1 61.42,0 268.23,33.6 268.23,33.6 -20.33,50.9 -264.42,629.9 -560.55,1365.7 -120.25,298.8 -248.13,616.5 -371.49,923 -16.44,40.9 -32.88,81.6 -49.14,122 -37.72,93.8 -74.83,186.1 -111.08,276 -278.05,691 -499.53,1241.2 -499.53,1241.2 0,0 -1111.34,421 -1226.75,148.2 -95.17,-224.9 -17.65,-445.3 280.82,-951.4" /><path
         id="path110"
         style="fill:#d39e7a;fill-opacity:1;fill-rule:nonzero;stroke:none"
         d="M 10194.2,2615 H 8511.09 V 7272.9 H 10194.2 V 2615" /><path
         id="path112"
         style="fill:#f2c7aa;fill-opacity:1;fill-rule:nonzero;stroke:none"
         d="m 10124.2,2615 h 1204 v 4657.9 h -1204 V 2615" /><path
         id="path114"
         style="fill:#af7d5b;fill-opacity:1;fill-rule:nonzero;stroke:none"
         d="m 10135.9,7272.9 h -1739 v 93.9 h 1739 v -93.9" /><path
         id="path116"
         style="fill:#e2b291;fill-opacity:1;fill-rule:nonzero;stroke:none"
         d="m 11452.7,7272.9 h -1316.8 v 93.9 h 1316.8 v -93.9" /><path
         id="path118"
         style="fill:#ed975d;fill-opacity:1;fill-rule:nonzero;stroke:none"
         d="m 8370.58,7993.7 c 0,0 241.18,-137.2 308.69,-137.1 67.51,0 332.53,51.2 406.4,13.4 73.88,-37.7 207.59,-189.6 232.68,-239.2 45.12,-89.2 -181.61,-49.8 -288.79,26.2 -15.55,11 -34.91,15.1 -53.53,11 -55.5,-12.1 -170.83,-33 -226.51,-12.4 -74.87,27.7 -469.27,58.5 -469.27,58.5 l 90.33,279.6" /><path
         id="path120"
         style="fill:#82b378;fill-opacity:1;fill-rule:nonzero;stroke:none"
         d="m 6535.67,9861.5 c 0,0 250.01,-1776.9 664,-1936.1 204.27,-78.5 1107.04,-256.6 1374.08,-274.4 0,0 65.43,53 49.49,269 0,0 -945.83,347.3 -1080.21,536.1 -199.97,281.1 124.14,1148.2 -126.78,1412.2 -250.94,263.9 -673.57,377.4 -880.58,-6.8" /><path
         id="path122"
         style="fill:#163560;fill-opacity:1;fill-rule:nonzero;stroke:none"
         d="m 7467.98,4237.1 c 0,0 -353.02,-226.9 -318.77,-300.6 4.56,-9.8 199.65,-359.2 199.65,-359.2 l 251.63,-444.6 c 0,0 105.85,63 55.77,206 -50.07,143.1 -80.29,412.5 47.94,587.7 134.9,184.3 -236.22,310.7 -236.22,310.7" /><path
         id="path124"
         style="fill:#2b478b;fill-opacity:1;fill-rule:nonzero;stroke:none"
         d="m 7668.55,3802.1 c 0,0 -248.48,230.8 -287.37,373.6 0,0 909.1,1089.2 1106.31,1333.4 9.04,11.2 6.74,23.5 -5.21,37 -148.88,167.8 -1802.99,509.1 -2019.18,845.4 -74.52,115.9 -116.71,226 -139.7,322.1 -49,205.2 -10.26,347 -10.26,347 l 1651.98,47.8 c 0,0 1375.42,-856.5 1531.19,-1440.4 C 9652,5084 7668.55,3802.1 7668.55,3802.1" /><path
         id="path126"
         style="fill:#233862;fill-opacity:1;fill-rule:nonzero;stroke:none"
         d="m 8482.28,5546.1 c -148.88,167.8 -1802.99,509.1 -2019.18,845.4 -74.52,115.9 -116.71,226 -139.7,322.1 v 209 l 702.12,110.5 c 0,0 199.12,-612.7 788.81,-842.4 552.32,-215.2 656.92,-597.1 667.95,-644.6" /><path
         id="path128"
         style="fill:#ffb27d;fill-opacity:1;fill-rule:nonzero;stroke:none"
         d="m 7513.08,9973.5 c -334.21,-86.4 -888.21,223.2 -888.21,223.2 0,0 215.13,144.6 294.85,462.2 4.06,16 7.66,32.4 10.95,49.2 34.99,7.4 101.01,21.5 171.62,36.4 l 255.25,-228.7 c 0,0 -5.82,-94.9 -37.75,-258.1 -5.52,-28.5 -11.88,-59.1 -19.22,-91.6 137,-84.9 212.51,-192.6 212.51,-192.6" /><path
         id="path130"
         style="fill:#a8d29f;fill-opacity:1;fill-rule:nonzero;stroke:none"
         d="m 6271.04,8588.2 c 47.85,-643.8 -15.11,-1623 39.18,-1792.5 46.87,-146.4 580.86,-59.4 794.01,-10.5 78.88,18 174.44,43.9 273.14,74.4 275.28,85.3 575.23,207 607.42,297.3 1.24,3.6 2.3,7 2.97,10.4 2.97,13.1 2.31,25.4 -0.58,37.9 -10.73,46 -52.07,95.9 -56.94,209.9 -5.44,127.4 -4.62,277.3 -9.4,438.5 -0.25,18.2 -0.5,38 -2.48,56.1 l -0.08,6.5 c -0.09,3.5 -0.17,6.9 -0.25,10.4 -4.62,179.8 -14.03,368.8 -24.92,556.3 -6.93,117.8 -14.94,234.4 -24.18,346.1 -24.01,288.4 -56.37,544.9 -99.19,707 -69.98,264.3 -224.28,436.7 -364.73,563.1 l -101.59,87.1 c -113.37,-24.8 -247.39,-8.3 -368.61,49.1 -131.2,62.3 -176.5,106.9 -199.36,90.1 -303.01,-233.8 -520.95,-950.1 -464.41,-1737.2" /><path
         id="path132"
         style="fill:#82b378;fill-opacity:1;fill-rule:nonzero;stroke:none"
         d="m 7377.37,6859.6 c 275.28,85.3 575.23,207 607.42,297.3 1.24,3.6 2.3,7 2.97,10.4 -0.16,12.6 -0.34,25.3 -0.58,37.9 -10.73,46 -52.07,95.9 -56.94,209.9 -5.44,127.4 -4.62,277.3 -9.4,438.5 -0.25,18.2 -0.5,38 -2.48,56.1 l -0.08,6.5 c -0.09,3.5 -0.17,6.9 -0.25,10.4 l -1112.9,1417.8 c 0,0 -748.08,-1557.8 572.24,-2484.8" /><path
         id="path134"
         style="fill:#ed975d;fill-opacity:1;fill-rule:nonzero;stroke:none"
         d="m 7357.54,10515.8 c 0,0 -5.82,-94.9 -37.75,-258.1 -249.28,80.5 -362.31,305.7 -400.07,401.2 4.06,16 7.66,32.4 10.95,49.2 34.99,7.4 101.01,21.5 171.62,36.4 l 255.25,-228.7" /><path
         id="path136"
         style="fill:#ffb27d;fill-opacity:1;fill-rule:nonzero;stroke:none"
         d="m 7391.07,10371.9 c 0,0 -543.58,90.7 -481.88,428.4 61.7,337.6 33.1,576.7 382.78,533.1 349.68,-43.7 393.38,-184.8 400.19,-302.5 6.82,-117.7 -158.09,-673.9 -301.09,-659" /><path
         id="path138"
         style="fill:#1c468a;fill-opacity:1;fill-rule:nonzero;stroke:none"
         d="m 8581.7,7449.7 1357.59,0.2 368.91,1192.7 48.1,-14.9 -389.94,-1260.9 H 8581.12 l 0.58,82.9" /><path
         id="path140"
         style="fill:#ffb27d;fill-opacity:1;fill-rule:nonzero;stroke:none"
         d="m 8221.78,7415.2 c 0,0 444.91,-117.3 611.76,-105 166.84,12.3 305.6,91.7 326.6,133.1 20.99,41.4 65.09,114.9 -48.5,101.3 -113.58,-13.5 -268.66,-37.7 -273.47,-15.9 -4.81,21.9 92.6,19.8 92.6,19.8 0,0 29.44,42.8 -7.64,44.4 -37.07,1.5 -145.21,30.8 -185.37,10.8 -40.17,-20.1 -77.25,-94.3 -106.61,-91.2 -29.34,3.1 -372.29,154.5 -372.29,154.5 l -37.08,-251.8" /><path
         id="path142"
         style="fill:#a8d29f;fill-opacity:1;fill-rule:nonzero;stroke:none"
         d="m 6646.01,9773 c 0,0 52.58,-1793.7 446.5,-1997.5 194.37,-100.6 1072.01,-377 1335.45,-424.2 0,0 70.87,45.5 78.85,262 0,0 -901.79,449.3 -1014.52,651.9 -167.77,301.3 249.97,1127.4 29.67,1417.4 -220.3,290.1 -627.85,449.4 -875.95,90.4" /><path
         id="path144"
         style="fill:#233862;fill-opacity:1;fill-rule:nonzero;stroke:none"
         d="m 6919.72,10658.9 c 0,0 -6.23,115.8 65.25,182.2 0,0 -24.9,116.1 21.06,135.3 45.94,19.1 55.52,-78.5 76.58,-63.2 21.06,15.3 114.87,88.1 155.08,195.3 40.2,107.2 408.17,-22.6 451.07,-42 42.89,-19.3 180.74,51.6 207.54,109 0,0 -76.58,61.3 -111.04,107.2 -34.47,46 -275.7,356.1 -612.66,268.1 -336.97,-88.1 -382.92,-248.9 -363.78,-386.8 19.15,-137.8 -27.11,-458.9 110.9,-505.1" /><path
         id="path146"
         style="fill:#912f2f;fill-opacity:1;fill-rule:nonzero;stroke:none"
         d="m 7545.61,6349.4 v 0 c -510.94,0 -1016.59,103.4 -1486.5,304 l -304.97,130.2 c -276.84,118.2 -584.39,-84.9 -584.39,-385.9 V 6246.4 5984 5815.6 c 0,-56.6 46.33,-103 102.97,-103 h 2272.89 c 56.63,0 102.97,46.4 102.97,103 v 430.8 c 0,56.6 -46.34,103 -102.97,103" /><g
         transform="scale(1.11437)"
         id="g148"><path
           id="path150"
           style="fill:#c65447;fill-opacity:1;fill-rule:nonzero;stroke:none"
           d="m 14743.9,5295.53 c -429.6,-73.67 -846.6,-89.74 -1163.7,-64.88 -320.5,25.12 -507.8,124.02 -527.1,236.9 -17.5,102.21 101.1,219.5 343.1,338.94 v 0 c -231.9,-114.51 -344.3,-243.46 -328.3,-336.43 17.6,-103.19 204.6,-176.24 512.8,-200.47 316.1,-24.85 726.2,2.07 1154.7,75.56 428.5,73.59 824.1,185.04 1113.8,313.81 282.5,125.54 434.4,256.74 416.7,359.93 -18.8,109.3 -220.5,214.57 -526.5,274.6 -347.8,68.29 -758.3,45.31 -1162.6,-24.05 -759.2,-130.3 -1056.5,-272.62 -1308.5,-430.2 v 0 c 253.1,158.3 540.1,337.68 1301.9,468.43 406,69.72 822,70.26 1171.5,1.7 312.5,-61.38 518.9,-171.67 538.9,-287.87 19.4,-112.89 -131.7,-246.96 -425.4,-377.53 -290.8,-129.22 -681.7,-274.68 -1111.3,-348.44" /></g><g
         transform="scale(1.35008)"
         id="g152"><path
           id="path154"
           style="fill:#ffb27d;fill-opacity:1;fill-rule:nonzero;stroke:none"
           d="m 16300,5533.01 c 0,0 -20.6,-199.77 -43.1,-237.62 -22.6,-37.78 -118.6,-158.58 -159.5,-182.21 -40.9,-23.7 25,159.1 16.6,194.65 -8.3,35.63 -33.6,-64.88 -51.7,-67.25 -18,-2.37 -13.3,88.07 -14,121.03 -0.7,32.89 87.7,114.14 118.9,184.29 31.1,70.06 132.8,-12.89 132.8,-12.89" /></g><g
         transform="scale(1.14674)"
         id="g156"><path
           id="path158"
           style="fill:#ffb27d;fill-opacity:1;fill-rule:nonzero;stroke:none"
           d="m 16300,8683.9 -54.1,102 c 0,0 26.8,181.78 -201,296.78 0,0 -83.2,33.89 -130.2,-34.01 -43.3,-62.53 82.5,-51.24 75.7,-158.22 -6.7,-106.98 44.1,-169.76 114.8,-204.63 l 58.4,-67.67 136.4,65.75" /></g><g
         transform="scale(1.29818)"
         id="g160"><path
           id="path162"
           style="fill:#4a75cb;fill-opacity:1;fill-rule:nonzero;stroke:none"
           d="m 16300,7886.31 c 0,0 -172.8,-848.06 -1123.7,-1125.14 -296.8,-86.51 -971.1,890.71 -971.1,890.71 0,0 23.7,90.07 172.3,69.37 0,0 656.6,-434.65 739.2,-481.87 73.4,-41.91 555.7,538.59 775.6,632.23 219.8,93.63 407.7,14.7 407.7,14.7" /></g><g
         transform="scale(1.16699)"
         id="g164"><path
           id="path166"
           style="fill:#c65447;fill-opacity:1;fill-rule:nonzero;stroke:none"
           d="m 16300,8807.49 -30,-195.27 -982.3,150.87 30,195.28 982.3,-150.88" /></g><g
         transform="scale(1.09667)"
         id="g168"><path
           id="path170"
           style="fill:#ffb27d;fill-opacity:1;fill-rule:nonzero;stroke:none"
           d="m 16041,9466.26 227.1,-141.23 31.9,207.8 -259,-66.57" /></g><g
         transform="scale(1.17485)"
         id="g172"><path
           id="path174"
           style="fill:#ffb27d;fill-opacity:1;fill-rule:nonzero;stroke:none"
           d="m 16294.5,8666.82 -9.4,-61.32 c -5.8,-37.73 -41.1,-63.61 -78.8,-57.81 l -45.1,6.92 29.8,193.97 49.1,-7.55 c 35.5,-5.45 59.9,-38.69 54.4,-74.21" /></g><g
         transform="scale(1.39798)"
         id="g176"><path
           id="path178"
           style="fill:#233862;fill-opacity:1;fill-rule:nonzero;stroke:none"
           d="m 16190.5,2372.71 c 0,0 109.5,-99.93 88.1,-170.96 -21.3,-71.04 -120.2,-118.39 -133.5,-205.23 -13.4,-86.77 -66.8,-134.12 -114.9,-134.12 -48.1,0 -229.3,0 -229.3,0 0,0 -35.4,61.09 50.1,79.47 85.5,18.39 117.7,120.46 112.4,215.1 -5.3,94.71 8,221.03 8,221.03 l 181.7,42.06 37.4,-47.35" /></g><g
         transform="scale(1.27502)"
         id="g180"><path
           id="path182"
           style="fill:#233862;fill-opacity:1;fill-rule:nonzero;stroke:none"
           d="m 16278.4,2318.09 c 0,0 21.6,-249.49 -31.1,-275.45 l -674.8,1.41 c 0,0 0,77.88 108.4,95.21 108.4,17.26 298.8,80.71 331,222.04 32.3,141.33 266.5,-43.21 266.5,-43.21" /></g><g
         transform="scale(1.30656)"
         id="g184"><path
           id="path186"
           style="fill:#2b478b;fill-opacity:1;fill-rule:nonzero;stroke:none"
           d="m 15329.6,5700.55 c 0,0 34.7,-426.62 75.5,-939.57 55.5,-696.71 122.2,-1552.55 128.8,-1714.66 11.4,-281.5 57.2,-731.84 57.2,-731.84 0,0 108.6,-107 325.9,-61.92 0,0 193.6,642.91 248.9,1323.02 0.9,11.17 1.8,22.42 2.6,33.67 51.4,692.36 131.5,2150.46 131.5,2150.46 l -970.4,-59.16" /></g><g
         transform="scale(1.30656)"
         id="g188"><path
           id="path190"
           style="fill:#233862;fill-opacity:1;fill-rule:nonzero;stroke:none"
           d="m 15329.6,5700.55 c 0,0 34.7,-426.62 75.5,-939.57 l 760.8,-1185.4 c 0.9,11.17 1.8,22.42 2.6,33.67 51.4,692.36 131.5,2150.46 131.5,2150.46 l -970.4,-59.16" /></g><g
         transform="scale(1.38859)"
         id="g192"><path
           id="path194"
           style="fill:#2b478b;fill-opacity:1;fill-rule:nonzero;stroke:none"
           d="m 14573.2,5316.12 c 0,0 589,-1454 976.4,-2137.28 387.3,-683.28 508.4,-873.98 508.4,-873.98 0,0 221.8,87.42 242,146.98 0,0 -148.1,1319.18 -407.5,1640.73 -146.6,181.7 -318.7,727 -326.8,917.7 -8,190.69 -52.5,568.05 -52.5,568.05 l -940,-262.2" /></g><g
         transform="scale(1.30751)"
         id="g196"><path
           id="path198"
           style="fill:#ffb27d;fill-opacity:1;fill-rule:nonzero;stroke:none"
           d="m 16300,8025.46 c 0,0 -423.3,-204.23 -667.3,-128.45 0,0 60,75.76 165.2,132.14 -8.5,48.99 -15.1,91.49 -18.8,127.53 -10.3,83.18 -10.3,130.3 -10.3,130.3 l 163.2,128.45 154.9,122.91 c -12.1,-345.62 213.1,-512.88 213.1,-512.88" /></g><g
         transform="scale(1.32547)"
         id="g200"><path
           id="path202"
           style="fill:#699dee;fill-opacity:1;fill-rule:nonzero;stroke:none"
           d="m 16299.1,5765.95 c 0.9,-25.51 -53.7,-54.7 -77.8,-65.64 -178.6,-78.39 -345.3,-133.09 -534.1,-151.34 -223.2,-22.79 -487,27.38 -577.7,25.57 -9.3,0 -17.7,3.62 -25.1,9.96 -6.5,4.6 -11.1,273.49 -6.5,611.71 0,13.65 0,27.38 1,41.04 v 4.53 c 1.8,132.17 6.5,270.77 12.9,409.28 13,304.5 37.1,598.05 77.8,760.34 49.1,191.4 160.2,318.11 261.1,410.18 l 83.3,72.93 c 83.4,-16.4 171.3,-11.85 259.2,30.98 96.3,46.51 200.1,96.65 216.7,83.89 125.9,-92.07 211,-299.01 256.5,-563.36 25.8,-152.24 38.8,-322.75 37.9,-501.4 0,-65.64 -1.9,-133.09 -5.6,-199.63 -22.2,-361 0,-674.55 13,-856 3.7,-52.88 6.5,-93.85 7.4,-123.04" /></g><g
         transform="scale(1.3248)"
         id="g204"><path
           id="path206"
           style="fill:#4a75cb;fill-opacity:1;fill-rule:nonzero;stroke:none"
           d="m 16300,5785.49 c -1462.9,2.94 -269.8,1587.33 -269.8,1587.33 l 237,77 c 18.8,-162.74 28.1,-344.96 27.4,-535.93 0,-70.2 -1.3,-142.29 -4,-213.39 -16,-385.87 0,-721.1 9.4,-915.01" /></g><g
         transform="scale(1.29064)"
         id="g208"><path
           id="path210"
           style="fill:#ed985f;fill-opacity:1;fill-rule:nonzero;stroke:none"
           d="m 16300,8516.04 c 0,0 -108.4,-197.53 -314.7,-252.78 -10.5,84.27 -10.5,132.01 -10.5,132.01 l 165.4,130.12 159.8,-9.35" /></g><g
         transform="scale(1.30363)"
         id="g212"><path
           id="path214"
           style="fill:#ffb27d;fill-opacity:1;fill-rule:nonzero;stroke:none"
           d="m 15741,8317.33 c 0,0 405,-66.26 443.1,182.71 38,248.97 115.9,408.11 -141.1,460.92 -257,52.83 -321.8,-34.72 -355.1,-114.78 -33.2,-80.07 -51.2,-505.21 53.1,-528.85" /></g><g
         transform="scale(1.30902)"
         id="g216"><path
           id="path218"
           style="fill:#2c3a64;fill-opacity:1;fill-rule:nonzero;stroke:none"
           d="m 16264,8953.74 c 3.7,4.19 12.1,7.58 30.9,8.6 0,0 -15.1,9.4 -35.1,9.89 -4,26.13 -17.9,72.4 -62.9,83.64 0,0 24.3,-12.89 27.4,-40.68 -52.1,53.51 -163.7,92.45 -472.8,68.05 -407.4,-32.14 -273.1,-292.97 -220.4,-324.06 52.8,-31.09 185.5,54.15 283.7,46.35 98.3,-7.79 117,-149.78 150.4,-169.26 33.3,-19.48 20.1,14.96 65.3,35.35 45.1,20.39 49.3,-54.34 36.3,-102.94 -13,-48.58 48.9,-112.69 48.9,-112.69 0,0 0,0 62.7,67.45 62.6,67.44 121.6,353.1 93.2,413.99 -2.5,5.38 -5.1,10.83 -7.6,16.31" /></g><g
         transform="scale(1.36412)"
         id="g220"><path
           id="path222"
           style="fill:#699dee;fill-opacity:1;fill-rule:nonzero;stroke:none"
           d="m 15536.7,7784.41 c 0,0 244.9,-115.97 362.2,-294.23 182.2,-276.53 393.3,-1284.29 397.2,-1377.61 3.9,-93.32 -154.1,-752.2 -154.1,-752.2 0,0 -160.2,10.56 -201.6,91.49 0,0 32.1,676.92 11.8,720.39 -20.3,43.54 -668,908.05 -595.2,1092.57 72.8,184.48 179.7,519.59 179.7,519.59" /></g><g
         transform="scale(1.14398)"
         id="g224"><path
           id="path226"
           style="fill:#ffb27d;fill-opacity:1;fill-rule:nonzero;stroke:none"
           d="m 16284.1,8811.95 c 0,0 15.9,62.72 -27.6,90.92 -43.6,28.19 -83.5,104.87 -101.9,94.48 -38,-21.51 20.8,-88.42 10.1,-171.88 -3.8,-29.22 64.2,-105.75 119.4,-13.52" /></g><g
         transform="scale(1.60885)"
         id="g228"><path
           id="path230"
           style="fill:#283250;fill-opacity:1;fill-rule:nonzero;stroke:none"
           d="M 2359.35,1593.25 H 16287.6 c 6.8,0 12.4,7.21 12.4,16.04 v 0 c 0,8.76 -5.6,15.97 -12.4,15.97 H 2359.35 c -6.84,0 -12.43,-7.21 -12.43,-15.97 v 0 c 0,-8.83 5.59,-16.04 12.43,-16.04" /></g></g></g></svg>