<svg width="473" height="637" viewBox="0 0 473 637" fill="none" xmlns="http://www.w3.org/2000/svg">
<g clip-path="url(#clip0_57_3745)">
<path d="M81 574.5C91.3333 599 124.8 640 176 608C217.987 581.758 225.856 536.687 223.928 506.977C223.222 496.105 215.934 487.213 206.242 482.236C142.998 449.758 16.3462 379.989 9.0003 308C-0.999696 210 39.5846 98.7271 104 79C184 54.5 358.929 71.5589 403 125C466.5 202 445.5 353.5 356.5 424" stroke="url(#paint0_linear_57_3745)" stroke-opacity="0.4" stroke-width="3" stroke-linecap="round" stroke-dasharray="6 6"/>
<path d="M231.5 585.276C360.459 585.276 465 580.436 465 574.465C465 568.495 360.459 563.655 231.5 563.655C102.542 563.655 -2 568.495 -2 574.465C-2 580.436 102.542 585.276 231.5 585.276Z" fill="url(#paint1_radial_57_3745)" fill-opacity="0.5"/>
<path d="M360.141 224.756H362.979C364.465 224.756 365.681 223.54 365.681 222.054V162.327C365.681 160.841 364.465 159.625 362.979 159.625H360.141V224.756Z" fill="url(#paint2_linear_57_3745)"/>
<path d="M102.859 130.843H100.021C98.5345 130.843 97.3184 129.626 97.3184 128.14V111.654C97.3184 110.168 98.5345 108.952 100.021 108.952H102.859V130.843Z" fill="url(#paint3_linear_57_3745)"/>
<path d="M102.859 186.785H100.021C98.5345 186.785 97.3184 185.569 97.3184 184.083V148.274C97.3184 146.788 98.5345 145.572 100.021 145.572H102.859V186.785Z" fill="url(#paint4_linear_57_3745)"/>
<path d="M102.859 237.458H100.021C98.5345 237.458 97.3184 236.242 97.3184 234.756V198.947C97.3184 197.461 98.5345 196.244 100.021 196.244H102.859V237.458Z" fill="url(#paint5_linear_57_3745)"/>
<path d="M324.738 572.979H138.667C117.588 572.979 100.562 555.953 100.562 534.874V76.1162C100.562 55.0363 117.588 38.0103 138.667 38.0103H324.738C345.818 38.0103 362.844 55.0363 362.844 76.1162V534.738C362.844 555.818 345.818 572.979 324.738 572.979Z" fill="url(#paint6_linear_57_3745)"/>
<path d="M105.561 535.143V75.8457C105.561 57.7386 120.29 43.0098 138.397 43.0098H325.143C343.25 43.0098 357.979 57.7386 357.979 75.8457V535.143C357.979 553.251 343.25 567.979 325.143 567.979H138.262C120.155 567.979 105.561 553.251 105.561 535.143Z" fill="black"/>
<path d="M110.561 535.414V75.5756C110.561 60.4414 122.858 48.1448 137.992 48.1448H325.278C340.413 48.1448 352.709 60.4414 352.709 75.5756V535.414C352.709 550.548 340.413 562.845 325.278 562.845H137.992C122.858 562.845 110.561 550.548 110.561 535.414Z" fill="url(#paint7_linear_57_3745)"/>
<path d="M112.587 535.549V75.4404C112.587 61.3872 123.938 50.0365 137.991 50.0365H325.548C339.601 50.0365 350.952 61.3872 350.952 75.4404V535.549C350.952 549.602 339.601 560.953 325.548 560.953H137.856C123.938 560.818 112.587 549.467 112.587 535.549Z" fill="#EEF2D6"/>
<g filter="url(#filter0_d_57_3745)">
<g clip-path="url(#clip1_57_3745)">
<rect x="113.562" y="49.1162" width="236.808" height="512.512" rx="24.3229" fill="white"/>
<rect x="113.562" y="203.556" width="236.808" height="358.072" fill="#FDFAFF"/>
<path d="M174.149 -17.7388C252.462 2.86058 168.034 57.5193 219.694 111.024C267.038 160.058 380.723 98.1342 368.307 217.592C359.806 299.378 379.16 334.636 440.946 365.959" stroke="#F2F2F2" stroke-width="0.572001"/>
<path d="M178.66 -21.2566C256.972 -0.657239 172.545 54.0014 224.205 107.506C271.549 156.541 385.234 94.6163 372.818 214.074C364.317 295.861 383.671 331.118 445.457 362.441" stroke="#F2F2F2" stroke-width="0.572001"/>
<path d="M183.171 -24.7742C261.484 -4.17482 177.057 50.4839 228.717 103.989C276.06 153.023 389.746 91.0988 377.329 210.557C368.828 292.343 388.182 327.601 449.968 358.924" stroke="#F2F2F2" stroke-width="0.572001"/>
<path d="M187.681 -28.2924C265.994 -7.69301 181.566 46.9657 233.227 100.471C280.57 149.505 394.255 87.5806 381.839 207.038C373.338 288.825 392.692 324.082 454.478 355.406" stroke="#F2F2F2" stroke-width="0.572001"/>
<path d="M192.192 -31.8099C270.505 -11.2106 186.077 43.4481 237.737 96.953C285.081 145.987 398.766 84.063 386.35 203.521C377.849 285.307 397.203 320.565 458.989 351.888" stroke="#F2F2F2" stroke-width="0.572001"/>
<path d="M196.702 -35.3275C275.015 -14.7282 190.587 39.9305 242.248 93.4354C289.591 142.47 403.276 80.5454 390.86 200.003C382.359 281.79 401.713 317.047 463.499 348.37" stroke="#F2F2F2" stroke-width="0.572001"/>
<path d="M201.212 -38.8455C279.525 -18.2461 195.098 36.4126 246.758 89.9175C294.101 138.952 407.787 77.0275 395.37 196.485C386.869 278.272 406.223 313.529 468.009 344.852" stroke="#F2F2F2" stroke-width="0.572001"/>
<path d="M205.722 -42.3633C284.035 -21.7639 199.607 32.8947 251.268 86.3997C298.611 135.434 412.296 73.5096 399.88 192.968C391.379 274.754 410.733 310.012 472.519 341.335" stroke="#F2F2F2" stroke-width="0.572001"/>
<path d="M210.233 -45.8811C288.546 -25.2818 204.119 29.3769 255.779 82.8818C303.122 131.916 416.808 69.9918 404.391 189.45C395.89 271.236 415.244 306.494 477.03 337.817" stroke="#F2F2F2" stroke-width="0.572001"/>
<path d="M214.743 -49.3989C293.056 -28.7996 208.628 25.8591 260.289 79.364C307.632 128.398 421.317 66.474 408.901 185.932C400.4 267.718 419.754 302.976 481.54 334.299" stroke="#F2F2F2" stroke-width="0.572001"/>
<path d="M219.254 -52.9165C297.567 -32.3172 213.139 22.3415 264.799 75.8464C312.143 124.881 425.828 62.9564 413.412 182.414C404.911 264.201 424.265 299.458 486.051 330.781" stroke="#F2F2F2" stroke-width="0.572001"/>
<path d="M223.765 -56.434C302.077 -35.8346 217.65 18.8241 269.31 72.329C316.654 121.363 430.339 59.439 417.923 178.897C409.422 260.683 428.776 295.941 490.562 327.264" stroke="#F2F2F2" stroke-width="0.572001"/>
<path d="M228.275 -59.9518C306.588 -39.3524 222.16 15.3062 273.82 68.8112C321.164 117.845 434.849 55.9211 422.433 175.379C413.932 257.165 433.286 292.423 495.072 323.746" stroke="#F2F2F2" stroke-width="0.572001"/>
<path d="M232.785 -63.4695C311.098 -42.8701 226.67 11.7885 278.331 65.2935C325.674 114.328 439.359 52.4034 426.943 171.861C418.442 253.648 437.796 288.905 499.582 320.228" stroke="#F2F2F2" stroke-width="0.572001"/>
<path d="M237.296 -66.9872C315.609 -46.3878 231.182 8.27084 282.842 61.7758C330.185 110.81 443.871 48.8857 431.454 168.344C422.953 250.13 442.307 285.388 504.093 316.711" stroke="#F2F2F2" stroke-width="0.572001"/>
<path d="M241.805 -70.5048C320.117 -49.9054 235.69 4.75326 287.35 58.2582C334.694 107.292 448.379 45.3682 435.963 164.826C427.462 246.612 446.816 281.87 508.602 313.193" stroke="#F2F2F2" stroke-width="0.572001"/>
<path d="M246.316 -74.0229C324.629 -53.4236 240.202 1.23507 291.862 54.74C339.205 103.774 452.891 41.85 440.474 161.308C431.973 243.094 451.327 278.352 513.113 309.675" stroke="#F2F2F2" stroke-width="0.572001"/>
<path d="M250.826 -77.5405C329.139 -56.9412 244.711 -2.28251 296.372 51.2224C343.715 100.257 457.4 38.3324 444.984 157.79C436.483 239.577 455.837 274.834 517.623 306.157" stroke="#F2F2F2" stroke-width="0.572001"/>
<path d="M255.338 -81.0582C333.651 -60.4589 249.223 -5.80021 300.883 47.7047C348.227 96.739 461.912 34.8147 449.496 154.273C440.995 236.059 460.349 271.317 522.135 302.64" stroke="#F2F2F2" stroke-width="0.572001"/>
<path d="M259.848 -84.576C338.16 -63.9767 253.733 -9.31803 305.393 44.1869C352.737 93.2211 466.422 31.2969 454.006 150.755C445.505 232.541 464.859 267.799 526.645 299.122" stroke="#F2F2F2" stroke-width="0.572001"/>
<g opacity="0.1">
<path d="M39.6802 450.78C120.654 451.394 52.3474 525.216 115.625 564.3C173.615 600.118 268.478 512.027 285.958 630.85C297.926 712.201 325.391 741.585 393 756.672" stroke="#999999" stroke-width="0.572001"/>
<path d="M43.1816 446.258C124.156 446.871 55.8488 520.693 119.126 559.777C177.116 595.595 271.979 507.505 289.46 626.327C301.427 707.678 328.892 737.062 396.501 752.15" stroke="#999999" stroke-width="0.572001"/>
<path d="M46.6831 441.734C127.657 442.348 59.3503 516.17 122.628 555.254C180.618 591.072 275.481 502.981 292.961 621.804C304.929 703.155 332.393 732.538 400.003 747.626" stroke="#999999" stroke-width="0.572001"/>
<path d="M50.1841 437.211C131.158 437.825 62.8513 511.647 126.129 550.731C184.119 586.549 278.982 498.458 296.462 617.281C308.43 698.632 335.894 728.016 403.504 743.104" stroke="#999999" stroke-width="0.572001"/>
<path d="M53.686 432.689C134.66 433.302 66.3532 507.125 129.631 546.208C187.621 582.026 282.484 493.936 299.964 612.758C311.932 694.11 339.396 723.493 407.006 738.581" stroke="#999999" stroke-width="0.572001"/>
<path d="M57.187 428.165C138.161 428.779 69.8542 502.601 133.131 541.685C191.122 577.503 285.984 489.412 303.465 608.235C315.433 689.586 342.897 718.97 410.507 734.057" stroke="#999999" stroke-width="0.572001"/>
<path d="M60.6895 423.642C141.664 424.256 73.3566 498.078 136.634 537.162C194.624 572.98 289.487 484.889 306.967 603.712C318.935 685.063 346.4 714.446 414.009 729.534" stroke="#999999" stroke-width="0.572001"/>
<path d="M64.1909 419.119C145.165 419.733 76.8581 493.555 140.135 532.639C198.125 568.457 292.988 480.366 310.469 599.188C322.437 680.54 349.901 709.923 417.511 725.011" stroke="#999999" stroke-width="0.572001"/>
<path d="M67.6929 414.596C148.667 415.21 80.3601 489.032 143.637 528.116C201.627 563.934 296.49 475.843 313.971 594.666C325.939 676.017 353.403 705.4 421.012 720.488" stroke="#999999" stroke-width="0.572001"/>
<path d="M71.1943 410.073C152.169 410.687 83.8615 484.509 147.139 523.593C205.129 559.411 299.992 471.32 317.472 590.143C329.44 671.494 356.905 700.877 424.514 715.965" stroke="#999999" stroke-width="0.572001"/>
<path d="M74.6953 405.55C155.67 406.164 87.3625 479.986 150.64 519.07C208.63 554.888 303.493 466.797 320.973 585.62C332.941 666.971 360.406 696.355 428.015 711.442" stroke="#999999" stroke-width="0.572001"/>
<path d="M78.1973 401.028C159.171 401.642 90.8645 475.464 154.142 514.548C212.132 550.366 306.995 462.275 324.475 581.097C336.443 662.449 363.908 691.832 431.517 706.92" stroke="#999999" stroke-width="0.572001"/>
<path d="M81.6987 396.505C162.673 397.119 94.3659 470.941 157.643 510.025C215.633 545.843 310.496 457.752 327.977 576.574C339.945 657.926 367.409 687.309 435.018 702.397" stroke="#999999" stroke-width="0.572001"/>
<path d="M85.2007 391.981C166.175 392.595 97.8679 466.417 161.145 505.501C219.135 541.319 313.998 453.228 331.479 572.051C343.447 653.402 370.911 682.785 438.52 697.873" stroke="#999999" stroke-width="0.572001"/>
<path d="M88.7012 387.458C169.675 388.072 101.368 461.894 164.646 500.978C222.636 536.796 317.499 448.705 334.979 567.528C346.947 648.879 374.412 678.262 442.021 693.35" stroke="#999999" stroke-width="0.572001"/>
<path d="M92.2021 382.935C173.176 383.549 104.869 457.371 168.147 496.455C226.137 532.273 321 444.182 338.48 563.005C350.448 644.356 377.912 673.74 445.522 688.828" stroke="#999999" stroke-width="0.572001"/>
<path d="M95.7051 378.412C176.679 379.026 108.372 452.848 171.65 491.932C229.64 527.75 324.503 439.659 341.983 558.482C353.951 639.833 381.415 669.217 449.025 684.305" stroke="#999999" stroke-width="0.572001"/>
<path d="M99.2061 373.889C180.18 374.503 111.873 448.325 175.151 487.409C233.141 523.227 328.004 435.136 345.484 553.959C357.452 635.31 384.916 664.693 452.526 679.781" stroke="#999999" stroke-width="0.572001"/>
<path d="M102.708 369.366C183.682 369.979 115.375 443.802 178.652 482.885C236.642 518.703 331.505 430.613 348.985 549.435C360.953 630.787 388.418 660.17 456.027 675.258" stroke="#999999" stroke-width="0.572001"/>
<path d="M106.21 364.844C187.185 365.457 118.878 439.279 182.155 478.363C240.145 514.181 335.008 426.091 352.488 544.913C364.456 626.264 391.921 655.648 459.53 670.736" stroke="#999999" stroke-width="0.572001"/>
</g>
<path d="M138.896 112.35H147.321V121.736H148.883V126.267H146.686V123.744H138.879V126.267H136.682V121.736H137.78C138.524 120.901 138.896 119.477 138.896 117.464V112.35ZM141.144 114.358V117.446C141.144 119.265 140.898 120.695 140.406 121.736H145.073V114.358H141.144ZM151.454 116.606C152.301 115.782 153.359 115.37 154.629 115.37C155.899 115.37 156.951 115.782 157.786 116.606C158.633 117.418 159.056 118.442 159.056 119.677C159.056 120.901 158.633 121.925 157.786 122.749C156.951 123.561 155.899 123.967 154.629 123.967C153.359 123.967 152.301 123.561 151.454 122.749C150.619 121.925 150.201 120.901 150.201 119.677C150.201 118.442 150.619 117.418 151.454 116.606ZM156.242 118.013C155.818 117.578 155.281 117.361 154.629 117.361C153.977 117.361 153.433 117.578 152.998 118.013C152.575 118.447 152.364 119.002 152.364 119.677C152.364 120.352 152.575 120.907 152.998 121.342C153.433 121.765 153.977 121.977 154.629 121.977C155.281 121.977 155.818 121.765 156.242 121.342C156.676 120.907 156.894 120.352 156.894 119.677C156.894 119.002 156.676 118.447 156.242 118.013ZM165.344 115.782C166.488 115.782 167.449 116.171 168.227 116.949C169.016 117.727 169.411 118.705 169.411 119.883C169.411 121.05 168.994 122.022 168.158 122.8C167.335 123.578 166.317 123.967 165.104 123.967C163.777 123.967 162.719 123.544 161.929 122.697C161.151 121.839 160.762 120.598 160.762 118.974C160.762 117.063 161.066 115.65 161.672 114.735C162.29 113.808 163.193 113.288 164.383 113.174L165.773 113.036C166.174 113.002 166.477 112.933 166.683 112.83C166.889 112.716 167.026 112.527 167.095 112.264H169.24C169.137 113.145 168.862 113.786 168.416 114.186C167.981 114.586 167.352 114.821 166.528 114.89L164.675 115.061C164.114 115.13 163.657 115.307 163.302 115.593C162.959 115.879 162.764 116.285 162.719 116.811C163.222 116.125 164.097 115.782 165.344 115.782ZM165.104 121.977C165.699 121.977 166.202 121.782 166.614 121.393C167.037 120.993 167.249 120.489 167.249 119.883C167.249 119.265 167.037 118.762 166.614 118.373C166.202 117.973 165.699 117.772 165.104 117.772C164.498 117.772 163.983 117.973 163.56 118.373C163.148 118.762 162.942 119.265 162.942 119.883C162.942 120.489 163.148 120.993 163.56 121.393C163.983 121.782 164.498 121.977 165.104 121.977ZM180.128 119.66C180.128 120.838 179.745 121.851 178.978 122.697C178.223 123.544 177.217 123.967 175.958 123.967C174.94 123.967 174.145 123.681 173.573 123.109V127.245H171.411V115.593H173.573V116.211C174.134 115.65 174.929 115.37 175.958 115.37C177.217 115.37 178.223 115.793 178.978 116.64C179.745 117.486 180.128 118.493 180.128 119.66ZM177.966 119.66C177.966 119.019 177.76 118.476 177.348 118.03C176.936 117.584 176.416 117.361 175.787 117.361C175.158 117.361 174.614 117.561 174.157 117.961C173.71 118.362 173.487 118.928 173.487 119.66C173.487 120.392 173.716 120.964 174.174 121.376C174.631 121.776 175.169 121.977 175.787 121.977C176.416 121.977 176.936 121.748 177.348 121.29C177.76 120.833 177.966 120.289 177.966 119.66ZM182.925 116.606C183.772 115.782 184.83 115.37 186.1 115.37C187.37 115.37 188.422 115.782 189.257 116.606C190.104 117.418 190.527 118.442 190.527 119.677C190.527 120.901 190.104 121.925 189.257 122.749C188.422 123.561 187.37 123.967 186.1 123.967C184.83 123.967 183.772 123.561 182.925 122.749C182.09 121.925 181.673 120.901 181.673 119.677C181.673 118.442 182.09 117.418 182.925 116.606ZM187.713 118.013C187.29 117.578 186.752 117.361 186.1 117.361C185.448 117.361 184.904 117.578 184.47 118.013C184.046 118.447 183.835 119.002 183.835 119.677C183.835 120.352 184.046 120.907 184.47 121.342C184.904 121.765 185.448 121.977 186.1 121.977C186.752 121.977 187.29 121.765 187.713 121.342C188.148 120.907 188.365 120.352 188.365 119.677C188.365 119.002 188.148 118.447 187.713 118.013ZM137.677 138.593H145.811V146.744H143.649V140.481H139.84V146.744H137.677V138.593ZM149.074 139.606C149.921 138.782 150.979 138.37 152.249 138.37C153.519 138.37 154.571 138.782 155.407 139.606C156.253 140.418 156.676 141.442 156.676 142.677C156.676 143.901 156.253 144.925 155.407 145.749C154.571 146.561 153.519 146.967 152.249 146.967C150.979 146.967 149.921 146.561 149.074 145.749C148.239 144.925 147.822 143.901 147.822 142.677C147.822 141.442 148.239 140.418 149.074 139.606ZM153.862 141.013C153.439 140.578 152.901 140.361 152.249 140.361C151.597 140.361 151.054 140.578 150.619 141.013C150.196 141.447 149.984 142.002 149.984 142.677C149.984 143.352 150.196 143.907 150.619 144.342C151.054 144.765 151.597 144.977 152.249 144.977C152.901 144.977 153.439 144.765 153.862 144.342C154.297 143.907 154.514 143.352 154.514 142.677C154.514 142.002 154.297 141.447 153.862 141.013ZM163.159 138.593H165.321V141.802L168.307 138.593H171.087L167.174 142.677L171.087 146.744H168.238L165.321 143.724V146.744H163.159V143.724L160.242 146.744H157.393L161.306 142.677L157.393 138.593H160.173L163.159 141.802V138.593ZM175.967 138.37C177.213 138.37 178.209 138.662 178.952 139.245C179.707 139.829 180.085 140.641 180.085 141.682V146.744H177.923V146.126C177.362 146.687 176.481 146.967 175.28 146.967C174.273 146.967 173.484 146.727 172.912 146.247C172.351 145.766 172.071 145.085 172.071 144.204C172.071 143.266 172.432 142.603 173.152 142.214C173.884 141.813 174.805 141.613 175.915 141.613H177.923C177.923 141.167 177.745 140.835 177.391 140.618C177.036 140.401 176.579 140.292 176.018 140.292C175.023 140.292 174.388 140.618 174.113 141.27H171.882C172.1 140.321 172.586 139.6 173.341 139.108C174.108 138.616 174.983 138.37 175.967 138.37ZM177.923 143.57V143.226H175.915C174.794 143.226 174.233 143.558 174.233 144.222C174.233 144.519 174.359 144.765 174.611 144.959C174.874 145.143 175.24 145.234 175.709 145.234C176.327 145.234 176.847 145.091 177.271 144.805C177.705 144.508 177.923 144.096 177.923 143.57ZM183.348 138.593H190.332V146.744H188.17V140.481H185.51V141.991C185.51 145.16 184.446 146.744 182.318 146.744H181.477V144.736H182.095C182.381 144.736 182.616 144.651 182.799 144.479C182.982 144.307 183.108 144.061 183.176 143.741C183.245 143.421 183.291 143.135 183.314 142.883C183.336 142.62 183.348 142.3 183.348 141.922V138.593ZM193.6 139.606C194.447 138.782 195.505 138.37 196.775 138.37C198.044 138.37 199.097 138.782 199.932 139.606C200.779 140.418 201.202 141.442 201.202 142.677C201.202 143.901 200.779 144.925 199.932 145.749C199.097 146.561 198.044 146.967 196.775 146.967C195.505 146.967 194.447 146.561 193.6 145.749C192.765 144.925 192.347 143.901 192.347 142.677C192.347 141.442 192.765 140.418 193.6 139.606ZM198.388 141.013C197.964 140.578 197.427 140.361 196.775 140.361C196.123 140.361 195.579 140.578 195.144 141.013C194.721 141.447 194.51 142.002 194.51 142.677C194.51 143.352 194.721 143.907 195.144 144.342C195.579 144.765 196.123 144.977 196.775 144.977C197.427 144.977 197.964 144.765 198.388 144.342C198.822 143.907 199.04 143.352 199.04 142.677C199.04 142.002 198.822 141.447 198.388 141.013ZM210.922 141.03C210.922 141.705 210.711 142.237 210.287 142.626C210.779 143.049 211.025 143.604 211.025 144.29C211.025 145 210.791 145.589 210.322 146.058C209.853 146.515 209.166 146.744 208.262 146.744H203.217V138.593H208.159C209.052 138.593 209.732 138.828 210.201 139.297C210.682 139.754 210.922 140.332 210.922 141.03ZM205.379 143.484V144.977H207.936C208.554 144.977 208.863 144.725 208.863 144.222C208.863 143.73 208.554 143.484 207.936 143.484H205.379ZM205.379 140.361V141.836H207.833C208.451 141.836 208.76 141.585 208.76 141.081C208.76 140.601 208.451 140.361 207.833 140.361H205.379ZM216.504 138.37C217.751 138.37 218.746 138.662 219.49 139.245C220.245 139.829 220.622 140.641 220.622 141.682V146.744H218.46V146.126C217.899 146.687 217.019 146.967 215.817 146.967C214.811 146.967 214.021 146.727 213.449 146.247C212.889 145.766 212.608 145.085 212.608 144.204C212.608 143.266 212.969 142.603 213.689 142.214C214.422 141.813 215.343 141.613 216.452 141.613H218.46C218.46 141.167 218.283 140.835 217.928 140.618C217.573 140.401 217.116 140.292 216.555 140.292C215.56 140.292 214.925 140.618 214.65 141.27H212.42C212.637 140.321 213.123 139.6 213.878 139.108C214.645 138.616 215.52 138.37 216.504 138.37ZM218.46 143.57V143.226H216.452C215.331 143.226 214.771 143.558 214.771 144.222C214.771 144.519 214.896 144.765 215.148 144.959C215.411 145.143 215.777 145.234 216.246 145.234C216.864 145.234 217.385 145.091 217.808 144.805C218.243 144.508 218.46 144.096 218.46 143.57ZM230.185 138.593V140.481H227.13V146.744H224.968V140.481H221.931V138.593H230.185ZM231.722 138.593H233.885V140.944H236.235C237.299 140.944 238.106 141.219 238.655 141.768C239.216 142.317 239.496 143.009 239.496 143.844C239.496 144.679 239.216 145.371 238.655 145.92C238.106 146.47 237.299 146.744 236.235 146.744H231.722V138.593ZM233.885 142.832V144.857H236.167C236.945 144.857 237.334 144.519 237.334 143.844C237.334 143.524 237.231 143.278 237.025 143.106C236.819 142.923 236.533 142.832 236.167 142.832H233.885Z" fill="#5608A5"/>
<rect x="136.441" y="319.673" width="191.048" height="0.572001" rx="0.286" fill="#E0E0E0"/>
<path d="M137.219 301.287H138.043V306.22L141.566 301.287H142.49V307.364H141.667V302.431L138.143 307.364H137.219V301.287ZM149.245 307.364H148.422V304.71H144.871V307.364H144.047L144.047 301.287H144.871V303.941H148.422V301.287H149.245V307.364ZM156.002 307.364H155.179V304.71H151.628V307.364H150.804V301.287H151.628V303.941H155.179V301.287H156.002V307.364ZM158.938 308.096L161.326 301.287H162.141L159.743 308.096H158.938ZM170.175 307.364H169.351V302.056H165.901V307.364H165.077V301.287H170.175V307.364ZM176.925 307.364H176.101V304.71H172.55V307.364H171.727V301.287H172.55V303.941H176.101V301.287H176.925V307.364ZM182.776 302.596H182.181V305.918H182.776C183.27 305.918 183.694 305.775 184.048 305.488C184.402 305.201 184.579 304.789 184.579 304.253C184.579 303.716 184.402 303.307 184.048 303.026C183.7 302.739 183.276 302.596 182.776 302.596ZM180.753 305.918H181.357V302.596H180.753C180.253 302.596 179.826 302.739 179.472 303.026C179.124 303.307 178.95 303.716 178.95 304.253C178.95 304.789 179.124 305.201 179.472 305.488C179.826 305.775 180.253 305.918 180.753 305.918ZM181.357 307.52V306.687H180.753C180.009 306.687 179.383 306.467 178.877 306.028C178.37 305.589 178.117 304.997 178.117 304.253C178.117 303.508 178.37 302.919 178.877 302.486C179.383 302.047 180.009 301.827 180.753 301.827H181.357V301.104H182.181V301.827H182.776C183.526 301.827 184.151 302.047 184.652 302.486C185.152 302.919 185.402 303.508 185.402 304.253C185.402 304.997 185.152 305.589 184.652 306.028C184.151 306.467 183.526 306.687 182.776 306.687H182.181V307.52H181.357ZM187.132 301.287H191.397V307.364H190.573V302.056H187.955V304.088C187.955 304.399 187.949 304.661 187.937 304.875C187.931 305.082 187.91 305.326 187.873 305.607C187.843 305.888 187.788 306.123 187.708 306.312C187.635 306.495 187.537 306.675 187.415 306.852C187.3 307.023 187.144 307.151 186.949 307.236C186.753 307.322 186.525 307.364 186.262 307.364H185.86V306.577H186.116C186.244 306.577 186.357 306.562 186.455 306.531C186.552 306.495 186.634 306.437 186.702 306.358C186.775 306.272 186.836 306.193 186.885 306.12C186.94 306.04 186.979 305.927 187.004 305.781C187.034 305.635 187.059 305.513 187.077 305.415C187.095 305.317 187.107 305.174 187.113 304.985C187.126 304.789 187.132 304.643 187.132 304.545C187.132 304.448 187.132 304.295 187.132 304.088V301.287Z" fill="#666666"/>
<rect x="136.441" y="364.861" width="191.048" height="0.572001" rx="0.286" fill="#BDBDBD"/>
<path d="M142.317 353.124H141.493V347.816H138.043V353.124H137.219V347.047H142.317V353.124ZM145.507 348.795C146.117 348.795 146.605 348.942 146.971 349.234C147.337 349.521 147.52 349.924 147.52 350.442V353.124H146.733V352.666C146.379 353.051 145.891 353.243 145.269 353.243C144.756 353.243 144.341 353.124 144.024 352.886C143.713 352.648 143.557 352.3 143.557 351.843C143.557 351.367 143.728 351.022 144.07 350.809C144.417 350.589 144.863 350.479 145.406 350.479H146.733C146.733 349.845 146.324 349.527 145.507 349.527C145.238 349.527 144.994 349.582 144.774 349.692C144.561 349.796 144.411 349.945 144.326 350.14H143.457C143.572 349.719 143.82 349.39 144.198 349.152C144.576 348.914 145.012 348.795 145.507 348.795ZM146.733 351.44V351.165H145.397C144.695 351.165 144.344 351.391 144.344 351.843C144.344 352.288 144.68 352.511 145.351 352.511C145.772 352.511 146.108 352.413 146.358 352.218C146.608 352.017 146.733 351.757 146.733 351.44ZM149.677 354.991H148.89L148.89 348.914H149.677V349.372C150.025 348.987 150.498 348.795 151.096 348.795C151.761 348.795 152.282 349.012 152.661 349.445C153.039 349.878 153.228 350.403 153.228 351.019C153.228 351.635 153.039 352.16 152.661 352.593C152.282 353.026 151.761 353.243 151.096 353.243C150.498 353.243 150.025 353.051 149.677 352.666V354.991ZM150.062 349.921C149.787 350.177 149.65 350.543 149.65 351.019C149.65 351.495 149.787 351.864 150.062 352.126C150.342 352.383 150.678 352.511 151.068 352.511C151.465 352.511 151.791 352.367 152.048 352.081C152.31 351.788 152.441 351.434 152.441 351.019C152.441 350.604 152.31 350.253 152.048 349.967C151.791 349.674 151.465 349.527 151.068 349.527C150.678 349.527 150.342 349.658 150.062 349.921ZM156.345 348.795C156.973 348.795 157.498 349.009 157.919 349.436C158.34 349.857 158.55 350.385 158.55 351.019C158.55 351.654 158.34 352.184 157.919 352.612C157.498 353.033 156.973 353.243 156.345 353.243C155.71 353.243 155.182 353.033 154.761 352.612C154.346 352.184 154.139 351.654 154.139 351.019C154.139 350.385 154.346 349.857 154.761 349.436C155.182 349.009 155.71 348.795 156.345 348.795ZM155.329 352.081C155.597 352.367 155.936 352.511 156.345 352.511C156.753 352.511 157.092 352.367 157.36 352.081C157.629 351.794 157.763 351.44 157.763 351.019C157.763 350.592 157.629 350.238 157.36 349.957C157.098 349.671 156.759 349.527 156.345 349.527C155.93 349.527 155.588 349.671 155.32 349.957C155.057 350.238 154.926 350.592 154.926 351.019C154.926 351.44 155.06 351.794 155.329 352.081ZM160.152 348.914H163.52V353.124H162.733V349.61H160.939V350.699C160.939 350.955 160.933 351.178 160.921 351.367C160.909 351.55 160.872 351.763 160.811 352.007C160.756 352.245 160.677 352.438 160.573 352.584C160.476 352.73 160.332 352.859 160.143 352.968C159.954 353.072 159.725 353.124 159.457 353.124H159.191V352.383H159.356C159.539 352.383 159.688 352.334 159.804 352.236C159.92 352.139 160 351.992 160.042 351.797C160.091 351.602 160.122 351.431 160.134 351.284C160.146 351.138 160.152 350.943 160.152 350.699V348.914ZM165.774 350.305H167.238C167.757 350.305 168.15 350.439 168.419 350.708C168.687 350.97 168.821 351.306 168.821 351.715C168.821 352.123 168.687 352.462 168.419 352.73C168.15 352.993 167.757 353.124 167.238 353.124H164.987V348.914H165.774V350.305ZM165.774 352.428H167.211C167.473 352.428 167.674 352.367 167.815 352.245C167.961 352.123 168.034 351.946 168.034 351.715C168.034 351.483 167.961 351.306 167.815 351.184C167.674 351.062 167.473 351.001 167.211 351.001H165.774V352.428Z" fill="#666666"/>
<path d="M326.488 349.475C326.384 349.333 323.9 345.985 320.729 345.985C317.557 345.985 315.074 349.333 314.97 349.475C314.871 349.611 314.871 349.794 314.97 349.929C315.074 350.072 317.557 353.42 320.729 353.42C323.9 353.42 326.384 350.072 326.488 349.929C326.587 349.794 326.587 349.611 326.488 349.475ZM320.729 352.651C318.393 352.651 316.369 350.429 315.77 349.702C316.369 348.975 318.388 346.754 320.729 346.754C323.065 346.754 325.088 348.976 325.687 349.703C325.089 350.43 323.07 352.651 320.729 352.651Z" fill="#BDBDBD"/>
<path d="M320.73 347.395C319.458 347.395 318.422 348.43 318.422 349.702C318.422 350.975 319.458 352.01 320.73 352.01C322.002 352.01 323.037 350.975 323.037 349.702C323.037 348.43 322.002 347.395 320.73 347.395ZM320.73 351.241C319.882 351.241 319.192 350.551 319.192 349.702C319.192 348.854 319.882 348.164 320.73 348.164C321.578 348.164 322.268 348.854 322.268 349.702C322.268 350.551 321.578 351.241 320.73 351.241Z" fill="#BDBDBD"/>
<path d="M137.168 271.328V263.195H140.017C141.004 263.195 141.752 263.385 142.262 263.765C142.773 264.141 143.028 264.694 143.028 265.424C143.028 265.822 142.925 266.174 142.72 266.479C142.516 266.781 142.231 267.002 141.866 267.144C142.283 267.248 142.611 267.459 142.849 267.775C143.091 268.092 143.212 268.479 143.212 268.937C143.212 269.719 142.963 270.311 142.464 270.713C141.965 271.116 141.253 271.32 140.33 271.328H137.168ZM138.844 267.786V269.982H140.279C140.674 269.982 140.981 269.889 141.201 269.702C141.425 269.512 141.536 269.252 141.536 268.92C141.536 268.176 141.151 267.798 140.38 267.786H138.844ZM138.844 266.602H140.084C140.929 266.587 141.352 266.25 141.352 265.591C141.352 265.222 141.244 264.958 141.028 264.798C140.816 264.634 140.479 264.552 140.017 264.552H138.844V266.602ZM146.67 267.088L147.686 265.284H149.412L147.692 268.244L149.485 271.328H147.753L146.675 269.429L145.603 271.328H143.866L145.659 268.244L143.944 265.284H145.675L146.67 267.088ZM149.714 268.25C149.714 267.65 149.83 267.116 150.06 266.647C150.291 266.178 150.623 265.815 151.055 265.558C151.49 265.301 151.995 265.172 152.569 265.172C153.384 265.172 154.049 265.422 154.563 265.921C155.08 266.42 155.369 267.097 155.429 267.954L155.44 268.367C155.44 269.295 155.181 270.039 154.663 270.602C154.146 271.16 153.451 271.44 152.58 271.44C151.708 271.44 151.012 271.16 150.491 270.602C149.973 270.043 149.714 269.283 149.714 268.323V268.25ZM151.328 268.367C151.328 268.941 151.436 269.38 151.652 269.686C151.868 269.987 152.177 270.138 152.58 270.138C152.971 270.138 153.276 269.989 153.496 269.691C153.715 269.39 153.825 268.909 153.825 268.25C153.825 267.688 153.715 267.252 153.496 266.943C153.276 266.634 152.967 266.479 152.569 266.479C152.174 266.479 151.868 266.634 151.652 266.943C151.436 267.248 151.328 267.723 151.328 268.367ZM156.116 270.026C156.481 269.639 156.728 269.255 156.859 268.876C156.989 268.496 157.061 267.958 157.076 267.261L157.121 265.284H161.567V270.026H162.439V273.143H160.825V271.328H157.244V273.143H155.596V270.026H156.116ZM158.02 270.026H159.959V266.619H158.702L158.691 267.345C158.657 268.455 158.434 269.349 158.02 270.026ZM166.215 271.328V265.284H168.74C169.563 265.284 170.194 265.429 170.633 265.72C171.073 266.01 171.293 266.427 171.293 266.971C171.293 267.25 171.199 267.502 171.013 267.725C170.831 267.945 170.563 268.114 170.209 268.233C170.641 268.315 170.98 268.477 171.226 268.719C171.475 268.958 171.6 269.252 171.6 269.602C171.6 270.164 171.388 270.592 170.963 270.887C170.542 271.181 169.93 271.328 169.125 271.328H166.215ZM167.829 268.82V270.038H169.131C169.701 270.038 169.985 269.838 169.985 269.44C169.985 269.034 169.714 268.827 169.17 268.82H167.829ZM167.829 267.736H168.829C169.395 267.729 169.678 267.546 169.678 267.189C169.678 266.969 169.6 266.813 169.444 266.719C169.291 266.626 169.056 266.58 168.74 266.58H167.829V267.736ZM177.806 269.099H177.158V271.328H175.543V265.284H177.158V267.557H177.733L179.051 265.284H181.09L179.113 268.161L181.275 271.328H179.124L177.806 269.099ZM185.386 271.328C185.311 271.183 185.257 271.002 185.224 270.786C184.833 271.222 184.325 271.44 183.699 271.44C183.107 271.44 182.615 271.268 182.224 270.926C181.837 270.583 181.643 270.151 181.643 269.63C181.643 268.989 181.88 268.498 182.353 268.155C182.829 267.812 183.517 267.639 184.414 267.636H185.157V267.289C185.157 267.01 185.084 266.787 184.939 266.619C184.798 266.451 184.572 266.368 184.263 266.368C183.991 266.368 183.777 266.433 183.621 266.563C183.468 266.693 183.392 266.872 183.392 267.099H181.777C181.777 266.749 181.885 266.425 182.101 266.127C182.317 265.829 182.623 265.597 183.017 265.429C183.412 265.258 183.855 265.172 184.347 265.172C185.092 265.172 185.682 265.36 186.118 265.736C186.557 266.109 186.777 266.634 186.777 267.312V269.931C186.781 270.505 186.861 270.939 187.017 271.233V271.328H185.386ZM184.051 270.205C184.289 270.205 184.509 270.153 184.71 270.049C184.911 269.941 185.06 269.797 185.157 269.619V268.58H184.554C183.746 268.58 183.315 268.859 183.263 269.417L183.258 269.512C183.258 269.714 183.328 269.879 183.47 270.01C183.611 270.14 183.805 270.205 184.051 270.205ZM191.017 265.619C191.791 265.619 192.409 265.876 192.871 266.39C193.333 266.904 193.564 267.602 193.564 268.485V268.563C193.564 269.434 193.307 270.132 192.793 270.658C192.279 271.183 191.588 271.445 190.721 271.445C189.849 271.445 189.155 271.162 188.637 270.596C188.123 270.026 187.866 269.254 187.866 268.278V268.01C187.874 266.651 188.103 265.587 188.553 264.82C189.007 264.049 189.689 263.563 190.598 263.362C191.074 263.258 191.382 263.156 191.519 263.055C191.657 262.951 191.726 262.807 191.726 262.625H193.033C193.033 263.21 192.875 263.649 192.558 263.943C192.245 264.237 191.687 264.465 190.882 264.625C190.406 264.722 190.03 264.91 189.754 265.189C189.479 265.468 189.292 265.861 189.196 266.368C189.709 265.869 190.316 265.619 191.017 265.619ZM190.709 266.926C190.326 266.926 190.024 267.055 189.804 267.312C189.588 267.569 189.48 267.986 189.48 268.563C189.48 269.077 189.587 269.47 189.799 269.741C190.011 270.01 190.318 270.144 190.721 270.144C191.112 270.144 191.413 270.011 191.625 269.747C191.838 269.483 191.946 269.094 191.949 268.58V268.446C191.949 267.95 191.84 267.574 191.62 267.317C191.404 267.056 191.1 266.926 190.709 266.926ZM198.072 265.284H199.686V271.328H198.072V267.596L196.049 271.328H194.43V265.284H196.049V269.01L198.072 265.284ZM206.16 271.328H204.54V269.004H202.535V271.328H200.92V265.284H202.535V267.708H204.54V265.284H206.16V271.328ZM210.193 271.44C209.307 271.44 208.584 271.168 208.026 270.624C207.471 270.08 207.193 269.356 207.193 268.451V268.295C207.193 267.688 207.311 267.146 207.545 266.669C207.78 266.189 208.111 265.82 208.54 265.563C208.972 265.303 209.463 265.172 210.014 265.172C210.841 265.172 211.491 265.433 211.964 265.954C212.441 266.476 212.679 267.215 212.679 268.172V268.831H208.83C208.882 269.226 209.039 269.542 209.299 269.781C209.564 270.019 209.897 270.138 210.299 270.138C210.921 270.138 211.407 269.913 211.757 269.462L212.55 270.35C212.308 270.693 211.981 270.961 211.567 271.155C211.154 271.345 210.696 271.44 210.193 271.44ZM210.009 266.479C209.689 266.479 209.428 266.587 209.227 266.803C209.029 267.019 208.903 267.328 208.847 267.731H211.092V267.602C211.085 267.245 210.988 266.969 210.802 266.775C210.616 266.578 210.351 266.479 210.009 266.479ZM218.55 266.58H216.611V271.328H214.991V266.58H213.087V265.284H218.55V266.58Z" fill="#666666"/>
<path d="M198.895 443.716H201.75C202.256 443.716 202.693 443.859 203.059 444.146C203.425 444.426 203.608 444.853 203.608 445.427C203.608 446 203.37 446.443 202.894 446.754C203.37 447.065 203.608 447.508 203.608 448.081C203.608 448.655 203.425 449.085 203.059 449.371C202.693 449.652 202.256 449.792 201.75 449.792H198.895V443.716ZM202.501 448.786C202.69 448.621 202.784 448.386 202.784 448.081C202.784 447.776 202.69 447.544 202.501 447.386C202.311 447.221 202.058 447.138 201.741 447.138H199.718V449.024H201.741C202.058 449.024 202.311 448.944 202.501 448.786ZM202.501 446.132C202.69 445.967 202.784 445.732 202.784 445.427C202.784 445.122 202.69 444.89 202.501 444.731C202.311 444.567 202.058 444.484 201.741 444.484H199.718V446.37H201.741C202.058 446.37 202.311 446.29 202.501 446.132ZM208.681 445.583L206.969 447.66L208.699 449.792H207.738L206.475 448.246L205.203 449.792H204.297L206.017 447.688L204.315 445.583H205.294L206.512 447.093L207.738 445.583H208.681ZM211.46 445.464C212.089 445.464 212.613 445.677 213.034 446.104C213.455 446.525 213.666 447.053 213.666 447.688C213.666 448.322 213.455 448.853 213.034 449.28C212.613 449.701 212.089 449.911 211.46 449.911C210.826 449.911 210.298 449.701 209.877 449.28C209.462 448.853 209.255 448.322 209.255 447.688C209.255 447.053 209.462 446.525 209.877 446.104C210.298 445.677 210.826 445.464 211.46 445.464ZM210.444 448.749C210.713 449.036 211.051 449.179 211.46 449.179C211.869 449.179 212.208 449.036 212.476 448.749C212.745 448.462 212.879 448.109 212.879 447.688C212.879 447.26 212.745 446.907 212.476 446.626C212.214 446.339 211.875 446.196 211.46 446.196C211.045 446.196 210.704 446.339 210.435 446.626C210.173 446.907 210.042 447.26 210.042 447.688C210.042 448.109 210.176 448.462 210.444 448.749ZM219.414 450.946H218.627V449.792H215.094V450.946H214.307V449.097H214.801C215.149 448.774 215.323 448.185 215.323 447.331V445.583H218.727V449.097H219.414V450.946ZM216.11 446.278V447.321C216.11 448.109 215.988 448.7 215.744 449.097H217.94V446.278H216.11ZM222.623 445.583H226.585V449.792H225.798V446.278H223.41V449.792H222.623V445.583ZM229.979 445.464C230.607 445.464 231.132 445.677 231.553 446.104C231.974 446.525 232.184 447.053 232.184 447.688C232.184 448.322 231.974 448.853 231.553 449.28C231.132 449.701 230.607 449.911 229.979 449.911C229.344 449.911 228.816 449.701 228.395 449.28C227.981 448.853 227.773 448.322 227.773 447.688C227.773 447.053 227.981 446.525 228.395 446.104C228.816 445.677 229.344 445.464 229.979 445.464ZM228.963 448.749C229.231 449.036 229.57 449.179 229.979 449.179C230.388 449.179 230.726 449.036 230.995 448.749C231.263 448.462 231.397 448.109 231.397 447.688C231.397 447.26 231.263 446.907 230.995 446.626C230.732 446.339 230.394 446.196 229.979 446.196C229.564 446.196 229.222 446.339 228.954 446.626C228.691 446.907 228.56 447.26 228.56 447.688C228.56 448.109 228.694 448.462 228.963 448.749ZM235.484 445.583H239.447V449.792H238.659V446.278H236.271V449.792H235.484V445.583ZM242.84 445.464C243.468 445.464 243.993 445.677 244.414 446.104C244.835 446.525 245.045 447.053 245.045 447.688C245.045 448.322 244.835 448.853 244.414 449.28C243.993 449.701 243.468 449.911 242.84 449.911C242.205 449.911 241.678 449.701 241.257 449.28C240.842 448.853 240.634 448.322 240.634 447.688C240.634 447.053 240.842 446.525 241.257 446.104C241.678 445.677 242.205 445.464 242.84 445.464ZM241.824 448.749C242.092 449.036 242.431 449.179 242.84 449.179C243.249 449.179 243.587 449.036 243.856 448.749C244.124 448.462 244.258 448.109 244.258 447.688C244.258 447.26 244.124 446.907 243.856 446.626C243.593 446.339 243.255 446.196 242.84 446.196C242.425 446.196 242.083 446.339 241.815 446.626C241.552 446.907 241.421 447.26 241.421 447.688C241.421 448.109 241.556 448.462 241.824 448.749ZM250.793 450.946H250.006V449.792H246.473V450.946H245.686V449.097H246.181C246.528 448.774 246.702 448.185 246.702 447.331V445.583H250.107V449.097H250.793V450.946ZM247.489 446.278V447.321C247.489 448.109 247.367 448.7 247.123 449.097H249.32V446.278H247.489ZM251.893 445.583H255.856V449.792H255.069V446.278H252.68V449.792H251.893V445.583ZM258.105 449.792H257.318V445.583H258.105V448.648L260.567 445.583H261.354V449.792H260.567V446.727L258.105 449.792ZM266.723 446.809H265.862C265.624 446.4 265.249 446.196 264.737 446.196C264.328 446.196 263.989 446.339 263.721 446.626C263.458 446.907 263.327 447.26 263.327 447.688C263.327 448.115 263.458 448.472 263.721 448.758C263.989 449.039 264.328 449.179 264.737 449.179C265.249 449.179 265.624 448.975 265.862 448.566H266.723C266.57 448.981 266.317 449.31 265.963 449.555C265.609 449.792 265.2 449.911 264.737 449.911C264.114 449.911 263.593 449.701 263.172 449.28C262.751 448.853 262.54 448.322 262.54 447.688C262.54 447.053 262.751 446.525 263.172 446.104C263.593 445.677 264.114 445.464 264.737 445.464C265.2 445.464 265.609 445.586 265.963 445.83C266.317 446.068 266.57 446.394 266.723 446.809ZM268.651 449.792H267.864V445.583H268.651V448.648L271.113 445.583H271.9V449.792H271.113V446.727L268.651 449.792Z" fill="#999999"/>
<path d="M198.117 451.623H272.633V452.08H198.117V451.623Z" fill="#999999"/>
<rect x="136.442" y="388.312" width="191.048" height="28.6" rx="14.3" fill="#5608A5"/>
<path d="M215.881 398.501H219.37C220.194 398.501 220.819 398.707 221.247 399.119C221.681 399.523 221.899 400.042 221.899 400.675C221.899 401.422 221.605 401.964 221.018 402.299C221.605 402.635 221.899 403.176 221.899 403.924C221.899 404.557 221.681 405.079 221.247 405.491C220.819 405.895 220.194 406.097 219.37 406.097H215.881V398.501ZM217.38 399.839V401.636H219.222C219.588 401.636 219.874 401.559 220.08 401.407C220.293 401.254 220.4 401.033 220.4 400.743C220.4 400.141 220.007 399.839 219.222 399.839H217.38ZM217.38 402.974V404.759H219.222C219.588 404.759 219.874 404.686 220.08 404.541C220.293 404.389 220.4 404.168 220.4 403.878C220.4 403.275 220.007 402.974 219.222 402.974H217.38ZM223.824 401.338C224.389 400.789 225.094 400.514 225.941 400.514C226.787 400.514 227.489 400.789 228.046 401.338C228.61 401.88 228.892 402.562 228.892 403.386C228.892 404.202 228.61 404.885 228.046 405.434C227.489 405.975 226.787 406.246 225.941 406.246C225.094 406.246 224.389 405.975 223.824 405.434C223.267 404.885 222.989 404.202 222.989 403.386C222.989 402.562 223.267 401.88 223.824 401.338ZM227.016 402.276C226.734 401.986 226.375 401.841 225.941 401.841C225.506 401.841 225.144 401.986 224.854 402.276C224.572 402.566 224.431 402.936 224.431 403.386C224.431 403.836 224.572 404.206 224.854 404.496C225.144 404.778 225.506 404.919 225.941 404.919C226.375 404.919 226.734 404.778 227.016 404.496C227.306 404.206 227.451 403.836 227.451 403.386C227.451 402.936 227.306 402.566 227.016 402.276ZM234.297 400.663H235.738V406.097H234.297V402.654L231.677 406.097H230.236V400.663H231.677V404.107L234.297 400.663ZM230.728 397.929H231.917C231.948 398.188 232.059 398.398 232.249 398.558C232.447 398.711 232.692 398.787 232.981 398.787C233.271 398.787 233.511 398.711 233.702 398.558C233.9 398.398 234.015 398.188 234.045 397.929H235.235C235.189 398.524 234.953 399.012 234.526 399.393C234.106 399.767 233.591 399.954 232.981 399.954C232.371 399.954 231.853 399.767 231.426 399.393C231.006 399.012 230.773 398.524 230.728 397.929ZM242.271 400.663V401.922H240.234V406.097H238.793V401.922H236.768V400.663H242.271ZM247.357 400.663H248.798V406.097H247.357V402.654L244.737 406.097H243.296V400.663H244.737V404.107L247.357 400.663Z" fill="white"/>
<rect opacity="0.5" x="136.606" y="474.571" width="189.904" height="27.456" rx="13.728" stroke="#999999" stroke-width="1.144"/>
<path d="M203.553 485.006C203.995 485.395 204.217 485.94 204.217 486.642C204.217 487.343 203.995 487.892 203.553 488.289C203.111 488.678 202.523 488.873 201.791 488.873H199.126V492.007H198.096V484.411H201.791C202.523 484.411 203.111 484.609 203.553 485.006ZM202.798 487.58C203.057 487.359 203.187 487.046 203.187 486.642C203.187 486.238 203.057 485.925 202.798 485.704C202.546 485.482 202.211 485.372 201.791 485.372H199.126V487.912H201.791C202.211 487.912 202.546 487.801 202.798 487.58ZM207.659 491.241C208.315 491.241 208.78 491.004 209.054 490.531H210.118C209.935 491.035 209.623 491.431 209.18 491.721C208.745 492.011 208.238 492.156 207.659 492.156C206.866 492.156 206.206 491.893 205.68 491.366C205.161 490.84 204.902 490.173 204.902 489.364C204.902 488.571 205.153 487.912 205.657 487.385C206.168 486.859 206.816 486.596 207.601 486.596C208.341 486.596 208.955 486.859 209.443 487.385C209.939 487.904 210.187 488.545 210.187 489.307C210.187 489.528 210.179 489.673 210.164 489.742H205.92C205.981 490.177 206.171 490.535 206.492 490.817C206.82 491.1 207.209 491.241 207.659 491.241ZM207.601 487.511C207.152 487.511 206.774 487.637 206.469 487.889C206.171 488.133 205.992 488.464 205.931 488.884H209.157C209.096 488.464 208.929 488.133 208.654 487.889C208.379 487.637 208.029 487.511 207.601 487.511ZM211.669 486.745H215.753V487.614H212.653V492.007H211.669L211.669 486.745ZM217.993 492.007H217.009V486.745H217.993V490.577L221.07 486.745H222.054V492.007H221.07V488.175L217.993 492.007ZM228.764 488.278H227.689C227.392 487.767 226.923 487.511 226.282 487.511C225.771 487.511 225.348 487.69 225.012 488.049C224.684 488.4 224.52 488.842 224.52 489.376C224.52 489.91 224.684 490.356 225.012 490.714C225.348 491.065 225.771 491.241 226.282 491.241C226.923 491.241 227.392 490.985 227.689 490.474H228.764C228.574 490.993 228.257 491.405 227.815 491.71C227.373 492.007 226.862 492.156 226.282 492.156C225.504 492.156 224.852 491.893 224.326 491.366C223.799 490.833 223.536 490.169 223.536 489.376C223.536 488.583 223.799 487.923 224.326 487.397C224.852 486.863 225.504 486.596 226.282 486.596C226.862 486.596 227.373 486.748 227.815 487.054C228.257 487.351 228.574 487.759 228.764 488.278ZM229.505 487.614V486.745H234.562V487.614H232.525V492.007H231.542V487.614H229.505ZM236.694 494.341H235.711V486.745H236.694V487.317C237.129 486.836 237.72 486.596 238.468 486.596C239.299 486.596 239.951 486.867 240.424 487.408C240.897 487.95 241.133 488.606 241.133 489.376C241.133 490.146 240.897 490.802 240.424 491.344C239.951 491.885 239.299 492.156 238.468 492.156C237.72 492.156 237.129 491.916 236.694 491.435V494.341ZM237.175 488.003C236.832 488.323 236.66 488.781 236.66 489.376C236.66 489.971 236.832 490.432 237.175 490.76C237.526 491.08 237.945 491.241 238.433 491.241C238.929 491.241 239.337 491.061 239.657 490.703C239.985 490.337 240.149 489.894 240.149 489.376C240.149 488.857 239.985 488.419 239.657 488.06C239.337 487.694 238.929 487.511 238.433 487.511C237.945 487.511 237.526 487.675 237.175 488.003ZM244.72 486.596C245.482 486.596 246.093 486.779 246.55 487.145C247.008 487.504 247.237 488.007 247.237 488.655V492.007H246.253V491.435C245.81 491.916 245.2 492.156 244.422 492.156C243.782 492.156 243.263 492.007 242.866 491.71C242.478 491.412 242.283 490.977 242.283 490.405C242.283 489.811 242.497 489.38 242.924 489.113C243.358 488.838 243.915 488.701 244.594 488.701H246.253C246.253 487.908 245.742 487.511 244.72 487.511C244.384 487.511 244.079 487.58 243.805 487.717C243.538 487.847 243.351 488.034 243.244 488.278H242.157C242.302 487.751 242.611 487.34 243.084 487.042C243.557 486.745 244.102 486.596 244.72 486.596ZM246.253 489.902V489.559H244.582C243.705 489.559 243.267 489.841 243.267 490.405C243.267 490.962 243.686 491.241 244.525 491.241C245.052 491.241 245.471 491.119 245.784 490.875C246.096 490.623 246.253 490.299 246.253 489.902ZM254.761 493.449H253.777V492.007H248.949V486.745H249.933V491.138H252.919V486.745H253.903V491.138H254.761V493.449ZM257.117 492.007H256.133V486.745H257.117V490.577L260.194 486.745H261.178V492.007H260.194V488.175L257.117 492.007ZM266.298 490.268H265.074L263.587 492.007H262.294L263.862 490.177C263.442 490.062 263.126 489.856 262.912 489.559C262.706 489.261 262.603 488.911 262.603 488.506C262.603 487.995 262.771 487.576 263.106 487.248C263.442 486.912 263.934 486.745 264.582 486.745H267.282V492.007H266.298V490.268ZM266.298 487.614H264.617C264.289 487.614 264.033 487.69 263.85 487.843C263.675 487.995 263.587 488.217 263.587 488.506C263.587 488.796 263.675 489.017 263.85 489.17C264.033 489.322 264.289 489.399 264.617 489.399H266.298V487.614Z" fill="#999999"/>
<circle cx="155.032" cy="203.27" r="17.732" fill="white" stroke="#5608A5" stroke-width="1.716"/>
<path d="M159.84 211.564H150.796C149.82 211.564 149.026 210.755 149.026 209.762V202.956C149.026 201.963 149.82 201.154 150.796 201.154H159.84C160.816 201.154 161.61 201.963 161.61 202.956V209.762C161.61 210.755 160.816 211.564 159.84 211.564ZM150.796 202.355C150.471 202.355 150.206 202.625 150.206 202.956V209.762C150.206 210.093 150.471 210.363 150.796 210.363H159.84C160.165 210.363 160.43 210.093 160.43 209.762V202.956C160.43 202.625 160.165 202.355 159.84 202.355H150.796Z" fill="#5608A5"/>
<path d="M158.66 202.355C158.334 202.355 158.07 202.086 158.07 201.755V199.552C158.07 198.007 156.835 196.75 155.317 196.75C153.799 196.75 152.565 198.007 152.565 199.552V201.755C152.565 202.086 152.3 202.355 151.975 202.355C151.649 202.355 151.385 202.086 151.385 201.755V199.552C151.385 197.345 153.149 195.548 155.317 195.548C157.486 195.548 159.25 197.345 159.25 199.552V201.755C159.25 202.086 158.986 202.355 158.66 202.355Z" fill="#5608A5"/>
</g>
</g>
<path d="M354.195 539.468V71.5218C354.195 61.6575 349.601 52.8742 342.439 47.1989C351.628 52.6039 357.843 62.6034 357.843 73.9541V536.9C357.843 548.386 351.628 558.386 342.439 563.656C349.601 558.115 354.195 549.332 354.195 539.468Z" fill="url(#paint8_linear_57_3745)"/>
<path d="M109.209 539.468V71.5218C109.209 61.6575 113.804 52.8742 120.966 47.1989C111.777 52.6039 105.561 62.6034 105.561 73.9541V536.9C105.561 548.386 111.777 558.386 120.966 563.656C113.804 558.115 109.209 549.332 109.209 539.468Z" fill="url(#paint9_linear_57_3745)"/>
<path d="M162.044 48.8202C163.665 49.9012 166.368 52.3335 166.909 56.5224C167.584 62.6032 169.881 69.9001 179.881 69.9001H222.986C232.851 69.9001 240.418 69.9001 240.418 69.9001H283.523C293.388 69.9001 295.82 62.4681 296.496 56.5224C296.901 52.3335 299.739 49.9012 301.36 48.8202H162.044Z" fill="black"/>
<path d="M246.634 59.3603H216.636C215.825 59.3603 215.149 58.6847 215.149 57.8739V57.0632C215.149 56.2524 215.825 55.5768 216.636 55.5768H246.634C247.445 55.5768 248.12 56.2524 248.12 57.0632V57.8739C248.256 58.6847 247.58 59.3603 246.634 59.3603Z" fill="url(#paint10_linear_57_3745)"/>
<path d="M260.282 61.3872C262.223 61.3872 263.796 59.8143 263.796 57.8739C263.796 55.9336 262.223 54.3606 260.282 54.3606C258.342 54.3606 256.769 55.9336 256.769 57.8739C256.769 59.8143 258.342 61.3872 260.282 61.3872Z" fill="black"/>
<path d="M260.282 62.8734C263.043 62.8734 265.282 60.635 265.282 57.8737C265.282 55.1125 263.043 52.874 260.282 52.874C257.521 52.874 255.282 55.1125 255.282 57.8737C255.282 60.635 257.521 62.8734 260.282 62.8734Z" fill="url(#paint11_linear_57_3745)"/>
<path d="M260.282 61.9277C262.521 61.9277 264.336 60.1128 264.336 57.8739C264.336 55.635 262.521 53.8201 260.282 53.8201C258.043 53.8201 256.229 55.635 256.229 57.8739C256.229 60.1128 258.043 61.9277 260.282 61.9277Z" fill="url(#paint12_linear_57_3745)"/>
<path d="M260.282 61.3872C262.223 61.3872 263.796 59.8143 263.796 57.8739C263.796 55.9336 262.223 54.3606 260.282 54.3606C258.342 54.3606 256.769 55.9336 256.769 57.8739C256.769 59.8143 258.342 61.3872 260.282 61.3872Z" fill="url(#paint13_linear_57_3745)"/>
<path d="M260.282 61.3872C262.223 61.3872 263.796 59.8143 263.796 57.8739C263.796 55.9336 262.223 54.3606 260.282 54.3606C258.342 54.3606 256.769 55.9336 256.769 57.8739C256.769 59.8143 258.342 61.3872 260.282 61.3872Z" fill="url(#paint14_radial_57_3745)"/>
<path d="M260.282 61.3872C262.223 61.3872 263.796 59.8143 263.796 57.8739C263.796 55.9336 262.223 54.3606 260.282 54.3606C258.342 54.3606 256.769 55.9336 256.769 57.8739C256.769 59.8143 258.342 61.3872 260.282 61.3872Z" fill="url(#paint15_radial_57_3745)"/>
<path opacity="0.5" d="M260.282 61.3872C262.223 61.3872 263.796 59.8143 263.796 57.8739C263.796 55.9336 262.223 54.3606 260.282 54.3606C258.342 54.3606 256.769 55.9336 256.769 57.8739C256.769 59.8143 258.342 61.3872 260.282 61.3872Z" fill="url(#paint16_radial_57_3745)"/>
<path d="M145.565 63.225C145.565 63.503 145.491 63.7504 145.343 63.9671C145.197 64.1839 145 64.3535 144.75 64.4759C145.041 64.6008 145.27 64.7832 145.438 65.0229C145.609 65.2626 145.695 65.5342 145.695 65.8376C145.695 66.3196 145.531 66.7034 145.205 66.989C144.881 67.2746 144.454 67.4174 143.924 67.4174C143.388 67.4174 142.958 67.2746 142.635 66.989C142.313 66.7009 142.153 66.3171 142.153 65.8376C142.153 65.5367 142.234 65.2651 142.397 65.0229C142.563 64.7806 142.791 64.597 143.082 64.472C142.835 64.3496 142.64 64.1801 142.497 63.9633C142.354 63.7465 142.283 63.5004 142.283 63.225C142.283 62.7558 142.433 62.3835 142.734 62.1081C143.035 61.8327 143.431 61.6949 143.924 61.6949C144.413 61.6949 144.809 61.8327 145.109 62.1081C145.413 62.3835 145.565 62.7558 145.565 63.225ZM144.987 65.8223C144.987 65.5112 144.888 65.2575 144.689 65.0611C144.492 64.8648 144.235 64.7666 143.916 64.7666C143.597 64.7666 143.341 64.8635 143.147 65.0573C142.956 65.2511 142.86 65.5061 142.86 65.8223C142.86 66.1386 142.953 66.3872 143.139 66.5683C143.328 66.7493 143.59 66.8398 143.924 66.8398C144.255 66.8398 144.515 66.7493 144.704 66.5683C144.893 66.3846 144.987 66.136 144.987 65.8223ZM143.924 62.2764C143.646 62.2764 143.42 62.3631 143.247 62.5365C143.076 62.7074 142.99 62.9407 142.99 63.2365C142.99 63.5196 143.074 63.7491 143.243 63.925C143.414 64.0984 143.641 64.1852 143.924 64.1852C144.207 64.1852 144.432 64.0984 144.601 63.925C144.772 63.7491 144.857 63.5196 144.857 63.2365C144.857 62.9534 144.769 62.7227 144.593 62.5441C144.417 62.3656 144.194 62.2764 143.924 62.2764ZM146.636 66.9699C146.636 66.8475 146.671 66.7455 146.743 66.6639C146.817 66.5823 146.926 66.5415 147.072 66.5415C147.217 66.5415 147.327 66.5823 147.401 66.6639C147.477 66.7455 147.515 66.8475 147.515 66.9699C147.515 67.0872 147.477 67.1854 147.401 67.2644C147.327 67.3435 147.217 67.383 147.072 67.383C146.926 67.383 146.817 67.3435 146.743 67.2644C146.671 67.1854 146.636 67.0872 146.636 66.9699ZM146.64 63.5922C146.64 63.4698 146.675 63.3678 146.747 63.2862C146.821 63.2046 146.93 63.1638 147.076 63.1638C147.221 63.1638 147.331 63.2046 147.405 63.2862C147.481 63.3678 147.519 63.4698 147.519 63.5922C147.519 63.7096 147.481 63.8077 147.405 63.8868C147.331 63.9658 147.221 64.0054 147.076 64.0054C146.93 64.0054 146.821 63.9658 146.747 63.8868C146.675 63.8077 146.64 63.7096 146.64 63.5922ZM149.512 64.2119H150.044C150.378 64.2068 150.641 64.1188 150.832 63.948C151.023 63.7771 151.119 63.5463 151.119 63.2556C151.119 62.6028 150.794 62.2764 150.143 62.2764C149.837 62.2764 149.593 62.3644 149.409 62.5403C149.228 62.7137 149.137 62.9445 149.137 63.2327H148.43C148.43 62.7915 148.59 62.4256 148.912 62.1348C149.236 61.8416 149.646 61.6949 150.143 61.6949C150.669 61.6949 151.081 61.8339 151.379 62.1119C151.677 62.3899 151.826 62.7762 151.826 63.2709C151.826 63.5132 151.747 63.7478 151.589 63.9748C151.434 64.2017 151.221 64.3713 150.951 64.4835C151.257 64.5804 151.492 64.7411 151.658 64.9655C151.826 65.1899 151.911 65.464 151.911 65.7879C151.911 66.2877 151.747 66.6843 151.421 66.9775C151.095 67.2708 150.67 67.4174 150.147 67.4174C149.624 67.4174 149.199 67.2759 148.87 66.9928C148.543 66.7098 148.38 66.3362 148.38 65.8721H149.091C149.091 66.1653 149.187 66.3999 149.378 66.5759C149.57 66.7519 149.826 66.8398 150.147 66.8398C150.489 66.8398 150.75 66.7506 150.931 66.5721C151.112 66.3936 151.203 66.1373 151.203 65.8032C151.203 65.4793 151.104 65.2307 150.905 65.0573C150.706 64.8839 150.419 64.7946 150.044 64.7895H149.512V64.2119ZM156.375 64.9655C156.375 65.7943 156.233 66.4101 155.95 66.8131C155.667 67.216 155.225 67.4174 154.623 67.4174C154.029 67.4174 153.589 67.2211 153.303 66.8284C153.017 66.4331 152.869 65.844 152.859 65.0611V64.1163C152.859 63.2977 153.001 62.6895 153.284 62.2917C153.567 61.8939 154.011 61.6949 154.615 61.6949C155.214 61.6949 155.655 61.8875 155.939 62.2726C156.222 62.6551 156.367 63.2467 156.375 64.0474V64.9655ZM155.667 63.9977C155.667 63.3984 155.583 62.9624 155.415 62.6895C155.246 62.4141 154.98 62.2764 154.615 62.2764C154.253 62.2764 153.989 62.4128 153.823 62.6857C153.657 62.9585 153.572 63.378 153.567 63.9442V65.0764C153.567 65.6783 153.654 66.1233 153.827 66.4114C154.003 66.697 154.268 66.8398 154.623 66.8398C154.972 66.8398 155.231 66.7047 155.399 66.4344C155.57 66.1641 155.659 65.7382 155.667 65.1568V63.9977Z" fill="#333333"/>
<path d="M303.118 65.8462H301.496V68.4136H303.118V65.8462Z" fill="#333333"/>
<path d="M305.415 64.7653H303.793V68.4137H305.415V64.7653Z" fill="#333333"/>
<path d="M307.712 63.8193H306.091V68.5488H307.712V63.8193Z" fill="#333333"/>
<path d="M310.01 62.6031H308.388V68.4136H310.01V62.6031Z" fill="#333333"/>
<path d="M313.387 65.5758C314.333 64.6299 315.549 64.0894 316.9 64.0894C318.251 64.0894 319.467 64.6299 320.413 65.5758L321.494 64.4948C320.278 63.2787 318.657 62.603 316.9 62.603C315.143 62.603 313.522 63.2787 312.306 64.4948L313.387 65.5758Z" fill="#333333"/>
<path d="M314.874 67.0623C315.414 66.5218 316.225 66.2515 317.036 66.2515C317.846 66.2515 318.657 66.5218 319.198 67.0623L320.279 65.9813C319.468 65.1705 318.387 64.63 317.036 64.63C315.819 64.63 314.603 65.1705 313.792 65.9813L314.874 67.0623Z" fill="#333333"/>
<path d="M316.359 68.4136C316.494 68.2785 316.765 68.1434 317.035 68.1434C317.305 68.1434 317.575 68.2785 317.711 68.4136L318.792 67.3326C318.386 66.9272 317.711 66.657 317.035 66.657C316.359 66.657 315.684 66.9272 315.278 67.3326L316.359 68.4136Z" fill="#333333"/>
<path d="M333.656 67.7379H324.062C323.927 67.7379 323.792 67.6028 323.792 67.4676V63.6841C323.792 63.5489 323.927 63.4138 324.062 63.4138H333.656C333.791 63.4138 333.926 63.5489 333.926 63.6841V67.4676C334.061 67.6028 333.926 67.7379 333.656 67.7379Z" fill="#333333"/>
<path d="M334.737 66.5218H334.467C334.332 66.5218 334.197 66.3867 334.197 66.2515V64.9003C334.197 64.7651 334.332 64.63 334.467 64.63H334.737C334.872 64.63 335.008 64.7651 335.008 64.9003V66.2515C335.008 66.3867 334.872 66.5218 334.737 66.5218Z" fill="#333333"/>
<g filter="url(#filter1_d_57_3745)">
<path d="M161.814 460L38.751 517.735L50.2634 555.432L161.814 460Z" fill="url(#paint17_linear_57_3745)"/>
<path d="M161.814 460L38.751 517.735L50.2634 555.432L161.814 460Z" fill="url(#paint18_linear_57_3745)"/>
<path d="M161.815 460L38.7512 517.735L18.1083 519.124L6.00049 508.014L161.815 460Z" fill="url(#paint19_linear_57_3745)"/>
<path d="M161.814 460L61.974 531.425L50.2632 555.432L161.814 460Z" fill="url(#paint20_linear_57_3745)"/>
<path d="M161.814 460L61.974 531.425L50.2632 555.432L161.814 460Z" fill="url(#paint21_linear_57_3745)"/>
<path d="M161.814 460L61.9741 531.425L77.6548 548.488L96.7098 555.432L161.814 460Z" fill="url(#paint22_linear_57_3745)"/>
<path d="M96.7097 555.432L77.6547 548.488L61.974 531.425L50.2632 555.432L38.7508 517.735L18.1079 519.124L6 508.013L18.5048 518.926L38.9492 517.735L50.4616 553.844L61.974 531.425L77.6547 547.892L96.7097 555.432Z" fill="#E5E9FF"/>
</g>
</g>
<defs>
<filter id="filter0_d_57_3745" x="27.7619" y="-34.3959" width="408.408" height="684.113" filterUnits="userSpaceOnUse" color-interpolation-filters="sRGB">
<feFlood flood-opacity="0" result="BackgroundImageFix"/>
<feColorMatrix in="SourceAlpha" type="matrix" values="0 0 0 0 0 0 0 0 0 0 0 0 0 0 0 0 0 0 127 0" result="hardAlpha"/>
<feOffset dy="2.288"/>
<feGaussianBlur stdDeviation="42.9"/>
<feColorMatrix type="matrix" values="0 0 0 0 0 0 0 0 0 0 0 0 0 0 0 0 0 0 0.08 0"/>
<feBlend mode="normal" in2="BackgroundImageFix" result="effect1_dropShadow_57_3745"/>
<feBlend mode="normal" in="SourceGraphic" in2="effect1_dropShadow_57_3745" result="shape"/>
</filter>
<filter id="filter1_d_57_3745" x="1.57621" y="460" width="164.662" height="104.279" filterUnits="userSpaceOnUse" color-interpolation-filters="sRGB">
<feFlood flood-opacity="0" result="BackgroundImageFix"/>
<feColorMatrix in="SourceAlpha" type="matrix" values="0 0 0 0 0 0 0 0 0 0 0 0 0 0 0 0 0 0 127 0" result="hardAlpha"/>
<feOffset dy="4.42379"/>
<feGaussianBlur stdDeviation="2.2119"/>
<feComposite in2="hardAlpha" operator="out"/>
<feColorMatrix type="matrix" values="0 0 0 0 0.396078 0 0 0 0 0.0980392 0 0 0 0 0.698039 0 0 0 0.1 0"/>
<feBlend mode="normal" in2="BackgroundImageFix" result="effect1_dropShadow_57_3745"/>
<feBlend mode="normal" in="SourceGraphic" in2="effect1_dropShadow_57_3745" result="shape"/>
</filter>
<linearGradient id="paint0_linear_57_3745" x1="432" y1="209.5" x2="141.5" y2="602.5" gradientUnits="userSpaceOnUse">
<stop offset="0.0656249" stop-color="#D1CB30"/>
<stop offset="0.315625" stop-color="#E8BF8E" stop-opacity="0.937208"/>
<stop offset="0.654167" stop-color="#8D9ABB" stop-opacity="0.932077"/>
<stop offset="1" stop-color="#A35ADD" stop-opacity="0.89"/>
</linearGradient>
<radialGradient id="paint1_radial_57_3745" cx="0" cy="0" r="1" gradientUnits="userSpaceOnUse" gradientTransform="translate(231.5 574.498) scale(233.507 10.7721)">
<stop stop-color="#5608A5"/>
<stop offset="0.154167" stop-color="#5608A5" stop-opacity="0.4"/>
<stop offset="0.3521" stop-color="#5608A5" stop-opacity="0.27"/>
<stop offset="0.6743" stop-color="#5608A5" stop-opacity="0.1"/>
<stop offset="1" stop-color="#F1F1F2" stop-opacity="0"/>
</radialGradient>
<linearGradient id="paint2_linear_57_3745" x1="362.885" y1="159.983" x2="362.885" y2="225.064" gradientUnits="userSpaceOnUse">
<stop stop-color="#231F20"/>
<stop offset="0.0179518" stop-color="#272324"/>
<stop offset="0.3145" stop-color="#676769"/>
<stop offset="0.4531" stop-color="#808184"/>
<stop offset="0.5592" stop-color="#747477"/>
<stop offset="0.7571" stop-color="#535153"/>
<stop offset="1" stop-color="#231F20"/>
</linearGradient>
<linearGradient id="paint3_linear_57_3745" x1="100.115" y1="108.866" x2="100.115" y2="130.756" gradientUnits="userSpaceOnUse">
<stop stop-color="#231F20"/>
<stop offset="0.0179518" stop-color="#272324"/>
<stop offset="0.3145" stop-color="#676769"/>
<stop offset="0.4531" stop-color="#808184"/>
<stop offset="0.5592" stop-color="#747477"/>
<stop offset="0.7571" stop-color="#535153"/>
<stop offset="1" stop-color="#231F20"/>
</linearGradient>
<linearGradient id="paint4_linear_57_3745" x1="100.115" y1="145.977" x2="100.115" y2="186.737" gradientUnits="userSpaceOnUse">
<stop stop-color="#231F20"/>
<stop offset="0.0179518" stop-color="#272324"/>
<stop offset="0.3145" stop-color="#676769"/>
<stop offset="0.4531" stop-color="#808184"/>
<stop offset="0.5592" stop-color="#747477"/>
<stop offset="0.7571" stop-color="#535153"/>
<stop offset="1" stop-color="#231F20"/>
</linearGradient>
<linearGradient id="paint5_linear_57_3745" x1="100.115" y1="196.298" x2="100.115" y2="237.938" gradientUnits="userSpaceOnUse">
<stop stop-color="#231F20"/>
<stop offset="0.0179518" stop-color="#272324"/>
<stop offset="0.3145" stop-color="#676769"/>
<stop offset="0.4531" stop-color="#808184"/>
<stop offset="0.5592" stop-color="#747477"/>
<stop offset="0.7571" stop-color="#535153"/>
<stop offset="1" stop-color="#231F20"/>
</linearGradient>
<linearGradient id="paint6_linear_57_3745" x1="100.478" y1="305.483" x2="362.885" y2="305.483" gradientUnits="userSpaceOnUse">
<stop stop-color="#231F20"/>
<stop offset="0.0179518" stop-color="#272324"/>
<stop offset="0.3145" stop-color="#676769"/>
<stop offset="0.4531" stop-color="#808184"/>
<stop offset="0.5592" stop-color="#747477"/>
<stop offset="0.7571" stop-color="#535153"/>
<stop offset="1" stop-color="#231F20"/>
</linearGradient>
<linearGradient id="paint7_linear_57_3745" x1="231.681" y1="564.174" x2="231.681" y2="45.6511" gradientUnits="userSpaceOnUse">
<stop stop-color="#4D4D4D"/>
<stop offset="1"/>
</linearGradient>
<linearGradient id="paint8_linear_57_3745" x1="353.132" y1="305.483" x2="358.895" y2="305.483" gradientUnits="userSpaceOnUse">
<stop stop-opacity="0"/>
<stop offset="0.2019" stop-color="#3D3D3D" stop-opacity="0.2019"/>
<stop offset="0.4932" stop-color="#8F8F8F" stop-opacity="0.4932"/>
<stop offset="0.7326" stop-color="#CCCCCC" stop-opacity="0.7326"/>
<stop offset="0.9077" stop-color="#F1F1F1" stop-opacity="0.9077"/>
<stop offset="1" stop-color="white"/>
</linearGradient>
<linearGradient id="paint9_linear_57_3745" x1="110.231" y1="305.483" x2="104.467" y2="305.483" gradientUnits="userSpaceOnUse">
<stop stop-opacity="0"/>
<stop offset="0.2019" stop-color="#3D3D3D" stop-opacity="0.2019"/>
<stop offset="0.4932" stop-color="#8F8F8F" stop-opacity="0.4932"/>
<stop offset="0.7326" stop-color="#CCCCCC" stop-opacity="0.7326"/>
<stop offset="0.9077" stop-color="#F1F1F1" stop-opacity="0.9077"/>
<stop offset="1" stop-color="white"/>
</linearGradient>
<linearGradient id="paint10_linear_57_3745" x1="231.681" y1="59.4895" x2="231.681" y2="55.3376" gradientUnits="userSpaceOnUse">
<stop stop-color="#4D4D4D"/>
<stop offset="0.069299" stop-color="#434343"/>
<stop offset="0.3091" stop-color="#262626"/>
<stop offset="0.5466" stop-color="#111111"/>
<stop offset="0.779" stop-color="#040404"/>
<stop offset="1"/>
</linearGradient>
<linearGradient id="paint11_linear_57_3745" x1="264.292" y1="61.8896" x2="256.797" y2="54.3948" gradientUnits="userSpaceOnUse">
<stop stop-color="#4D4D4D"/>
<stop offset="1"/>
</linearGradient>
<linearGradient id="paint12_linear_57_3745" x1="263.573" y1="61.1706" x2="257.442" y2="55.0396" gradientUnits="userSpaceOnUse">
<stop/>
<stop offset="1" stop-color="#4D4D4D"/>
</linearGradient>
<linearGradient id="paint13_linear_57_3745" x1="257.764" y1="55.3612" x2="263.371" y2="60.9686" gradientUnits="userSpaceOnUse">
<stop stop-color="#0058EE"/>
<stop offset="0.6936" stop-opacity="0"/>
</linearGradient>
<radialGradient id="paint14_radial_57_3745" cx="0" cy="0" r="1" gradientUnits="userSpaceOnUse" gradientTransform="translate(260.632 61.4386) scale(3.50546)">
<stop stop-color="#0058EE"/>
<stop offset="0.8599" stop-opacity="0"/>
</radialGradient>
<radialGradient id="paint15_radial_57_3745" cx="0" cy="0" r="1" gradientUnits="userSpaceOnUse" gradientTransform="translate(263.663 56.836) scale(2.30135)">
<stop stop-color="#0058EE"/>
<stop offset="0.7042" stop-opacity="0"/>
</radialGradient>
<radialGradient id="paint16_radial_57_3745" cx="0" cy="0" r="1" gradientUnits="userSpaceOnUse" gradientTransform="translate(258.185 59.121) scale(3.49073)">
<stop stop-color="white"/>
<stop offset="0.1479" stop-color="#BDBDBD" stop-opacity="0.8332"/>
<stop offset="0.2947" stop-color="#838383" stop-opacity="0.6677"/>
<stop offset="0.4349" stop-color="#545454" stop-opacity="0.5095"/>
<stop offset="0.5675" stop-color="#303030" stop-opacity="0.36"/>
<stop offset="0.6906" stop-color="#151515" stop-opacity="0.2212"/>
<stop offset="0.8007" stop-color="#060606" stop-opacity="0.0970856"/>
<stop offset="0.8868" stop-opacity="0"/>
</radialGradient>
<linearGradient id="paint17_linear_57_3745" x1="29.6423" y1="469.698" x2="138.68" y2="523.884" gradientUnits="userSpaceOnUse">
<stop stop-color="#AFB6E5"/>
<stop offset="0.4293" stop-color="#E5E9FF"/>
<stop offset="1" stop-color="white"/>
</linearGradient>
<linearGradient id="paint18_linear_57_3745" x1="97.7266" y1="490.617" x2="108.305" y2="512.114" gradientUnits="userSpaceOnUse">
<stop stop-color="white"/>
<stop offset="1" stop-color="#E6E7E8"/>
</linearGradient>
<linearGradient id="paint19_linear_57_3745" x1="-192.087" y1="561.621" x2="144.006" y2="477.892" gradientUnits="userSpaceOnUse">
<stop stop-color="#AFB6E5"/>
<stop offset="0.4293" stop-color="#E5E9FF"/>
<stop offset="1" stop-color="white"/>
</linearGradient>
<linearGradient id="paint20_linear_57_3745" x1="53.627" y1="514.906" x2="106.249" y2="507.651" gradientUnits="userSpaceOnUse">
<stop stop-color="#DADBE3"/>
<stop offset="0.0291665" stop-color="#E3E5F2"/>
<stop offset="0.4293" stop-color="#E6E9F7"/>
<stop offset="1" stop-color="white"/>
</linearGradient>
<linearGradient id="paint21_linear_57_3745" x1="104.143" y1="549.33" x2="105.52" y2="520.389" gradientUnits="userSpaceOnUse">
<stop stop-color="white"/>
<stop offset="1" stop-color="#AFB6E5"/>
</linearGradient>
<linearGradient id="paint22_linear_57_3745" x1="73.2459" y1="653.074" x2="117.869" y2="471.527" gradientUnits="userSpaceOnUse">
<stop stop-color="#AFB6E5"/>
<stop offset="0.4293" stop-color="#E5E9FF"/>
<stop offset="1" stop-color="white"/>
</linearGradient>
<clipPath id="clip0_57_3745">
<rect width="473" height="637" fill="white"/>
</clipPath>
<clipPath id="clip1_57_3745">
<rect x="113.562" y="49.1162" width="236.808" height="512.512" rx="24.3229" fill="white"/>
</clipPath>
</defs>
</svg>
